<svg width="24" height="24" viewBox="0 0 24 24" fill="none" xmlns="http://www.w3.org/2000/svg">
<mask id="path-1-inside-1_222_322" fill="white">
<path d="M20.4 2.4H18V1.2C18 0.88174 17.8736 0.576515 17.6485 0.351472C17.4235 0.126428 17.1183 0 16.8 0C16.4817 0 16.1765 0.126428 15.9515 0.351472C15.7264 0.576515 15.6 0.88174 15.6 1.2V2.4H8.4V1.2C8.4 0.88174 8.27357 0.576515 8.04853 0.351472C7.82348 0.126428 7.51826 0 7.2 0C6.88174 0 6.57652 0.126428 6.35147 0.351472C6.12643 0.576515 6 0.88174 6 1.2V2.4H3.6C2.64522 2.4 1.72955 2.77928 1.05442 3.45442C0.379285 4.12955 0 5.04522 0 6V20.4C0 21.3548 0.379285 22.2705 1.05442 22.9456C1.72955 23.6207 2.64522 24 3.6 24H20.4C21.3548 24 22.2705 23.6207 22.9456 22.9456C23.6207 22.2705 24 21.3548 24 20.4V6C24 5.04522 23.6207 4.12955 22.9456 3.45442C22.2705 2.77928 21.3548 2.4 20.4 2.4ZM21.6 20.4C21.6 20.7183 21.4736 21.0235 21.2485 21.2485C21.0235 21.4736 20.7183 21.6 20.4 21.6H3.6C3.28174 21.6 2.97652 21.4736 2.75147 21.2485C2.52643 21.0235 2.4 20.7183 2.4 20.4V12H21.6V20.4ZM21.6 9.6H2.4V6C2.4 5.68174 2.52643 5.37652 2.75147 5.15147C2.97652 4.92643 3.28174 4.8 3.6 4.8H6V6C6 6.31826 6.12643 6.62348 6.35147 6.84853C6.57652 7.07357 6.88174 7.2 7.2 7.2C7.51826 7.2 7.82348 7.07357 8.04853 6.84853C8.27357 6.62348 8.4 6.31826 8.4 6V4.8H15.6V6C15.6 6.31826 15.7264 6.62348 15.9515 6.84853C16.1765 7.07357 16.4817 7.2 16.8 7.2C17.1183 7.2 17.4235 7.07357 17.6485 6.84853C17.8736 6.62348 18 6.31826 18 6V4.8H20.4C20.7183 4.8 21.0235 4.92643 21.2485 5.15147C21.4736 5.37652 21.6 5.68174 21.6 6V9.6Z"/>
</mask>
<path d="M20.4 2.4H18V1.2C18 0.88174 17.8736 0.576515 17.6485 0.351472C17.4235 0.126428 17.1183 0 16.8 0C16.4817 0 16.1765 0.126428 15.9515 0.351472C15.7264 0.576515 15.6 0.88174 15.6 1.2V2.4H8.4V1.2C8.4 0.88174 8.27357 0.576515 8.04853 0.351472C7.82348 0.126428 7.51826 0 7.2 0C6.88174 0 6.57652 0.126428 6.35147 0.351472C6.12643 0.576515 6 0.88174 6 1.2V2.4H3.6C2.64522 2.4 1.72955 2.77928 1.05442 3.45442C0.379285 4.12955 0 5.04522 0 6V20.4C0 21.3548 0.379285 22.2705 1.05442 22.9456C1.72955 23.6207 2.64522 24 3.6 24H20.4C21.3548 24 22.2705 23.6207 22.9456 22.9456C23.6207 22.2705 24 21.3548 24 20.4V6C24 5.04522 23.6207 4.12955 22.9456 3.45442C22.2705 2.77928 21.3548 2.4 20.4 2.4ZM21.6 20.4C21.6 20.7183 21.4736 21.0235 21.2485 21.2485C21.0235 21.4736 20.7183 21.6 20.4 21.6H3.6C3.28174 21.6 2.97652 21.4736 2.75147 21.2485C2.52643 21.0235 2.4 20.7183 2.4 20.4V12H21.6V20.4ZM21.6 9.6H2.4V6C2.4 5.68174 2.52643 5.37652 2.75147 5.15147C2.97652 4.92643 3.28174 4.8 3.6 4.8H6V6C6 6.31826 6.12643 6.62348 6.35147 6.84853C6.57652 7.07357 6.88174 7.2 7.2 7.2C7.51826 7.2 7.82348 7.07357 8.04853 6.84853C8.27357 6.62348 8.4 6.31826 8.4 6V4.8H15.6V6C15.6 6.31826 15.7264 6.62348 15.9515 6.84853C16.1765 7.07357 16.4817 7.2 16.8 7.2C17.1183 7.2 17.4235 7.07357 17.6485 6.84853C17.8736 6.62348 18 6.31826 18 6V4.8H20.4C20.7183 4.8 21.0235 4.92643 21.2485 5.15147C21.4736 5.37652 21.6 5.68174 21.6 6V9.6Z" fill="#71C84C"/>
<path d="M20.4 2.4V-1.6V2.4ZM18 2.4H14V6.4H18V2.4ZM16.8 0V-4V0ZM15.6 2.4V6.4H19.6V2.4H15.6ZM8.4 2.4H4.4V6.4H8.4V2.4ZM7.2 0V-4V0ZM6 2.4V6.4H10V2.4H6ZM0 6H-4H0ZM0 20.4H-4H0ZM3.6 24V28V24ZM20.4 24V28V24ZM24 20.4H28H24ZM24 6H28H24ZM2.4 12V8H-1.6V12H2.4ZM21.6 12H25.6V8H21.6V12ZM21.6 9.6V13.6H25.6V9.6H21.6ZM2.4 9.6H-1.6V13.6H2.4V9.6ZM3.6 4.8V8.8V4.8ZM6 4.8H10V0.8H6V4.8ZM8.4 4.8V0.8H4.4V4.8H8.4ZM15.6 4.8H19.6V0.8H15.6V4.8ZM18 4.8V0.8H14V4.8H18ZM20.4 2.4V-1.6H18V2.4V6.4H20.4V2.4ZM18 2.4H22V1.2H18H14V2.4H18ZM18 1.2H22C22 -0.179118 21.4522 -1.50176 20.477 -2.47696L17.6485 0.351472L14.8201 3.1799C14.295 2.65479 14 1.9426 14 1.2H18ZM17.6485 0.351472L20.477 -2.47696C19.5018 -3.45215 18.1791 -4 16.8 -4V0V4C16.0574 4 15.3452 3.70501 14.8201 3.1799L17.6485 0.351472ZM16.8 0V-4C15.4209 -4 14.0982 -3.45214 13.123 -2.47696L15.9515 0.351472L18.7799 3.1799C18.2548 3.705 17.5426 4 16.8 4V0ZM15.9515 0.351472L13.123 -2.47696C12.1479 -1.50177 11.6 -0.179134 11.6 1.2H15.6H19.6C19.6 1.94261 19.305 2.6548 18.7799 3.1799L15.9515 0.351472ZM15.6 1.2H11.6V2.4H15.6H19.6V1.2H15.6ZM15.6 2.4V-1.6H8.4V2.4V6.4H15.6V2.4ZM8.4 2.4H12.4V1.2H8.4H4.4V2.4H8.4ZM8.4 1.2H12.4C12.4 -0.179126 11.8521 -1.50177 10.877 -2.47696L8.04853 0.351472L5.2201 3.1799C4.695 2.6548 4.4 1.94261 4.4 1.2H8.4ZM8.04853 0.351472L10.877 -2.47696C9.90177 -3.45214 8.57913 -4 7.2 -4V0V4C6.45739 4 5.7452 3.705 5.2201 3.1799L8.04853 0.351472ZM7.2 0V-4C5.82088 -4 4.49824 -3.45215 3.52305 -2.47696L6.35147 0.351472L9.1799 3.1799C8.6548 3.705 7.94261 4 7.2 4V0ZM6.35147 0.351472L3.52305 -2.47696C2.54786 -1.50177 2 -0.17913 2 1.2H6H10C10 1.94261 9.705 2.6548 9.1799 3.1799L6.35147 0.351472ZM6 1.2H2V2.4H6H10V1.2H6ZM6 2.4V-1.6H3.6V2.4V6.4H6V2.4ZM3.6 2.4V-1.6C1.58435 -1.6 -0.348735 -0.799287 -1.77401 0.625989L1.05442 3.45442L3.88284 6.28284C3.80783 6.35786 3.70609 6.4 3.6 6.4V2.4ZM1.05442 3.45442L-1.77401 0.625989C-3.19929 2.05126 -4 3.98435 -4 6H0H4C4 6.10609 3.95786 6.20783 3.88284 6.28284L1.05442 3.45442ZM0 6H-4V20.4H0H4V6H0ZM0 20.4H-4C-4 22.4156 -3.19929 24.3487 -1.77401 25.774L1.05442 22.9456L3.88284 20.1172C3.95786 20.1922 4 20.2939 4 20.4H0ZM1.05442 22.9456L-1.77401 25.774C-0.348733 27.1993 1.58436 28 3.6 28V24V20C3.70608 20 3.80783 20.0421 3.88284 20.1172L1.05442 22.9456ZM3.6 24V28H20.4V24V20H3.6V24ZM20.4 24V28C22.4156 28 24.3487 27.1993 25.774 25.774L22.9456 22.9456L20.1172 20.1172C20.1922 20.0421 20.2939 20 20.4 20V24ZM22.9456 22.9456L25.774 25.774C27.1993 24.3487 28 22.4156 28 20.4H24H20C20 20.2939 20.0421 20.1922 20.1172 20.1172L22.9456 22.9456ZM24 20.4H28V6H24H20V20.4H24ZM24 6H28C28 3.98436 27.1993 2.05127 25.774 0.625989L22.9456 3.45442L20.1172 6.28284C20.0421 6.20783 20 6.10608 20 6H24ZM22.9456 3.45442L25.774 0.625989C24.3487 -0.799288 22.4156 -1.6 20.4 -1.6V2.4V6.4C20.2939 6.4 20.1922 6.35786 20.1172 6.28284L22.9456 3.45442ZM21.6 20.4H17.6C17.6 19.6574 17.895 18.9452 18.4201 18.4201L21.2485 21.2485L24.077 24.077C25.0522 23.1018 25.6 21.7791 25.6 20.4H21.6ZM21.2485 21.2485L18.4201 18.4201C18.9452 17.895 19.6574 17.6 20.4 17.6V21.6V25.6C21.7791 25.6 23.1018 25.0522 24.077 24.077L21.2485 21.2485ZM20.4 21.6V17.6H3.6V21.6V25.6H20.4V21.6ZM3.6 21.6V17.6C4.3426 17.6 5.05479 17.895 5.5799 18.4201L2.75147 21.2485L-0.0769549 24.077C0.89824 25.0522 2.22088 25.6 3.6 25.6V21.6ZM2.75147 21.2485L5.5799 18.4201C6.105 18.9452 6.4 19.6574 6.4 20.4H2.4H-1.6C-1.6 21.7791 -1.05214 23.1018 -0.0769549 24.077L2.75147 21.2485ZM2.4 20.4H6.4V12H2.4H-1.6V20.4H2.4ZM2.4 12V16H21.6V12V8H2.4V12ZM21.6 12H17.6V20.4H21.6H25.6V12H21.6ZM21.6 9.6V5.6H2.4V9.6V13.6H21.6V9.6ZM2.4 9.6H6.4V6H2.4H-1.6V9.6H2.4ZM2.4 6H6.4C6.4 6.74261 6.105 7.4548 5.5799 7.9799L2.75147 5.15147L-0.0769549 2.32305C-1.05214 3.29823 -1.6 4.62087 -1.6 6H2.4ZM2.75147 5.15147L5.5799 7.9799C5.0548 8.505 4.34261 8.8 3.6 8.8V4.8V0.8C2.22087 0.8 0.898234 1.34786 -0.0769549 2.32305L2.75147 5.15147ZM3.6 4.8V8.8H6V4.8V0.8H3.6V4.8ZM6 4.8H2V6H6H10V4.8H6ZM6 6H2C2 7.37913 2.54786 8.70177 3.52305 9.67696L6.35147 6.84853L9.1799 4.0201C9.705 4.5452 10 5.25739 10 6H6ZM6.35147 6.84853L3.52305 9.67696C4.49823 10.6521 5.82087 11.2 7.2 11.2V7.2V3.2C7.94261 3.2 8.6548 3.495 9.1799 4.0201L6.35147 6.84853ZM7.2 7.2V11.2C8.57913 11.2 9.90177 10.6521 10.877 9.67696L8.04853 6.84853L5.2201 4.0201C5.7452 3.495 6.45739 3.2 7.2 3.2V7.2ZM8.04853 6.84853L10.877 9.67696C11.8521 8.70177 12.4 7.37913 12.4 6H8.4H4.4C4.4 5.25739 4.695 4.5452 5.2201 4.0201L8.04853 6.84853ZM8.4 6H12.4V4.8H8.4H4.4V6H8.4ZM8.4 4.8V8.8H15.6V4.8V0.8H8.4V4.8ZM15.6 4.8H11.6V6H15.6H19.6V4.8H15.6ZM15.6 6H11.6C11.6 7.37913 12.1479 8.70177 13.123 9.67696L15.9515 6.84853L18.7799 4.0201C19.305 4.5452 19.6 5.25739 19.6 6H15.6ZM15.9515 6.84853L13.123 9.67696C14.0982 10.6521 15.4209 11.2 16.8 11.2V7.2V3.2C17.5426 3.2 18.2548 3.49501 18.7799 4.0201L15.9515 6.84853ZM16.8 7.2V11.2C18.1791 11.2 19.5018 10.6521 20.477 9.67696L17.6485 6.84853L14.8201 4.0201C15.3452 3.495 16.0574 3.2 16.8 3.2V7.2ZM17.6485 6.84853L20.477 9.67696C21.4522 8.70176 22 7.37912 22 6H18H14C14 5.2574 14.295 4.54521 14.8201 4.0201L17.6485 6.84853ZM18 6H22V4.8H18H14V6H18ZM18 4.8V8.8H20.4V4.8V0.8H18V4.8ZM20.4 4.8V8.8C19.6574 8.8 18.9452 8.505 18.4201 7.9799L21.2485 5.15147L24.077 2.32305C23.1018 1.34785 21.7791 0.8 20.4 0.8V4.8ZM21.2485 5.15147L18.4201 7.9799C17.895 7.45479 17.6 6.7426 17.6 6H21.6H25.6C25.6 4.62088 25.0522 3.29824 24.077 2.32305L21.2485 5.15147ZM21.6 6H17.6V9.6H21.6H25.6V6H21.6Z" fill="#FAA111" mask="url(#path-1-inside-1_222_322)"/>
</svg>
