<svg width="41" height="44" viewBox="0 0 41 44" fill="none" xmlns="http://www.w3.org/2000/svg">
<path d="M10 16.6667L20.5 10L25.75 13.3333M10 16.6667V27.3333L20.5 34M10 16.6667L15.25 20L10 16.6667ZM20.5 23.3333L31 16.6667L20.5 23.3333ZM20.5 23.3333V34V23.3333ZM20.5 23.3333L15.25 20L20.5 23.3333ZM31 16.6667V27.3333L20.5 34M31 16.6667L25.75 13.3333L31 16.6667ZM15.25 20L25.75 13.3333L15.25 20Z" fill="white"/>
<path d="M10 16.6667L20.5 10L25.75 13.3333M10 16.6667V27.3333L20.5 34M10 16.6667L15.25 20M25.75 13.3333L31 16.6667M25.75 13.3333L15.25 20M20.5 34V23.3333M20.5 34L31 27.3333V16.6667M15.25 20L20.5 23.3333M20.5 23.3333L31 16.6667" stroke="#FF9D00" stroke-width="3" stroke-linecap="round" stroke-linejoin="round"/>
</svg>
