<svg width="37" height="38" viewBox="0 0 37 38" fill="none" xmlns="http://www.w3.org/2000/svg">
<path d="M21.4688 5.75V2.1875C21.4688 1.87256 21.3436 1.57051 21.1209 1.34781C20.8982 1.12511 20.5962 1 20.2812 1H8.40625C7.77636 1 7.17227 1.25022 6.72687 1.69562C6.28147 2.14102 6.03125 2.74511 6.03125 3.375M6.03125 3.375C6.03125 4.00489 6.28147 4.60898 6.72687 5.05438C7.17227 5.49978 7.77636 5.75 8.40625 5.75H22.6562C22.9712 5.75 23.2732 5.87511 23.4959 6.09781C23.7186 6.32051 23.8438 6.62256 23.8438 6.9375V10.5M6.03125 3.375V17.625C6.03125 18.2549 6.28147 18.859 6.72687 19.3044C7.17227 19.7498 7.77636 20 8.40625 20H22.6562C22.9712 20 23.2732 19.8749 23.4959 19.6522C23.7186 19.4295 23.8438 19.1274 23.8438 18.8125V15.25" stroke="#A6B5E9" stroke-width="2" stroke-linecap="round" stroke-linejoin="round"/>
<path d="M30.9688 8.125V12.875H26.2188C25.5889 12.875 24.9848 12.6248 24.5394 12.1794C24.094 11.734 23.8438 11.1299 23.8438 10.5C23.8438 9.87011 24.094 9.26602 24.5394 8.82062C24.9848 8.37522 25.5889 8.125 26.2188 8.125H30.9688Z" stroke="#A6B5E9" stroke-width="2" stroke-linecap="round" stroke-linejoin="round"/>
<path d="M2.817 27.718C3.477 27.718 4.056 27.847 4.554 28.105C5.058 28.363 5.445 28.732 5.715 29.212C5.991 29.686 6.129 30.238 6.129 30.868C6.129 31.498 5.991 32.05 5.715 32.524C5.445 32.992 5.058 33.355 4.554 33.613C4.056 33.871 3.477 34 2.817 34H0.621V27.718H2.817ZM2.772 32.929C3.432 32.929 3.942 32.749 4.302 32.389C4.662 32.029 4.842 31.522 4.842 30.868C4.842 30.214 4.662 29.704 4.302 29.338C3.942 28.966 3.432 28.78 2.772 28.78H1.881V32.929H2.772ZM9.28617 34.081C8.80617 34.081 8.37417 33.976 7.99017 33.766C7.60617 33.55 7.30317 33.247 7.08117 32.857C6.86517 32.467 6.75717 32.017 6.75717 31.507C6.75717 30.997 6.86817 30.547 7.09017 30.157C7.31817 29.767 7.62717 29.467 8.01717 29.257C8.40717 29.041 8.84217 28.933 9.32217 28.933C9.80217 28.933 10.2372 29.041 10.6272 29.257C11.0172 29.467 11.3232 29.767 11.5452 30.157C11.7732 30.547 11.8872 30.997 11.8872 31.507C11.8872 32.017 11.7702 32.467 11.5362 32.857C11.3082 33.247 10.9962 33.55 10.6002 33.766C10.2102 33.976 9.77217 34.081 9.28617 34.081ZM9.28617 32.983C9.51417 32.983 9.72717 32.929 9.92517 32.821C10.1292 32.707 10.2912 32.539 10.4112 32.317C10.5312 32.095 10.5912 31.825 10.5912 31.507C10.5912 31.033 10.4652 30.67 10.2132 30.418C9.96717 30.16 9.66417 30.031 9.30417 30.031C8.94417 30.031 8.64117 30.16 8.39517 30.418C8.15517 30.67 8.03517 31.033 8.03517 31.507C8.03517 31.981 8.15217 32.347 8.38617 32.605C8.62617 32.857 8.92617 32.983 9.28617 32.983ZM19.0034 28.942C19.6154 28.942 20.1074 29.131 20.4794 29.509C20.8574 29.881 21.0464 30.403 21.0464 31.075V34H19.7864V31.246C19.7864 30.856 19.6874 30.559 19.4894 30.355C19.2914 30.145 19.0214 30.04 18.6794 30.04C18.3374 30.04 18.0644 30.145 17.8604 30.355C17.6624 30.559 17.5634 30.856 17.5634 31.246V34H16.3034V31.246C16.3034 30.856 16.2044 30.559 16.0064 30.355C15.8084 30.145 15.5384 30.04 15.1964 30.04C14.8484 30.04 14.5724 30.145 14.3684 30.355C14.1704 30.559 14.0714 30.856 14.0714 31.246V34H12.8114V29.014H14.0714V29.617C14.2334 29.407 14.4404 29.242 14.6924 29.122C14.9504 29.002 15.2324 28.942 15.5384 28.942C15.9284 28.942 16.2764 29.026 16.5824 29.194C16.8884 29.356 17.1254 29.59 17.2934 29.896C17.4554 29.608 17.6894 29.377 17.9954 29.203C18.3074 29.029 18.6434 28.942 19.0034 28.942ZM23.5021 29.734C23.6641 29.506 23.8861 29.317 24.1681 29.167C24.4561 29.011 24.7831 28.933 25.1491 28.933C25.5751 28.933 25.9591 29.038 26.3011 29.248C26.6491 29.458 26.9221 29.758 27.1201 30.148C27.3241 30.532 27.4261 30.979 27.4261 31.489C27.4261 31.999 27.3241 32.452 27.1201 32.848C26.9221 33.238 26.6491 33.541 26.3011 33.757C25.9591 33.973 25.5751 34.081 25.1491 34.081C24.7831 34.081 24.4591 34.006 24.1771 33.856C23.9011 33.706 23.6761 33.517 23.5021 33.289V36.376H22.2421V29.014H23.5021V29.734ZM26.1391 31.489C26.1391 31.189 26.0761 30.931 25.9501 30.715C25.8301 30.493 25.6681 30.325 25.4641 30.211C25.2661 30.097 25.0501 30.04 24.8161 30.04C24.5881 30.04 24.3721 30.1 24.1681 30.22C23.9701 30.334 23.8081 30.502 23.6821 30.724C23.5621 30.946 23.5021 31.207 23.5021 31.507C23.5021 31.807 23.5621 32.068 23.6821 32.29C23.8081 32.512 23.9701 32.683 24.1681 32.803C24.3721 32.917 24.5881 32.974 24.8161 32.974C25.0501 32.974 25.2661 32.914 25.4641 32.794C25.6681 32.674 25.8301 32.503 25.9501 32.281C26.0761 32.059 26.1391 31.795 26.1391 31.489ZM32.9767 31.399C32.9767 31.579 32.9647 31.741 32.9407 31.885H29.2957C29.3257 32.245 29.4517 32.527 29.6737 32.731C29.8957 32.935 30.1687 33.037 30.4927 33.037C30.9607 33.037 31.2937 32.836 31.4917 32.434H32.8507C32.7067 32.914 32.4307 33.31 32.0227 33.622C31.6147 33.928 31.1137 34.081 30.5197 34.081C30.0397 34.081 29.6077 33.976 29.2237 33.766C28.8457 33.55 28.5487 33.247 28.3327 32.857C28.1227 32.467 28.0177 32.017 28.0177 31.507C28.0177 30.991 28.1227 30.538 28.3327 30.148C28.5427 29.758 28.8367 29.458 29.2147 29.248C29.5927 29.038 30.0277 28.933 30.5197 28.933C30.9937 28.933 31.4167 29.035 31.7887 29.239C32.1667 29.443 32.4577 29.734 32.6617 30.112C32.8717 30.484 32.9767 30.913 32.9767 31.399ZM31.6717 31.039C31.6657 30.715 31.5487 30.457 31.3207 30.265C31.0927 30.067 30.8137 29.968 30.4837 29.968C30.1717 29.968 29.9077 30.064 29.6917 30.256C29.4817 30.442 29.3527 30.703 29.3047 31.039H31.6717ZM35.3634 30.049V32.461C35.3634 32.629 35.4024 32.752 35.4804 32.83C35.5644 32.902 35.7024 32.938 35.8944 32.938H36.4794V34H35.6874C34.6254 34 34.0944 33.484 34.0944 32.452V30.049H33.5004V29.014H34.0944V27.781H35.3634V29.014H36.4794V30.049H35.3634Z" fill="#5267AD"/>
</svg>
