<svg width="26" height="26" viewBox="0 0 26 26" fill="none" xmlns="http://www.w3.org/2000/svg">
<path d="M19.3672 23.3281H15.9141V21.0938H19.3672C19.8251 21.0938 20.2643 20.9118 20.5881 20.5881C20.9118 20.2643 21.0938 19.8251 21.0938 19.3672V15.9141H23.3281V19.3672C23.3269 20.4173 22.9092 21.4241 22.1667 22.1667C21.4241 22.9092 20.4173 23.3269 19.3672 23.3281ZM23.3281 9.41406H21.0938V5.96094C21.0938 5.50302 20.9118 5.06387 20.5881 4.74007C20.2643 4.41628 19.8251 4.23438 19.3672 4.23438H15.9141V2H19.3672C20.4173 2.00121 21.4241 2.41891 22.1667 3.16147C22.9092 3.90403 23.3269 4.9108 23.3281 5.96094V9.41406ZM9.41406 23.3281H5.96094C4.9108 23.3269 3.90403 22.9092 3.16147 22.1667C2.41891 21.4241 2.00121 20.4173 2 19.3672V15.9141H4.23438V19.3672C4.23438 19.8251 4.41628 20.2643 4.74007 20.5881C5.06387 20.9118 5.50302 21.0938 5.96094 21.0938H9.41406V23.3281ZM4.23438 9.41406H2V5.96094C2.00121 4.9108 2.41891 3.90403 3.16147 3.16147C3.90403 2.41891 4.9108 2.00121 5.96094 2H9.41406V4.23438H5.96094C5.50302 4.23438 5.06387 4.41628 4.74007 4.74007C4.41628 5.06387 4.23438 5.50302 4.23438 5.96094V9.41406Z" fill="#B58D4B"/>
</svg>
