<svg width="27" height="24" viewBox="0 0 27 24" fill="none" xmlns="http://www.w3.org/2000/svg">
<path opacity="0.3" d="M13 0C19.615 0 25 4.85897 25 10.8795C25 15.0021 22.717 18.0055 20.83 19.7856L20.404 20.1737L19.999 20.5193L19.621 20.821L19.126 21.1913L18.634 21.5259C18.2725 21.7591 18.0295 22.1006 17.809 22.4558L17.5015 22.955C17.1445 23.5173 16.726 24 15.8395 24H10.1605C9.2755 24 8.8555 23.5186 8.4985 22.955L8.3215 22.6697C8.0635 22.2418 7.7995 21.8057 7.366 21.5259L7.018 21.2914L6.7195 21.0789L6.379 20.821L6.001 20.5193L5.596 20.1737L5.1685 19.7856C3.283 18.0055 1 15.0021 1 10.8795C1 4.85897 6.385 0 13 0Z" fill="#53944C"/>
<path d="M15.4997 21.875C16.1371 21.8753 16.7502 21.979 17.2137 22.1649C17.6772 22.3508 17.9561 22.6049 17.9935 22.8752C18.0308 23.1456 17.8238 23.4118 17.4147 23.6194C17.0056 23.8271 16.4253 23.9606 15.7923 23.9926L15.4997 24H10.4981C9.86065 23.9997 9.24756 23.896 8.78407 23.7101C8.32058 23.5242 8.04166 23.2701 8.0043 22.9998C7.96695 22.7294 8.17397 22.4632 8.58308 22.2555C8.9922 22.0479 9.57251 21.9144 10.2055 21.8824L10.4981 21.875H15.4997ZM17.2678 7.31117C16.8372 7.12823 16.2642 7.01833 15.6565 7.0021C15.0487 6.98586 14.4479 7.0644 13.9667 7.22298L13.7316 7.31117L8.74748 9.42875C8.31266 9.6135 8.05142 9.8593 8.01274 10.1201C7.97407 10.3808 8.16062 10.6386 8.53741 10.8451L8.74748 10.946L11.9635 12.3124L8.72997 13.6862C8.28145 13.8774 8.02105 14.134 8.00166 14.4038C7.98227 14.6736 8.20534 14.9365 8.62556 15.139C9.04578 15.3414 9.63165 15.4684 10.2642 15.494C10.8967 15.5196 11.5284 15.4419 12.0311 15.2768L12.2661 15.1886L17.2503 13.071C18.1506 12.6885 18.2406 12.0818 17.4604 11.6547L17.2503 11.5538L14.0342 10.1874L17.2678 8.81356C17.7366 8.61431 18 8.3441 18 8.06236C18 7.78062 17.7366 7.51042 17.2678 7.31117Z" fill="#4CAF40"/>
</svg>
