<svg width="50" height="50" viewBox="0 0 50 50" fill="none" xmlns="http://www.w3.org/2000/svg">
<path d="M10.3741 24.2958C14.37 24.7875 18.0241 21.8188 18.5346 17.6667C19.045 13.5146 14.2929 9.5125 16.0179 4C7.46997 5.2375 4.52414 12.1271 4.05955 15.8875C3.54914 20.0396 6.3783 23.8042 10.3741 24.2958Z" stroke="#53944C" stroke-width="1.5" stroke-linejoin="round"/>
<path d="M14.4179 41.5C10.4074 31.7583 9.77203 23.1542 10.5283 16.5" stroke="#53944C" stroke-width="1.5" stroke-linecap="round" stroke-linejoin="round"/>
<path d="M19.6429 36.6417C22.0908 41.6251 28.0033 43.0001 32.8471 39.7126C37.6908 36.4251 38.4554 27.3126 45.6679 24.1355C37.97 15.6084 28.37 18.6876 23.9846 21.6646C19.1387 24.9521 17.195 31.6584 19.6429 36.6438V36.6417Z" stroke="#53944C" stroke-width="1.5" stroke-linejoin="round"/>
<path d="M12.3345 45.6667C17.2887 37.1333 23.3012 31.9792 29.0012 29" stroke="#53944C" stroke-width="1.5" stroke-linecap="round" stroke-linejoin="round"/>
</svg>
