<svg width="194" height="201" viewBox="0 0 194 201" fill="none" xmlns="http://www.w3.org/2000/svg">
<path d="M180.318 7.63967V21.3538V26.4331C180.318 27.2531 179.977 28.9009 179.309 29.4807C178.641 30.0605 177.226 31.0045 176.282 31.0045C175.338 31.0045 173.419 30.5684 172.751 29.9886C172.083 29.4088 171.742 27.2531 171.742 26.4331V22.8776V9.16346H143.491C142.547 9.16346 139.96 8.65553 139.455 7.63967C138.788 7.05985 138.446 4.90414 138.446 4.08415C138.446 3.26417 139.514 0.52864 141.473 0.52864C143.996 0.52864 146.078 0.52864 147.022 0.52864H174.9C175.844 0.52864 179.052 2.05243 179.309 3.06829C179.566 4.08415 180.318 6.81969 180.318 7.63967ZM42.6616 134.724H23.0978V107.296C23.0978 106.476 22.7504 105.65 21.7395 104.634C20.7287 103.618 19.0543 103.403 18.5489 103.403C18.0435 103.403 16.2512 103.618 15.138 104.634C14.0247 105.65 14 106.476 14 107.296V137.772C14 138.592 14.3437 141.733 14.8491 142.241C15.3545 143.257 17.4363 143.765 18.3804 143.765H30.4879H42.6616C43.6057 143.765 49.4579 144.294 52.685 143.765C51.5377 142.629 50.3911 141.327 49.3804 140.189C48.6996 139.422 47.864 138.28 47.3585 134.724C47.0468 134.724 43.6057 134.724 42.6616 134.724ZM176.282 103.639C175.338 103.639 173.419 104.075 172.751 104.654C172.083 105.234 171.237 106.374 171.237 107.194V134.622H151.269C146.518 134.622 146.518 134.622 146.518 134.622C146.518 134.622 147.022 136.654 146.014 138.686C145.005 140.717 144.155 142.006 141.633 143.53C143.218 143.53 151.283 143.53 152.227 143.53H177.956C178.9 143.53 179.81 142.586 180.478 142.006C181.146 141.426 180.982 138.255 180.982 137.435V107.194C180.982 106.374 180.481 105.234 179.814 104.654C179.146 104.075 177.226 103.639 176.282 103.639ZM18.5403 38.896C19.4845 38.896 21.0627 38.3881 22.0717 37.8801C23.0806 36.8643 23.6032 36.0477 23.6032 35.4063V9.16346H50.6671C51.6112 9.16346 53.5308 8.72741 54.1984 8.1476C55.2093 7.63967 55.4454 5.37258 55.4454 3.84879C55.4454 3.02881 54.94 1.81707 53.9291 0.801206C52.9183 0 51.8407 0 50.8965 0H20.5706C19.6264 0 17.0326 1.75595e-06 16.0217 1.01586C14.6046 2.43995 14 4.25932 14 5.07931V35.3405C14 36.8643 15.5134 37.8801 15.5134 37.8801C15.5134 37.8801 17.5961 38.896 18.5403 38.896Z" fill="#FF9D00"/>
<path fill-rule="evenodd" clip-rule="evenodd" d="M60 143.087H134.266C134.266 143.087 136.347 142.367 137.5 141.587C138.873 140.659 139.438 139.858 140.5 138.587C141.126 137.838 142 136.587 142 136.587L149 48.5871V48.0871H45.5V49.0871L53.5 136.587C53.5 136.587 54.2195 138.535 55 139.587C55.6582 140.474 56.1129 140.929 57 141.587C58.0519 142.368 60 143.087 60 143.087Z" fill="url(#paint0_linear_97_8)"/>
<path fill-rule="evenodd" clip-rule="evenodd" d="M39 32.5C39 32.5 39.5446 31.2451 40 30.4999C40.5091 29.6669 40.8096 29.1903 41.5 28.4999C42.1904 27.8096 42.6512 27.4824 43.5 26.9999C44.4141 26.4803 46 25.9999 46 25.9999H78.3416C78.3416 25.9999 78.0199 23.7262 78.3416 22.3293C78.512 21.5894 79 20.5 79 20.5C79 20.5 79.8551 19.52 80.5 19C81.048 18.558 82 18 82 18C82 18 81.5 18 84 17C86.5 16 110.5 17 110.5 17C110.5 17 111.768 17.1658 112.5 17.5C113.14 17.7923 114.5 18.5 114.5 18.5L115.5 19.5C115.5 19.5 116.143 20.3934 116.5 21C116.943 21.7523 117.5 23 117.5 23V26H149L150.5 26.5C150.5 26.5 151.811 27.4639 152.5 28C152.936 28.3391 153.109 28.6095 153.5 29C153.891 29.3905 154.145 29.5771 154.5 30C154.953 30.5391 155.196 30.8649 155.5 31.5C155.766 32.057 156 33 156 33V41.5L39 41.9999V32.5Z" fill="url(#paint1_linear_97_8)"/>
<path fill-rule="evenodd" clip-rule="evenodd" d="M60 143.087H134.266C134.266 143.087 136.347 142.367 137.5 141.587C138.873 140.659 139.438 139.858 140.5 138.587C141.126 137.838 142 136.587 142 136.587L149 48.5871V48.0871H45.5V49.0871L53.5 136.587C53.5 136.587 54.2195 138.535 55 139.587C55.6582 140.474 56.1129 140.929 57 141.587C58.0519 142.368 60 143.087 60 143.087Z" stroke="#4CAF40"/>
<path fill-rule="evenodd" clip-rule="evenodd" d="M39 32.5C39 32.5 39.5446 31.2451 40 30.4999C40.5091 29.6669 40.8096 29.1903 41.5 28.4999C42.1904 27.8096 42.6512 27.4824 43.5 26.9999C44.4141 26.4803 46 25.9999 46 25.9999H78.3416C78.3416 25.9999 78.0199 23.7262 78.3416 22.3293C78.512 21.5894 79 20.5 79 20.5C79 20.5 79.8551 19.52 80.5 19C81.048 18.558 82 18 82 18C82 18 81.5 18 84 17C86.5 16 110.5 17 110.5 17C110.5 17 111.768 17.1658 112.5 17.5C113.14 17.7923 114.5 18.5 114.5 18.5L115.5 19.5C115.5 19.5 116.143 20.3934 116.5 21C116.943 21.7523 117.5 23 117.5 23V26H149L150.5 26.5C150.5 26.5 151.811 27.4639 152.5 28C152.936 28.3391 153.109 28.6095 153.5 29C153.891 29.3905 154.145 29.5771 154.5 30C154.953 30.5391 155.196 30.8649 155.5 31.5C155.766 32.057 156 33 156 33V41.5L39 41.9999V32.5Z" stroke="#4CAF40"/>
<path d="M82.5 97.8324V116C82.5 116.552 82.9477 117 83.5 117H86C86.5523 117 87 116.552 87 116V110.5C87 109.948 87.4477 109.5 88 109.5H88.8631C89.2517 109.5 89.605 109.725 89.7693 110.077L92.7307 116.423C92.895 116.775 93.2483 117 93.6369 117H96.9764C97.8048 117 98.2767 116.05 97.7783 115.388C95.9214 112.923 92.6393 108.5 93 108.5C93.5 108.5 94.3223 108.051 95 107.5C95.7577 106.884 96.1634 106.416 96.5 105.5C96.904 104.4 97.1248 103.665 97 102.5C96.8939 101.51 96.9084 100.908 96.5 100C96.0995 99.1096 95.7687 98.6019 95 98C94.1721 97.3517 93.5043 97.3114 92.5 97C89.593 96.0986 85.1433 96.6022 83.3212 96.8683C82.8439 96.938 82.5 97.3501 82.5 97.8324Z" fill="white"/>
<path d="M100.025 121.976L100.476 103.476C100.489 102.933 100.933 102.5 101.476 102.5H103.561C103.803 102.5 104 102.697 104 102.939C104 103.331 104.473 103.527 104.75 103.25L105.723 102.277C105.901 102.099 106.139 101.994 106.391 101.987C106.945 101.972 107.955 101.953 108.5 102C109.492 102.086 110.092 102.092 111 102.5C111.89 102.9 112.355 103.267 113 104C113.982 105.117 114.214 106.041 114.5 107.5C114.763 108.841 114.5 111 114.5 111C114.5 111 114.408 112.592 114 113.5C113.6 114.39 113.536 114.811 113 115.5C112.136 116.611 111.095 117.189 110 117.5C108.905 117.811 108.5 118 106.5 118C104.5 118 104.5 116.5 104.5 116.5V122C104.5 122.552 104.052 123 103.5 123H101.025C100.463 123 100.011 122.537 100.025 121.976Z" fill="white"/>
<path d="M93.4354 92.0693L91.0743 58.0693C91.0341 57.4911 91.4923 57 92.0719 57H102.928C103.508 57 103.966 57.4911 103.926 58.0693L101.565 92.0693C101.528 92.5934 101.092 93 100.567 93H94.433C93.9076 93 93.4718 92.5934 93.4354 92.0693Z" fill="white"/>
<path d="M119.065 120.939L122.942 57.9386C122.975 57.4111 123.412 57 123.94 57H133.378C133.976 57 134.44 57.5209 134.371 58.1146L127.102 121.115C127.044 121.619 126.617 122 126.109 122H120.063C119.487 122 119.03 121.514 119.065 120.939Z" fill="white"/>
<path d="M63.105 57H72.0524C72.5838 57 73.0224 57.4156 73.051 57.9462L76.4433 120.946C76.4741 121.519 76.0181 122 75.4447 122H69.405C68.8912 122 68.4611 121.611 68.4099 121.1L62.11 58.0995C62.0511 57.5108 62.5134 57 63.105 57Z" fill="white"/>
<path d="M111.177 25H85.0846C84.5004 25 84.0417 24.5009 84.1381 23.9247C84.2173 23.4515 84.3345 22.9111 84.5 22.5C84.6631 22.095 84.7515 21.859 85 21.5C85.1872 21.2296 85.506 20.9267 85.7334 20.7258C85.9029 20.576 86.1232 20.5 86.3495 20.5H110.151C110.377 20.5 110.597 20.576 110.767 20.7258C110.994 20.9267 111.313 21.2296 111.5 21.5C111.749 21.859 111.862 22.0858 112 22.5C112.163 22.99 112.154 23.6612 112.109 24.1847C112.068 24.661 111.655 25 111.177 25Z" fill="white"/>
<path d="M82.5 97.8324V116C82.5 116.552 82.9477 117 83.5 117H86C86.5523 117 87 116.552 87 116V110.5C87 109.948 87.4477 109.5 88 109.5H88.8631C89.2517 109.5 89.605 109.725 89.7693 110.077L92.7307 116.423C92.895 116.775 93.2483 117 93.6369 117H96.9764C97.8048 117 98.2767 116.05 97.7783 115.388C95.9214 112.923 92.6393 108.5 93 108.5C93.5 108.5 94.3223 108.051 95 107.5C95.7577 106.884 96.1634 106.416 96.5 105.5C96.904 104.4 97.1248 103.665 97 102.5C96.8939 101.51 96.9084 100.908 96.5 100C96.0995 99.1096 95.7687 98.6019 95 98C94.1721 97.3517 93.5043 97.3114 92.5 97C89.593 96.0986 85.1433 96.6022 83.3212 96.8683C82.8439 96.938 82.5 97.3501 82.5 97.8324Z" stroke="#4CAF40"/>
<path d="M100.025 121.976L100.476 103.476C100.489 102.933 100.933 102.5 101.476 102.5H103.561C103.803 102.5 104 102.697 104 102.939C104 103.331 104.473 103.527 104.75 103.25L105.723 102.277C105.901 102.099 106.139 101.994 106.391 101.987C106.945 101.972 107.955 101.953 108.5 102C109.492 102.086 110.092 102.092 111 102.5C111.89 102.9 112.355 103.267 113 104C113.982 105.117 114.214 106.041 114.5 107.5C114.763 108.841 114.5 111 114.5 111C114.5 111 114.408 112.592 114 113.5C113.6 114.39 113.536 114.811 113 115.5C112.136 116.611 111.095 117.189 110 117.5C108.905 117.811 108.5 118 106.5 118C104.5 118 104.5 116.5 104.5 116.5V122C104.5 122.552 104.052 123 103.5 123H101.025C100.463 123 100.011 122.537 100.025 121.976Z" stroke="#4CAF40"/>
<path d="M93.4354 92.0693L91.0743 58.0693C91.0341 57.4911 91.4923 57 92.0719 57H102.928C103.508 57 103.966 57.4911 103.926 58.0693L101.565 92.0693C101.528 92.5934 101.092 93 100.567 93H94.433C93.9076 93 93.4718 92.5934 93.4354 92.0693Z" stroke="#4CAF40"/>
<path d="M119.065 120.939L122.942 57.9386C122.975 57.4111 123.412 57 123.94 57H133.378C133.976 57 134.44 57.5209 134.371 58.1146L127.102 121.115C127.044 121.619 126.617 122 126.109 122H120.063C119.487 122 119.03 121.514 119.065 120.939Z" stroke="#4CAF40"/>
<path d="M63.105 57H72.0524C72.5838 57 73.0224 57.4156 73.051 57.9462L76.4433 120.946C76.4741 121.519 76.0181 122 75.4447 122H69.405C68.8912 122 68.4611 121.611 68.4099 121.1L62.11 58.0995C62.0511 57.5108 62.5134 57 63.105 57Z" stroke="#4CAF40"/>
<path d="M111.177 25H85.0846C84.5004 25 84.0417 24.5009 84.1381 23.9247C84.2173 23.4515 84.3345 22.9111 84.5 22.5C84.6631 22.095 84.7515 21.859 85 21.5C85.1872 21.2296 85.506 20.9267 85.7334 20.7258C85.9029 20.576 86.1232 20.5 86.3495 20.5H110.151C110.377 20.5 110.597 20.576 110.767 20.7258C110.994 20.9267 111.313 21.2296 111.5 21.5C111.749 21.859 111.862 22.0858 112 22.5C112.163 22.99 112.154 23.6612 112.109 24.1847C112.068 24.661 111.655 25 111.177 25Z" stroke="#4CAF40"/>
<path d="M87 104.5V101C87 100.448 87.4477 100 88 100H90.7057C90.8978 100 91.0861 100.055 91.2411 100.168C91.5993 100.431 92.256 100.963 92.5 101.5C92.904 102.389 92.904 103.111 92.5 104C92.256 104.537 91.5993 105.069 91.2411 105.332C91.0861 105.445 90.8978 105.5 90.7057 105.5H88C87.4477 105.5 87 105.052 87 104.5Z" fill="url(#paint2_linear_97_8)"/>
<path d="M104.5 112.5V107C104.5 106.448 104.948 106 105.5 106H106.5C106.5 106 107.666 105.956 108.5 106.5C108.963 106.802 109.5 108 109.5 108L109.927 109.282C109.975 109.425 109.99 109.577 109.966 109.727C109.902 110.125 109.747 110.959 109.5 111.5C109.208 112.14 108.672 112.828 108.5 113C108.351 113.149 106.952 113.416 106.587 113.484C106.529 113.495 106.47 113.5 106.411 113.5H105.5C104.948 113.5 104.5 113.052 104.5 112.5Z" fill="url(#paint3_linear_97_8)"/>
<path d="M87 104.5V101C87 100.448 87.4477 100 88 100H90.7057C90.8978 100 91.0861 100.055 91.2411 100.168C91.5993 100.431 92.256 100.963 92.5 101.5C92.904 102.389 92.904 103.111 92.5 104C92.256 104.537 91.5993 105.069 91.2411 105.332C91.0861 105.445 90.8978 105.5 90.7057 105.5H88C87.4477 105.5 87 105.052 87 104.5Z" stroke="#4CAF40"/>
<path d="M104.5 112.5V107C104.5 106.448 104.948 106 105.5 106H106.5C106.5 106 107.666 105.956 108.5 106.5C108.963 106.802 109.5 108 109.5 108L109.927 109.282C109.975 109.425 109.99 109.577 109.966 109.727C109.902 110.125 109.747 110.959 109.5 111.5C109.208 112.14 108.672 112.828 108.5 113C108.351 113.149 106.952 113.416 106.587 113.484C106.529 113.495 106.47 113.5 106.411 113.5H105.5C104.948 113.5 104.5 113.052 104.5 112.5Z" stroke="#4CAF40"/>
<path d="M20.268 174.9C19.404 174.396 18.456 173.928 17.424 173.496C16.392 173.064 15.384 172.716 14.4 172.452C13.44 172.188 12.6 172.056 11.88 172.056C11.256 172.056 10.752 172.176 10.368 172.416C9.984 172.656 9.792 173.028 9.792 173.532C9.792 174.084 10.02 174.54 10.476 174.9C10.956 175.236 11.592 175.524 12.384 175.764C13.176 176.004 14.04 176.256 14.976 176.52C15.912 176.76 16.848 177.072 17.784 177.456C18.72 177.816 19.572 178.284 20.34 178.86C21.132 179.412 21.768 180.144 22.248 181.056C22.728 181.944 22.968 183.048 22.968 184.368C22.968 186.192 22.488 187.704 21.528 188.904C20.592 190.08 19.332 190.968 17.748 191.568C16.188 192.144 14.46 192.432 12.564 192.432C11.124 192.432 9.672 192.264 8.208 191.928C6.744 191.592 5.34 191.124 3.996 190.524C2.676 189.924 1.488 189.192 0.432 188.328L3.24 182.64C4.104 183.384 5.1 184.056 6.228 184.656C7.38 185.232 8.52 185.7 9.648 186.06C10.8 186.396 11.796 186.564 12.636 186.564C13.452 186.564 14.088 186.42 14.544 186.132C15 185.82 15.228 185.364 15.228 184.764C15.228 184.212 14.988 183.768 14.508 183.432C14.028 183.072 13.392 182.772 12.6 182.532C11.832 182.292 10.968 182.052 10.008 181.812C9.072 181.572 8.136 181.284 7.2 180.948C6.288 180.588 5.436 180.132 4.644 179.58C3.852 179.028 3.216 178.32 2.736 177.456C2.28 176.592 2.052 175.512 2.052 174.216C2.052 172.584 2.484 171.168 3.348 169.968C4.212 168.744 5.424 167.808 6.984 167.16C8.544 166.512 10.38 166.188 12.492 166.188C14.412 166.188 16.308 166.464 18.18 167.016C20.052 167.544 21.672 168.252 23.04 169.14L20.268 174.9ZM37.9898 180.012C37.6538 179.388 37.2218 178.908 36.6938 178.572C36.1658 178.236 35.5538 178.068 34.8578 178.068C34.2098 178.068 33.6338 178.248 33.1298 178.608C32.6498 178.944 32.2778 179.424 32.0138 180.048C31.7498 180.672 31.6178 181.404 31.6178 182.244C31.6178 183.108 31.7498 183.864 32.0138 184.512C32.2778 185.136 32.6498 185.628 33.1298 185.988C33.6338 186.324 34.2098 186.492 34.8578 186.492C35.5538 186.492 36.1658 186.324 36.6938 185.988C37.2218 185.628 37.6418 185.076 37.9538 184.332L43.6058 187.176C42.8618 188.784 41.6858 190.032 40.0778 190.92C38.4938 191.808 36.6218 192.252 34.4618 192.252C32.4218 192.252 30.6338 191.844 29.0978 191.028C27.5858 190.188 26.3978 189.024 25.5338 187.536C24.6938 186.024 24.2738 184.272 24.2738 182.28C24.2738 180.264 24.6938 178.5 25.5338 176.988C26.3978 175.452 27.5978 174.264 29.1338 173.424C30.6698 172.584 32.4698 172.164 34.5338 172.164C36.5738 172.164 38.3738 172.62 39.9338 173.532C41.5178 174.42 42.7298 175.668 43.5698 177.276L37.9898 180.012ZM53.3849 183.792C52.6649 183.792 52.1129 183.948 51.7289 184.26C51.3689 184.548 51.1889 185.004 51.1889 185.628C51.1889 186.228 51.3809 186.708 51.7649 187.068C52.1489 187.404 52.6889 187.572 53.3849 187.572C53.8889 187.572 54.3569 187.488 54.7889 187.32C55.2209 187.152 55.6049 186.924 55.9409 186.636C56.2769 186.324 56.5289 185.964 56.6969 185.556L57.5969 188.148C57.1169 189.468 56.3129 190.5 55.1849 191.244C54.0569 191.964 52.6529 192.324 50.9729 192.324C49.5809 192.324 48.3929 192.072 47.4089 191.568C46.4249 191.04 45.6689 190.32 45.1409 189.408C44.6129 188.472 44.3489 187.392 44.3489 186.168C44.3489 184.272 44.9969 182.82 46.2929 181.812C47.5889 180.78 49.4609 180.252 51.9089 180.228H57.3449V183.792H53.3849ZM56.6969 180.156C56.6969 179.34 56.4089 178.704 55.8329 178.248C55.2569 177.792 54.4169 177.564 53.3129 177.564C52.5209 177.564 51.6089 177.684 50.5769 177.924C49.5449 178.164 48.4889 178.512 47.4089 178.968L45.6089 174.144C46.6889 173.712 47.7569 173.34 48.8129 173.028C49.8689 172.716 50.9129 172.488 51.9449 172.344C53.0009 172.2 54.0329 172.128 55.0409 172.128C57.8009 172.128 59.9489 172.752 61.4849 174C63.0449 175.248 63.8249 177.012 63.8249 179.292V192H56.6969V180.156ZM80.9761 181.668C80.9761 180.684 80.7121 179.916 80.1841 179.364C79.6801 178.788 79.0081 178.5 78.1681 178.5C77.1841 178.524 76.4041 178.884 75.8281 179.58C75.2521 180.276 74.9641 181.188 74.9641 182.316H73.3081C73.3081 180.18 73.6201 178.344 74.2441 176.808C74.8921 175.272 75.8041 174.108 76.9801 173.316C78.1561 172.524 79.5601 172.128 81.1921 172.128C82.5841 172.128 83.8081 172.428 84.8641 173.028C85.9441 173.628 86.7721 174.492 87.3481 175.62C87.9481 176.748 88.2481 178.068 88.2481 179.58V192H80.9761V181.668ZM67.6921 172.416H74.9641V192H67.6921V172.416Z" fill="#FF9D00"/>
<path d="M89.8293 166.764H112.005V172.74H104.661V192H97.1373V172.74H89.8293V166.764ZM127.562 178.68C126.314 178.512 125.222 178.572 124.286 178.86C123.374 179.148 122.666 179.616 122.162 180.264C121.658 180.888 121.406 181.68 121.406 182.64L119.75 182.316C119.75 180.228 120.062 178.416 120.686 176.88C121.334 175.344 122.246 174.168 123.422 173.352C124.598 172.536 125.978 172.128 127.562 172.128V178.68ZM114.134 172.416H121.406V192H114.134V172.416ZM137.233 183.792C136.513 183.792 135.961 183.948 135.577 184.26C135.217 184.548 135.037 185.004 135.037 185.628C135.037 186.228 135.229 186.708 135.613 187.068C135.997 187.404 136.537 187.572 137.233 187.572C137.737 187.572 138.205 187.488 138.637 187.32C139.069 187.152 139.453 186.924 139.789 186.636C140.125 186.324 140.377 185.964 140.545 185.556L141.445 188.148C140.965 189.468 140.161 190.5 139.033 191.244C137.905 191.964 136.501 192.324 134.821 192.324C133.429 192.324 132.241 192.072 131.257 191.568C130.273 191.04 129.517 190.32 128.989 189.408C128.461 188.472 128.197 187.392 128.197 186.168C128.197 184.272 128.845 182.82 130.141 181.812C131.437 180.78 133.309 180.252 135.757 180.228H141.193V183.792H137.233ZM140.545 180.156C140.545 179.34 140.257 178.704 139.681 178.248C139.105 177.792 138.265 177.564 137.161 177.564C136.369 177.564 135.457 177.684 134.425 177.924C133.393 178.164 132.337 178.512 131.257 178.968L129.457 174.144C130.537 173.712 131.605 173.34 132.661 173.028C133.717 172.716 134.761 172.488 135.793 172.344C136.849 172.2 137.881 172.128 138.889 172.128C141.649 172.128 143.797 172.752 145.333 174C146.893 175.248 147.673 177.012 147.673 179.292V192H140.545V180.156ZM165.328 179.04C164.008 178.368 162.796 177.864 161.692 177.528C160.612 177.168 159.688 176.988 158.92 176.988C158.488 176.988 158.128 177.072 157.84 177.24C157.576 177.384 157.444 177.612 157.444 177.924C157.444 178.284 157.684 178.584 158.164 178.824C158.668 179.04 159.304 179.256 160.072 179.472C160.864 179.688 161.692 179.928 162.556 180.192C163.42 180.456 164.236 180.828 165.004 181.308C165.796 181.764 166.432 182.352 166.912 183.072C167.416 183.792 167.668 184.716 167.668 185.844C167.668 187.188 167.296 188.34 166.552 189.3C165.832 190.26 164.824 191.004 163.528 191.532C162.256 192.06 160.768 192.324 159.064 192.324C157.336 192.324 155.68 192.096 154.096 191.64C152.536 191.16 151.12 190.464 149.848 189.552L152.08 184.98C153.304 185.772 154.516 186.372 155.716 186.78C156.94 187.188 158.092 187.392 159.172 187.392C159.508 187.392 159.796 187.356 160.036 187.284C160.276 187.212 160.456 187.116 160.576 186.996C160.72 186.852 160.792 186.684 160.792 186.492C160.792 186.132 160.552 185.832 160.072 185.592C159.592 185.352 158.968 185.136 158.2 184.944C157.456 184.752 156.652 184.524 155.788 184.26C154.924 183.972 154.108 183.6 153.34 183.144C152.596 182.688 151.984 182.1 151.504 181.38C151.024 180.66 150.784 179.748 150.784 178.644C150.784 177.252 151.132 176.076 151.828 175.116C152.548 174.156 153.532 173.412 154.78 172.884C156.028 172.356 157.48 172.092 159.136 172.092C160.624 172.092 162.1 172.296 163.564 172.704C165.028 173.088 166.42 173.676 167.74 174.468L165.328 179.04ZM184.269 181.668C184.269 180.684 184.005 179.916 183.477 179.364C182.973 178.788 182.301 178.5 181.461 178.5C180.477 178.524 179.697 178.884 179.121 179.58C178.545 180.276 178.257 181.188 178.257 182.316H176.601C176.601 180.18 176.913 178.344 177.537 176.808C178.185 175.272 179.097 174.108 180.273 173.316C181.449 172.524 182.853 172.128 184.485 172.128C185.901 172.128 187.137 172.428 188.193 173.028C189.249 173.628 190.065 174.492 190.641 175.62C191.241 176.748 191.541 178.068 191.541 179.58V192H184.269V181.668ZM170.985 165.288H178.257V192H170.985V165.288Z" fill="url(#paint4_linear_97_8)"/>
<defs>
<linearGradient id="paint0_linear_97_8" x1="39" y1="79.5" x2="156" y2="79.5" gradientUnits="userSpaceOnUse">
<stop stop-color="#4CAF40"/>
<stop offset="1" stop-color="#9FE85B"/>
</linearGradient>
<linearGradient id="paint1_linear_97_8" x1="39" y1="79.5" x2="156" y2="79.5" gradientUnits="userSpaceOnUse">
<stop stop-color="#4CAF40"/>
<stop offset="1" stop-color="#9FE85B"/>
</linearGradient>
<linearGradient id="paint2_linear_97_8" x1="110" y1="106.5" x2="70" y2="115.5" gradientUnits="userSpaceOnUse">
<stop stop-color="#9FE85B"/>
<stop offset="1" stop-color="#4CAF40"/>
</linearGradient>
<linearGradient id="paint3_linear_97_8" x1="110" y1="106.5" x2="70" y2="115.5" gradientUnits="userSpaceOnUse">
<stop stop-color="#9FE85B"/>
<stop offset="1" stop-color="#4CAF40"/>
</linearGradient>
<linearGradient id="paint4_linear_97_8" x1="0" y1="179" x2="194" y2="179" gradientUnits="userSpaceOnUse">
<stop offset="0.533654" stop-color="#68BA5E"/>
<stop offset="1" stop-color="#9FE85B"/>
</linearGradient>
</defs>
</svg>
