<svg width="21" height="22" viewBox="0 0 21 22" fill="none" xmlns="http://www.w3.org/2000/svg">
<path d="M13 15V7C13 6.73478 12.8946 6.48043 12.7071 6.29289C12.5196 6.10536 12.2652 6 12 6H8C7.73478 6 7.48043 6.10536 7.29289 6.29289C7.10536 6.48043 7 6.73478 7 7V15" stroke="#A6B5E9" stroke-width="2" stroke-linecap="round" stroke-linejoin="round"/>
<path d="M1 9.42135C0.999926 9.11511 1.06685 8.81254 1.19611 8.53475C1.32537 8.25696 1.51384 8.01064 1.74839 7.81296L9.13728 1.49733C9.51832 1.17619 10.0011 1 10.5 1C10.9989 1 11.4817 1.17619 11.8627 1.49733L19.2516 7.81296C19.4862 8.01064 19.6746 8.25696 19.8039 8.53475C19.9331 8.81254 20.0001 9.11511 20 9.42135V18.8948C20 19.4531 19.7776 19.9886 19.3817 20.3834C18.9858 20.7782 18.4488 21 17.8889 21H3.11111C2.55121 21 2.01424 20.7782 1.61833 20.3834C1.22242 19.9886 1 19.4531 1 18.8948V9.42135Z" stroke="#A6B5E9" stroke-width="2" stroke-linecap="round" stroke-linejoin="round"/>
</svg>
