<svg width="40" height="38" viewBox="0 0 40 38" fill="none" xmlns="http://www.w3.org/2000/svg">
<path d="M22.5 20.0005V12.0005C22.5 11.7353 22.3946 11.4809 22.2071 11.2934C22.0196 11.1058 21.7652 11.0005 21.5 11.0005H17.5C17.2348 11.0005 16.9804 11.1058 16.7929 11.2934C16.6054 11.4809 16.5 11.7353 16.5 12.0005V20.0005" stroke="#5267AD" stroke-width="2" stroke-linecap="round" stroke-linejoin="round"/>
<path d="M10.5 9.42135C10.4999 9.11511 10.5669 8.81254 10.6961 8.53475C10.8254 8.25696 11.0138 8.01064 11.2484 7.81296L18.6373 1.49733C19.0183 1.17619 19.5011 1 20 1C20.4989 1 20.9817 1.17619 21.3627 1.49733L28.7516 7.81296C28.9862 8.01064 29.1746 8.25696 29.3039 8.53475C29.4331 8.81254 29.5001 9.11511 29.5 9.42135V18.8948C29.5 19.4531 29.2776 19.9886 28.8817 20.3834C28.4858 20.7782 27.9488 21 27.3889 21H12.6111C12.0512 21 11.5142 20.7782 11.1183 20.3834C10.7224 19.9886 10.5 19.4531 10.5 18.8948V9.42135Z" stroke="#5267AD" stroke-width="2" stroke-linecap="round" stroke-linejoin="round"/>
<path d="M4.185 30.778C4.539 30.844 4.83 31.021 5.058 31.309C5.286 31.597 5.4 31.927 5.4 32.299C5.4 32.635 5.316 32.932 5.148 33.19C4.986 33.442 4.749 33.64 4.437 33.784C4.125 33.928 3.756 34 3.33 34H0.621V27.718H3.213C3.639 27.718 4.005 27.787 4.311 27.925C4.623 28.063 4.857 28.255 5.013 28.501C5.175 28.747 5.256 29.026 5.256 29.338C5.256 29.704 5.157 30.01 4.959 30.256C4.767 30.502 4.509 30.676 4.185 30.778ZM1.881 30.31H3.033C3.333 30.31 3.564 30.244 3.726 30.112C3.888 29.974 3.969 29.779 3.969 29.527C3.969 29.275 3.888 29.08 3.726 28.942C3.564 28.804 3.333 28.735 3.033 28.735H1.881V30.31ZM3.15 32.974C3.456 32.974 3.693 32.902 3.861 32.758C4.035 32.614 4.122 32.41 4.122 32.146C4.122 31.876 4.032 31.666 3.852 31.516C3.672 31.36 3.429 31.282 3.123 31.282H1.881V32.974H3.15ZM11.0392 31.399C11.0392 31.579 11.0272 31.741 11.0032 31.885H7.3582C7.3882 32.245 7.5142 32.527 7.7362 32.731C7.9582 32.935 8.2312 33.037 8.5552 33.037C9.0232 33.037 9.3562 32.836 9.5542 32.434H10.9132C10.7692 32.914 10.4932 33.31 10.0852 33.622C9.6772 33.928 9.1762 34.081 8.5822 34.081C8.1022 34.081 7.6702 33.976 7.2862 33.766C6.9082 33.55 6.6112 33.247 6.3952 32.857C6.1852 32.467 6.0802 32.017 6.0802 31.507C6.0802 30.991 6.1852 30.538 6.3952 30.148C6.6052 29.758 6.8992 29.458 7.2772 29.248C7.6552 29.038 8.0902 28.933 8.5822 28.933C9.0562 28.933 9.4792 29.035 9.8512 29.239C10.2292 29.443 10.5202 29.734 10.7242 30.112C10.9342 30.484 11.0392 30.913 11.0392 31.399ZM9.7342 31.039C9.7282 30.715 9.6112 30.457 9.3832 30.265C9.1552 30.067 8.8762 29.968 8.5462 29.968C8.2342 29.968 7.9702 30.064 7.7542 30.256C7.5442 30.442 7.4152 30.703 7.3672 31.039H9.7342ZM13.2189 29.788C13.3809 29.524 13.5909 29.317 13.8489 29.167C14.1129 29.017 14.4129 28.942 14.7489 28.942V30.265H14.4159C14.0199 30.265 13.7199 30.358 13.5159 30.544C13.3179 30.73 13.2189 31.054 13.2189 31.516V34H11.9589V29.014H13.2189V29.788ZM15.2736 31.489C15.2736 30.985 15.3726 30.538 15.5706 30.148C15.7746 29.758 16.0476 29.458 16.3896 29.248C16.7376 29.038 17.1246 28.933 17.5506 28.933C17.9226 28.933 18.2466 29.008 18.5226 29.158C18.8046 29.308 19.0296 29.497 19.1976 29.725V29.014H20.4666V34H19.1976V33.271C19.0356 33.505 18.8106 33.7 18.5226 33.856C18.2406 34.006 17.9136 34.081 17.5416 34.081C17.1216 34.081 16.7376 33.973 16.3896 33.757C16.0476 33.541 15.7746 33.238 15.5706 32.848C15.3726 32.452 15.2736 31.999 15.2736 31.489ZM19.1976 31.507C19.1976 31.201 19.1376 30.94 19.0176 30.724C18.8976 30.502 18.7356 30.334 18.5316 30.22C18.3276 30.1 18.1086 30.04 17.8746 30.04C17.6406 30.04 17.4246 30.097 17.2266 30.211C17.0286 30.325 16.8666 30.493 16.7406 30.715C16.6206 30.931 16.5606 31.189 16.5606 31.489C16.5606 31.789 16.6206 32.053 16.7406 32.281C16.8666 32.503 17.0286 32.674 17.2266 32.794C17.4306 32.914 17.6466 32.974 17.8746 32.974C18.1086 32.974 18.3276 32.917 18.5316 32.803C18.7356 32.683 18.8976 32.515 19.0176 32.299C19.1376 32.077 19.1976 31.813 19.1976 31.507ZM24.4602 28.942C25.0542 28.942 25.5342 29.131 25.9002 29.509C26.2662 29.881 26.4492 30.403 26.4492 31.075V34H25.1892V31.246C25.1892 30.85 25.0902 30.547 24.8922 30.337C24.6942 30.121 24.4242 30.013 24.0822 30.013C23.7342 30.013 23.4582 30.121 23.2542 30.337C23.0562 30.547 22.9572 30.85 22.9572 31.246V34H21.6972V29.014H22.9572V29.635C23.1252 29.419 23.3382 29.251 23.5962 29.131C23.8602 29.005 24.1482 28.942 24.4602 28.942ZM27.3234 31.489C27.3234 30.985 27.4224 30.538 27.6204 30.148C27.8244 29.758 28.1004 29.458 28.4484 29.248C28.7964 29.038 29.1834 28.933 29.6094 28.933C29.9334 28.933 30.2424 29.005 30.5364 29.149C30.8304 29.287 31.0644 29.473 31.2384 29.707V27.34H32.5164V34H31.2384V33.262C31.0824 33.508 30.8634 33.706 30.5814 33.856C30.2994 34.006 29.9724 34.081 29.6004 34.081C29.1804 34.081 28.7964 33.973 28.4484 33.757C28.1004 33.541 27.8244 33.238 27.6204 32.848C27.4224 32.452 27.3234 31.999 27.3234 31.489ZM31.2474 31.507C31.2474 31.201 31.1874 30.94 31.0674 30.724C30.9474 30.502 30.7854 30.334 30.5814 30.22C30.3774 30.1 30.1584 30.04 29.9244 30.04C29.6904 30.04 29.4744 30.097 29.2764 30.211C29.0784 30.325 28.9164 30.493 28.7904 30.715C28.6704 30.931 28.6104 31.189 28.6104 31.489C28.6104 31.789 28.6704 32.053 28.7904 32.281C28.9164 32.503 29.0784 32.674 29.2764 32.794C29.4804 32.914 29.6964 32.974 29.9244 32.974C30.1584 32.974 30.3774 32.917 30.5814 32.803C30.7854 32.683 30.9474 32.515 31.0674 32.299C31.1874 32.077 31.2474 31.813 31.2474 31.507ZM33.423 31.489C33.423 30.985 33.522 30.538 33.72 30.148C33.924 29.758 34.197 29.458 34.539 29.248C34.887 29.038 35.274 28.933 35.7 28.933C36.072 28.933 36.396 29.008 36.672 29.158C36.954 29.308 37.179 29.497 37.347 29.725V29.014H38.616V34H37.347V33.271C37.185 33.505 36.96 33.7 36.672 33.856C36.39 34.006 36.063 34.081 35.691 34.081C35.271 34.081 34.887 33.973 34.539 33.757C34.197 33.541 33.924 33.238 33.72 32.848C33.522 32.452 33.423 31.999 33.423 31.489ZM37.347 31.507C37.347 31.201 37.287 30.94 37.167 30.724C37.047 30.502 36.885 30.334 36.681 30.22C36.477 30.1 36.258 30.04 36.024 30.04C35.79 30.04 35.574 30.097 35.376 30.211C35.178 30.325 35.016 30.493 34.89 30.715C34.77 30.931 34.71 31.189 34.71 31.489C34.71 31.789 34.77 32.053 34.89 32.281C35.016 32.503 35.178 32.674 35.376 32.794C35.58 32.914 35.796 32.974 36.024 32.974C36.258 32.974 36.477 32.917 36.681 32.803C36.885 32.683 37.047 32.515 37.167 32.299C37.287 32.077 37.347 31.813 37.347 31.507Z" fill="#5267AD"/>
</svg>
