<svg width="40" height="39" viewBox="0 0 40 39" fill="none" xmlns="http://www.w3.org/2000/svg">
<path d="M10 16.6757H30M14.6983 12.0541V10M25.2697 12.0541V10M26 12.0541H14C12.9391 12.0541 11.9217 12.4328 11.1716 13.1069C10.4214 13.781 10 14.6953 10 15.6486V25.4054C10 26.3588 10.4214 27.2731 11.1716 27.9472C11.9217 28.6213 12.9391 29 14 29H26C27.0609 29 28.0783 28.6213 28.8284 27.9472C29.5786 27.2731 30 26.3588 30 25.4054V15.6486C30 14.6953 29.5786 13.781 28.8284 13.1069C28.0783 12.4328 27.0609 12.0541 26 12.0541Z" stroke="#716C6C" stroke-opacity="0.65" stroke-width="1.5" stroke-linecap="round" stroke-linejoin="round"/>
</svg>
