<svg width="155" height="160" viewBox="0 0 155 160" fill="none" xmlns="http://www.w3.org/2000/svg">
<path d="M144.959 13.0283V43.3113C144.959 44.1144 144.65 44.8847 144.1 45.4526C143.55 46.0205 142.803 46.3396 142.025 46.3396C141.247 46.3396 140.501 46.0205 139.951 45.4526C139.4 44.8847 139.091 44.1144 139.091 43.3113V16.0566H112.686C111.908 16.0566 111.162 15.7375 110.612 15.1696C110.061 14.6017 109.752 13.8315 109.752 13.0283C109.752 12.2251 110.061 11.4549 110.612 10.887C111.162 10.3191 111.908 10 112.686 10H142.025C142.803 10 143.55 10.3191 144.1 10.887C144.65 11.4549 144.959 12.2251 144.959 13.0283ZM42.2728 143.245H15.8678V115.99C15.8678 115.187 15.5587 114.417 15.0085 113.849C14.4583 113.281 13.712 112.962 12.9339 112.962C12.1558 112.962 11.4095 113.281 10.8593 113.849C10.3091 114.417 10 115.187 10 115.99V146.273C10 147.077 10.3091 147.847 10.8593 148.415C11.4095 148.983 12.1558 149.302 12.9339 149.302H42.2728C43.0509 149.302 43.7972 148.983 44.3474 148.415C44.8976 147.847 45.2067 147.077 45.2067 146.273C45.2067 145.47 44.8976 144.7 44.3474 144.132C43.7972 143.564 43.0509 143.245 42.2728 143.245ZM142.025 112.962C141.247 112.962 140.501 113.281 139.951 113.849C139.4 114.417 139.091 115.187 139.091 115.99V143.245H112.686C111.908 143.245 111.162 143.564 110.612 144.132C110.061 144.7 109.752 145.47 109.752 146.273C109.752 147.077 110.061 147.847 110.612 148.415C111.162 148.983 111.908 149.302 112.686 149.302H142.025C142.803 149.302 143.55 148.983 144.1 148.415C144.65 147.847 144.959 147.077 144.959 146.273V115.99C144.959 115.187 144.65 114.417 144.1 113.849C143.55 113.281 142.803 112.962 142.025 112.962ZM12.9339 46.3396C13.712 46.3396 14.4583 46.0205 15.0085 45.4526C15.5587 44.8847 15.8678 44.1144 15.8678 43.3113V16.0566H42.2728C43.0509 16.0566 43.7972 15.7375 44.3474 15.1696C44.8976 14.6017 45.2067 13.8315 45.2067 13.0283C45.2067 12.2251 44.8976 11.4549 44.3474 10.887C43.7972 10.3191 43.0509 10 42.2728 10H12.9339C12.1558 10 11.4095 10.3191 10.8593 10.887C10.3091 11.4549 10 12.2251 10 13.0283V43.3113C10 44.1144 10.3091 44.8847 10.8593 45.4526C11.4095 46.0205 12.1558 46.3396 12.9339 46.3396ZM42.2728 40.283H112.686C113.464 40.283 114.211 40.602 114.761 41.1699C115.311 41.7379 115.62 42.5081 115.62 43.3113V115.99C115.62 116.794 115.311 117.564 114.761 118.132C114.211 118.7 113.464 119.019 112.686 119.019H42.2728C41.4947 119.019 40.7484 118.7 40.1982 118.132C39.648 117.564 39.3389 116.794 39.3389 115.99V43.3113C39.3389 42.5081 39.648 41.7379 40.1982 41.1699C40.7484 40.602 41.4947 40.283 42.2728 40.283ZM45.2067 112.962H109.752V46.3396H45.2067V112.962Z" fill="#FF9D00"/>
</svg>
