<svg width="30" height="30" viewBox="0 0 30 30" fill="none" xmlns="http://www.w3.org/2000/svg">
<path fill-rule="evenodd" clip-rule="evenodd" d="M24.255 15.2216C24.255 14.5302 24.193 13.8654 24.0777 13.2273H14.895V16.9987H20.1423C19.9163 18.2175 19.2293 19.2501 18.1967 19.9415V22.3878H21.3477C23.1914 20.6904 24.255 18.1909 24.255 15.2216Z" fill="#4285F4"/>
<path fill-rule="evenodd" clip-rule="evenodd" d="M14.895 24.75C17.5275 24.75 19.7346 23.8769 21.3477 22.3878L18.1967 19.9415C17.3237 20.5265 16.2068 20.8721 14.895 20.8721C12.3556 20.8721 10.2062 19.157 9.43945 16.8525H6.18207V19.3786C7.78639 22.5651 11.0837 24.75 14.895 24.75Z" fill="#34A853"/>
<path fill-rule="evenodd" clip-rule="evenodd" d="M9.43944 16.8525C9.24444 16.2675 9.13364 15.6426 9.13364 15C9.13364 14.3574 9.24444 13.7325 9.43944 13.1475V10.6214H6.18205C5.52171 11.9376 5.145 13.4267 5.145 15C5.145 16.5733 5.52171 18.0624 6.18205 19.3786L9.43944 16.8525Z" fill="#FBBC05"/>
<path fill-rule="evenodd" clip-rule="evenodd" d="M14.895 9.12784C16.3265 9.12784 17.6117 9.61977 18.6222 10.5859L21.4187 7.78943C19.7301 6.21614 17.5231 5.25 14.895 5.25C11.0837 5.25 7.78639 7.43489 6.18207 10.6214L9.43945 13.1475C10.2062 10.843 12.3556 9.12784 14.895 9.12784Z" fill="#EA4335"/>
</svg>
