<svg width="112" height="112" viewBox="0 0 112 112" fill="none" xmlns="http://www.w3.org/2000/svg">
<path opacity="0.5" d="M55.8334 0C44.7906 0 33.9958 3.27457 24.814 9.40961C15.6323 15.5447 8.47598 24.2646 4.25008 34.4668C0.0241919 44.669 -1.08149 55.8953 1.07285 66.7259C3.22719 77.5565 8.5448 87.505 16.3532 95.3135C24.1617 103.122 34.1102 108.44 44.9408 110.594C55.7714 112.748 66.9976 111.643 77.1998 107.417C87.4021 103.191 96.122 96.0344 102.257 86.8527C108.392 77.6709 111.667 66.8761 111.667 55.8333C111.667 48.5012 110.223 41.2409 107.417 34.4668C104.611 27.6928 100.498 21.5378 95.3135 16.3532C90.1289 11.1686 83.9739 7.05595 77.1998 4.25006C70.4258 1.44417 63.1655 0 55.8334 0ZM55.8334 100.5C46.9991 100.5 38.3633 97.8803 31.0179 92.9723C23.6725 88.0643 17.9475 81.0883 14.5667 72.9265C11.186 64.7648 10.3015 55.7838 12.025 47.1193C13.7484 38.4548 18.0025 30.496 24.2493 24.2492C30.496 18.0025 38.4548 13.7484 47.1193 12.0249C55.7838 10.3015 64.7648 11.186 72.9265 14.5667C81.0883 17.9474 88.0643 23.6725 92.9723 31.0179C97.8804 38.3633 100.5 46.9991 100.5 55.8333C100.5 67.6797 95.7941 79.0408 87.4175 87.4174C79.0408 95.7941 67.6797 100.5 55.8334 100.5Z" fill="#E6E6E6"/>
<path d="M100.667 55.8333H111.833C111.833 48.5012 110.389 41.2408 107.583 34.4668C104.777 27.6928 100.665 21.5378 95.4801 16.3532C90.2955 11.1686 84.1405 7.05595 77.3665 4.25006C70.5925 1.44417 63.3321 0 56 0V11.1667C67.8463 11.1667 79.2075 15.8726 87.5841 24.2492C95.9607 32.6259 100.667 43.987 100.667 55.8333Z" fill="#FF9D00"/>
</svg>
