<svg width="151" height="151" viewBox="0 0 151 151" fill="none" xmlns="http://www.w3.org/2000/svg">
<rect width="151" height="151" rx="40" fill="#4CAF40"/>
<path fill-rule="evenodd" clip-rule="evenodd" d="M106.185 59.6487L106.183 59.6672L102.149 114.269L102.139 114.397L102.069 114.504V114.505L102.068 114.507C102.067 114.509 102.065 114.511 102.063 114.514C102.059 114.52 102.053 114.529 102.045 114.54C102.031 114.563 102.009 114.596 101.983 114.636C101.929 114.717 101.853 114.831 101.766 114.959C101.594 115.213 101.371 115.534 101.18 115.78C100.584 116.547 100.211 117.112 99.3501 117.739C98.974 118.012 98.4685 118.262 98.0796 118.437C97.881 118.526 97.7041 118.6 97.5767 118.652C97.5129 118.677 97.4604 118.697 97.4243 118.711C97.4064 118.718 97.3921 118.724 97.3823 118.728L97.3677 118.733L97.3667 118.734L97.2817 118.765H54.2856L54.1968 118.73H54.1958L54.1948 118.729C54.1941 118.728 54.1931 118.728 54.1919 118.728C54.1893 118.727 54.1858 118.725 54.1812 118.723C54.1718 118.719 54.1581 118.714 54.1411 118.707C54.1071 118.693 54.0585 118.673 53.9985 118.647C53.8789 118.595 53.7128 118.522 53.5269 118.432C53.164 118.257 52.6894 118.004 52.3403 117.725C51.79 117.285 51.4939 116.967 51.0874 116.377C50.8312 116.005 50.5981 115.499 50.436 115.111C50.3531 114.911 50.2854 114.733 50.2378 114.605C50.214 114.541 50.195 114.489 50.1821 114.452C50.1758 114.435 50.1709 114.42 50.1675 114.41C50.1658 114.406 50.1636 114.401 50.1626 114.399C50.1622 114.398 50.1619 114.396 50.1616 114.396V114.394L50.1411 114.336L50.1362 114.275L45.5249 59.9837L45.5229 59.9622V58.8206H106.185V59.6487ZM81.1177 92.2639C80.8305 92.2726 80.5623 92.3974 80.3706 92.6038L80.0972 92.8977C79.9586 92.7071 79.7356 92.5823 79.4819 92.5823H78.7046C77.8896 92.5825 77.2231 93.2332 77.2046 94.0481L76.9624 104.768C76.9436 105.609 77.6201 106.301 78.4614 106.301H79.0327C79.8611 106.301 80.5327 105.629 80.5327 104.801V103.098C80.7199 103.16 80.9359 103.199 81.1851 103.199C81.7762 103.199 82.1583 103.169 82.4829 103.108C82.7993 103.048 83.0579 102.956 83.3491 102.867C84.0715 102.647 84.7676 102.229 85.3374 101.441C85.6913 100.951 85.7734 100.571 85.9702 100.1C86.1148 99.754 86.1933 99.3107 86.2368 98.9866C86.2594 98.8184 86.2745 98.6692 86.2837 98.5618C86.2883 98.508 86.2914 98.4635 86.2935 98.4329C86.2943 98.4202 86.2939 98.4097 86.2944 98.4016C86.2947 98.3994 86.296 98.3967 86.2964 98.3938C86.2976 98.3828 86.2993 98.367 86.3013 98.3469C86.3053 98.3065 86.3107 98.248 86.3169 98.176C86.3292 98.0322 86.3442 97.8316 86.354 97.6038C86.3732 97.1585 86.375 96.5682 86.2886 96.094C86.1204 95.1719 85.9698 94.492 85.3198 93.6965C84.9092 93.1941 84.5854 92.9167 83.9976 92.6321C83.377 92.3317 82.932 92.3249 82.3853 92.2737C82.0374 92.2412 81.4316 92.2545 81.1177 92.2639ZM56.6313 64.3508C55.7483 64.351 55.0555 65.1102 55.1372 65.9895L58.6987 104.32C58.7704 105.091 59.4174 105.681 60.1919 105.681H62.8413C63.699 105.681 64.3822 104.962 64.3394 104.106L62.4214 65.7756C62.3815 64.9773 61.7226 64.3508 60.9233 64.3508H56.6313ZM91.6411 64.3508C90.8462 64.3511 90.1894 64.9712 90.144 65.7649L87.9526 104.095C87.9035 104.955 88.5879 105.681 89.4497 105.681H92.104C92.8704 105.681 93.5133 105.103 93.5952 104.341L97.7046 66.01C97.7994 65.1236 97.1048 64.351 96.2134 64.3508H91.6411ZM70.5093 88.8508C69.5803 88.8608 68.6979 88.9573 68.0903 89.0422C67.3564 89.1451 66.8511 89.7789 66.8511 90.4905V101.078C66.8511 101.907 67.5228 102.578 68.3511 102.578H68.9448C69.7732 102.578 70.4448 101.907 70.4448 101.078V98.2952C70.4448 98.0909 70.6107 97.9252 70.8149 97.9251C70.9623 97.9251 71.0961 98.0125 71.1548 98.1477L72.6841 101.675C72.9218 102.223 73.4624 102.578 74.0601 102.578H74.9253C76.1442 102.578 76.8526 101.204 76.1606 100.208C75.6216 99.4325 74.9924 98.5148 74.522 97.7932C74.35 97.5294 74.2039 97.2951 74.0903 97.1067C74.1218 97.0907 74.1536 97.0761 74.1831 97.0598C74.4222 96.9277 74.6676 96.7511 74.8853 96.5608C75.3705 96.1364 75.665 95.7757 75.894 95.1047C76.1343 94.4009 76.2892 93.8627 76.2065 93.0325C76.1497 92.4619 76.1543 91.989 75.8823 91.3381C75.6314 90.7377 75.4003 90.3473 74.8784 89.9075C74.3042 89.4236 73.7536 89.3546 73.2739 89.1946C72.4372 88.9154 71.4304 88.841 70.5093 88.8508ZM81.3169 94.7551C81.4025 94.7584 81.5222 94.7662 81.6587 94.7874C81.9236 94.8285 82.2967 94.9239 82.6255 95.1545C82.7663 95.2534 82.8764 95.3946 82.9517 95.5032C83.0337 95.6215 83.108 95.7514 83.1685 95.8655C83.2295 95.9808 83.281 96.0887 83.3169 96.1672C83.3349 96.2067 83.3498 96.2397 83.3599 96.2629C83.3648 96.2744 83.3688 96.2837 83.3716 96.2903C83.3729 96.2934 83.3737 96.2962 83.3745 96.2981L83.3755 96.301H83.3765V96.302L83.3853 96.3235L83.3921 96.346L83.6177 97.0725C83.6797 97.2729 83.7016 97.4922 83.6665 97.7141C83.6247 97.9778 83.5319 98.4913 83.3755 98.8606C83.1835 99.3134 82.8418 99.7891 82.7046 99.9368C82.6198 100.028 82.5159 100.075 82.4858 100.088C82.4355 100.111 82.3807 100.131 82.3315 100.147C82.2316 100.18 82.1117 100.212 81.9966 100.24C81.7637 100.299 81.5106 100.351 81.3784 100.378C81.2818 100.398 81.1843 100.407 81.0894 100.407H81.0327C80.2045 100.406 79.5327 99.7348 79.5327 98.9065V96.2532C79.5328 95.425 80.2046 94.7534 81.0327 94.7532H81.2134C81.239 94.7531 81.2744 94.7535 81.3169 94.7551ZM71.938 91.0305C72.2381 91.0306 72.5589 91.1201 72.8198 91.3401C73.0333 91.5202 73.4064 91.8661 73.5757 92.2669C73.7115 92.5885 73.7895 92.9049 73.7896 93.2366C73.7896 93.5684 73.7115 93.8856 73.5757 94.2073C73.4063 94.6078 73.0332 94.953 72.8198 95.1331C72.5589 95.3531 72.2381 95.4426 71.938 95.4426H70.9448C70.1166 95.4424 69.4448 94.7709 69.4448 93.9426V92.5305C69.4448 91.7023 70.1166 91.0308 70.9448 91.0305H71.938ZM73.3169 64.3508C72.4508 64.3512 71.765 65.0831 71.8208 65.9475L73.1323 86.2835C73.1833 87.0726 73.8386 87.6876 74.6294 87.6878H77.3657C78.1566 87.6878 78.8118 87.0727 78.8628 86.2835L80.1743 65.9475C80.2301 65.083 79.5445 64.3511 78.6782 64.3508H73.3169ZM71.2007 39.2698C72.7104 39.2405 74.5832 39.2603 76.4048 39.2991C78.2275 39.3379 80.0047 39.3961 81.3257 39.4446C81.9863 39.4689 82.5338 39.4913 82.9155 39.5071C83.1062 39.515 83.256 39.5212 83.3579 39.5256C83.4087 39.5278 83.4478 39.5294 83.4741 39.5305C83.4872 39.5311 83.4977 39.5312 83.5044 39.5315C83.5073 39.5316 83.5096 39.5324 83.5112 39.5325H83.5142L83.5376 39.5335L83.561 39.5364H83.562L83.563 39.5374H83.5649C83.5668 39.5376 83.5696 39.5379 83.5728 39.5383C83.5793 39.5393 83.5887 39.5405 83.6001 39.5422C83.6233 39.5458 83.6564 39.5519 83.6968 39.5588C83.7776 39.5727 83.8902 39.5925 84.0171 39.6204C84.2598 39.6736 84.5969 39.7622 84.8647 39.8938C85.0605 39.9899 85.3579 40.1495 85.5991 40.2815C85.7212 40.3483 85.8318 40.41 85.9116 40.4544C85.9514 40.4765 85.9839 40.4946 86.0063 40.5071C86.0174 40.5133 86.0268 40.5174 86.0327 40.5208C86.0356 40.5224 86.038 40.5238 86.0396 40.5247L86.0415 40.5256V40.5266L86.1108 40.5647L86.1636 40.6223L86.7407 41.2424L86.7671 41.2717L86.7896 41.3049L86.7915 41.3069C86.7923 41.3081 86.793 41.3106 86.7944 41.3128C86.7974 41.3171 86.8019 41.3234 86.8071 41.3313C86.818 41.3478 86.8336 41.3721 86.853 41.4016C86.8919 41.4608 86.9459 41.544 87.0063 41.6389C87.1258 41.8263 87.2778 42.0703 87.3892 42.2737C87.5272 42.5259 87.6784 42.8517 87.7915 43.1057C87.8488 43.2345 87.8983 43.3483 87.9331 43.4299C87.9504 43.4705 87.9636 43.5038 87.9731 43.5266C87.9778 43.5378 87.9823 43.5469 87.9849 43.553C87.9861 43.556 87.9871 43.5592 87.9878 43.5608L87.9888 43.5628L88.0269 43.6555V45.1165H105.772L105.854 45.1458L106.718 45.4553L106.795 45.4837L106.86 45.5344H106.861L106.862 45.5364C106.863 45.5375 106.866 45.539 106.869 45.5413C106.874 45.5458 106.883 45.5523 106.894 45.5608C106.916 45.5779 106.946 45.6034 106.985 45.634C107.062 45.6955 107.17 45.7804 107.29 45.8762C107.528 46.0674 107.821 46.3038 108.024 46.4739C108.177 46.6024 108.285 46.7184 108.38 46.8294C108.48 46.9449 108.541 47.0251 108.645 47.137C108.821 47.3268 109.031 47.5101 109.25 47.7903C109.525 48.1431 109.692 48.381 109.889 48.8254C109.982 49.0334 110.061 49.296 110.115 49.4895C110.143 49.5895 110.166 49.6779 110.182 49.7415C110.19 49.7733 110.196 49.7996 110.201 49.8176C110.203 49.8265 110.204 49.8342 110.206 49.8391C110.206 49.8413 110.206 49.8437 110.207 49.845L110.208 49.846V49.8469L110.22 49.9026V55.7307L109.722 55.7337L42.2778 56.0432L41.7759 56.0462V49.552L41.812 49.4622L41.813 49.4612V49.4592L41.8276 49.4251C41.8371 49.402 41.8505 49.3685 41.8677 49.3274C41.9021 49.245 41.9511 49.13 42.0083 49.0003C42.1208 48.7452 42.2732 48.4156 42.4175 48.1614C42.7152 47.637 42.9122 47.2998 43.3511 46.8274C43.785 46.3603 44.0876 46.1288 44.6089 45.8098C44.9119 45.6244 45.3064 45.456 45.606 45.3391C45.7596 45.2792 45.8966 45.23 45.9946 45.1956C46.0435 45.1784 46.0831 45.1649 46.1108 45.1555L46.1548 45.1409H46.1558L46.2319 45.1165H64.4067C64.4001 45.0269 64.3904 44.9298 64.3853 44.8274C64.3617 44.3593 64.3582 43.7345 64.4653 43.2337C64.5221 42.9686 64.6274 42.6574 64.7114 42.427C64.7545 42.3091 64.7946 42.2057 64.8237 42.1321C64.8382 42.0956 64.8495 42.0658 64.8579 42.0452C64.8621 42.0349 64.8663 42.0264 64.8687 42.0208C64.8697 42.0182 64.87 42.0155 64.8706 42.0139L64.8716 42.012L64.8999 41.9446L64.9458 41.8889V41.8879L64.9478 41.886C64.9488 41.8847 64.9499 41.8823 64.9517 41.8801C64.9557 41.8752 64.9618 41.8677 64.9692 41.8587C64.9843 41.8404 65.0067 41.8147 65.0337 41.7825C65.0877 41.7181 65.1634 41.6284 65.2515 41.5286C65.4236 41.3334 65.6583 41.0791 65.8706 40.8948C66.0512 40.738 66.2876 40.5704 66.4673 40.4475C66.5316 40.4035 66.5912 40.3642 66.6411 40.3313C66.646 40.3244 66.6496 40.318 66.6528 40.3137C66.7055 40.2457 66.7671 40.197 66.8071 40.1682C66.9664 40.054 67.3056 39.8793 68.0181 39.5725C68.1665 39.5086 68.3551 39.4668 68.5444 39.4358C68.7429 39.4033 68.9804 39.3775 69.2456 39.3557C69.7767 39.3121 70.4468 39.2844 71.2007 39.2698ZM69.7378 41.7034C69.3865 41.7036 69.0177 41.8269 68.7427 42.1067C68.6266 42.2248 68.4785 42.3869 68.3716 42.553C68.1957 42.8266 68.1281 43.0215 68.0356 43.2688C67.9703 43.4436 67.9192 43.6386 67.8794 43.8235C67.6798 44.7518 68.4447 45.4949 69.2935 45.4954H83.522C84.2248 45.4953 84.9216 44.9796 84.9341 44.1731C84.9382 43.9058 84.9216 43.5807 84.8335 43.2962C84.7408 42.9968 84.6569 42.8143 84.4888 42.553C84.3818 42.3867 84.2329 42.2249 84.1167 42.1067C83.8415 41.8268 83.473 41.7034 83.1216 41.7034H69.7378Z" fill="white"/>
<path d="M124.022 36.6085V44.8813V47.9453C124.022 48.44 123.822 49.434 123.433 49.7837C123.044 50.1335 122.218 50.7029 121.667 50.7029C121.116 50.7029 119.997 50.4399 119.607 50.0901C119.218 49.7404 119.019 48.44 119.019 47.9453V45.8005V37.5277H102.539C101.988 37.5277 100.479 37.2213 100.184 36.6085C99.7948 36.2587 99.5957 34.9583 99.5957 34.4637C99.5957 33.9691 100.219 32.3189 101.361 32.3189C102.833 32.3189 104.048 32.3189 104.599 32.3189H120.861C121.412 32.3189 123.283 33.2381 123.433 33.8509C123.583 34.4637 124.022 36.1139 124.022 36.6085ZM43.7197 113.27H32.3072V96.7245C32.3072 96.2299 32.1045 95.7313 31.5148 95.1185C30.9252 94.5057 29.9484 94.3763 29.6536 94.3763C29.3587 94.3763 28.3133 94.5057 27.6638 95.1185C27.0144 95.7313 27 96.2299 27 96.7245V115.109C27 115.603 27.2005 117.498 27.4953 117.805C27.7902 118.417 29.0045 118.724 29.5553 118.724H36.6182H43.7197C44.2705 118.724 47.6844 119.043 49.5669 118.724C48.8976 118.039 48.2287 117.253 47.6391 116.567C47.242 116.104 46.7545 115.415 46.4597 113.27C46.2778 113.27 44.2705 113.27 43.7197 113.27ZM121.667 94.5182C121.116 94.5182 119.997 94.7813 119.607 95.131C119.218 95.4808 118.724 96.1684 118.724 96.663V113.209H107.076C104.304 113.209 104.304 113.209 104.304 113.209C104.304 113.209 104.599 114.434 104.01 115.66C103.421 116.885 102.926 117.663 101.455 118.582C102.379 118.582 107.084 118.582 107.635 118.582H122.643C123.194 118.582 123.725 118.012 124.115 117.663C124.504 117.313 124.409 115.4 124.409 114.905V96.663C124.409 96.1684 124.117 95.4808 123.727 95.131C123.338 94.7813 122.218 94.5182 121.667 94.5182ZM29.6486 55.4634C30.1994 55.4634 31.12 55.157 31.7086 54.8506C32.2972 54.2378 32.602 53.7452 32.602 53.3583V37.5277H48.3897C48.9405 37.5277 50.0603 37.2647 50.4497 36.9149C51.0394 36.6085 51.1772 35.2409 51.1772 34.3217C51.1772 33.8271 50.8823 33.0961 50.2926 32.4833C49.703 32 49.0744 32 48.5236 32H30.833C30.2822 32 28.7691 32 28.1794 32.6128C27.3527 33.4719 27 34.5694 27 35.064V53.3186C27 54.2378 27.8829 54.8506 27.8829 54.8506C27.8829 54.8506 29.0978 55.4634 29.6486 55.4634Z" fill="white"/>
</svg>
