<svg width="139" height="41" viewBox="0 0 139 41" fill="none" xmlns="http://www.w3.org/2000/svg">
<path fill-rule="evenodd" clip-rule="evenodd" d="M40.8843 12.7446L40.8834 12.7651L38.8121 37.9077L38.8004 38.0464L38.7193 38.1596H38.7183V38.1606C38.7177 38.1615 38.7164 38.1632 38.7154 38.1645C38.7133 38.1675 38.7104 38.1721 38.7066 38.1772C38.6988 38.1879 38.6873 38.2033 38.6734 38.2221C38.6453 38.2603 38.6055 38.3135 38.5601 38.3735C38.4711 38.4912 38.3514 38.6451 38.2476 38.7651C37.9497 39.1095 37.733 39.4016 37.2554 39.7134C37.0418 39.8528 36.7647 39.9748 36.563 40.0561C36.458 40.0985 36.3648 40.1343 36.2974 40.1587C36.2637 40.1709 36.2357 40.1803 36.2164 40.187C36.2069 40.1903 36.1993 40.193 36.1939 40.1948C36.1912 40.1957 36.1887 40.1962 36.1871 40.1968L36.1851 40.1977H36.1841L36.107 40.2241H13.9673L13.8853 40.1948L13.8824 40.1938C13.8809 40.1933 13.8789 40.1918 13.8765 40.1909C13.8714 40.189 13.8632 40.1864 13.8541 40.1831C13.8358 40.1763 13.8094 40.1669 13.7779 40.1548C13.7145 40.1303 13.6265 40.0949 13.5279 40.0522C13.3396 39.9706 13.0759 39.8458 12.8746 39.7016C12.5728 39.4854 12.4021 39.3204 12.1773 39.0278C12.0268 38.8318 11.8969 38.5757 11.8121 38.393C11.7676 38.2974 11.7312 38.2116 11.7056 38.1499C11.693 38.1193 11.6824 38.0935 11.6754 38.0757C11.6719 38.067 11.6686 38.0593 11.6666 38.0542C11.6657 38.0521 11.6651 38.0497 11.6646 38.0483L11.6636 38.0464V38.0454L11.6392 37.9819L11.6324 37.9136L9.26617 12.9136L9.26324 12.8901V12.0805H40.8843V12.7446ZM27.7642 27.4809C27.5641 27.4864 27.3758 27.5668 27.2349 27.7016C27.1476 27.6555 27.0486 27.6274 26.9429 27.6274H26.5464C25.9911 27.6276 25.5372 28.0703 25.523 28.6255L25.4048 33.2983C25.3889 33.9483 25.9118 34.4848 26.5621 34.4848C27.2007 34.4846 27.7188 33.9662 27.7193 33.3276V33.0513C27.7492 33.053 27.78 33.0561 27.8111 33.0561C28.1202 33.0561 28.3297 33.0415 28.5132 33.0102C28.6894 32.9802 28.8384 32.9333 28.9781 32.895C29.3836 32.7838 29.7902 32.5686 30.1236 32.1548C30.3326 31.8951 30.4039 31.6508 30.483 31.4809C30.5752 31.2828 30.62 31.0444 30.6431 30.8901C30.6557 30.8064 30.6644 30.7316 30.6695 30.6782C30.672 30.6517 30.6732 30.6295 30.6744 30.6138L30.6773 30.5845C30.6796 30.5644 30.6828 30.5352 30.6861 30.5005C30.6927 30.431 30.7013 30.3341 30.7066 30.2241C30.7167 30.015 30.7194 29.7123 30.6675 29.4565C30.5783 29.0173 30.4876 28.6414 30.1031 28.2192C29.8698 27.9632 29.6758 27.8137 29.3414 27.6684C28.9822 27.5125 28.7138 27.5085 28.4439 27.4858C28.3465 27.4777 28.2155 27.4758 28.0894 27.4761L27.7642 27.4809ZM15.7545 14.6274C14.8649 14.6274 14.1707 15.3969 14.2623 16.2817L15.9781 32.853C16.0575 33.6173 16.7018 34.1987 17.4703 34.1987H17.8775C18.7385 34.1986 19.4232 33.4744 19.3755 32.6147L18.4517 16.0434C18.4073 15.2489 17.7495 14.6275 16.9537 14.6274H15.7545ZM33.6304 14.6274C32.8392 14.6276 32.1838 15.2421 32.1334 16.0317L31.0777 32.603C31.0229 33.467 31.709 34.1987 32.5748 34.1987H32.9879C33.7473 34.1987 34.3878 33.6304 34.4781 32.8764L36.4576 16.3052C36.5642 15.4126 35.8671 14.6276 34.9683 14.6274H33.6304ZM23.8121 26.0766C23.0862 25.8593 22.1333 25.8953 21.4957 25.9526C20.7326 26.0213 20.2107 26.6735 20.2105 27.393V31.604C20.2107 32.2475 20.732 32.7698 21.3755 32.77C22.0191 32.7699 22.5413 32.2475 22.5416 31.604V30.7807L23.1871 32.1157C23.3806 32.5156 23.7858 32.77 24.23 32.77C25.2022 32.7698 25.7348 31.6516 25.1529 30.8911C24.9329 30.6038 24.7113 30.3095 24.5406 30.0727C24.6012 30.0331 24.6618 29.9932 24.7173 29.9497C24.9896 29.7361 25.1789 29.533 25.3199 29.1626C25.4478 28.8262 25.5468 28.5243 25.4966 28.0718C25.4706 27.8363 25.4698 27.5551 25.3052 27.2016C25.1623 26.8949 25.0183 26.6764 24.7095 26.4429C24.3694 26.1857 24.0144 26.1372 23.8121 26.0766ZM27.8863 28.6274C27.9359 28.6292 28.0041 28.6341 28.0826 28.645C28.2313 28.6657 28.4594 28.7147 28.6685 28.8462C28.7779 28.9151 28.8569 29.0095 28.9019 29.0679C28.9533 29.1344 28.9985 29.2041 29.0328 29.2622C29.0678 29.3216 29.0965 29.3768 29.1168 29.4165C29.1269 29.4364 29.1353 29.4531 29.1412 29.4653C29.144 29.4711 29.1463 29.4763 29.148 29.48C29.1489 29.4818 29.1504 29.4836 29.1509 29.4848V29.4868H29.1519V29.4878L29.1627 29.5112L29.1714 29.5356L29.2418 29.7388C29.3164 29.955 29.3488 30.2081 29.2916 30.4682C29.2652 30.5878 29.2206 30.7622 29.15 30.9116C29.0359 31.1531 28.8407 31.3988 28.7496 31.4868C28.668 31.5654 28.5749 31.601 28.5601 31.6069C28.5245 31.6213 28.4882 31.6326 28.4595 31.6411C28.4008 31.6584 28.3333 31.6743 28.272 31.688C28.1474 31.7158 28.0137 31.7411 27.9459 31.7534C27.8843 31.7646 27.8235 31.77 27.7642 31.77C27.1872 31.77 26.7194 31.302 26.7193 30.7251V29.7182C26.7195 29.1193 27.2018 28.6326 27.7994 28.6264H27.8238C27.8395 28.6264 27.8613 28.6266 27.8863 28.6274ZM22.9615 26.9126C23.2141 26.9126 23.5138 26.9785 23.7603 27.188C23.8613 27.2738 24.0277 27.4288 24.1216 27.6284C24.204 27.8035 24.2584 27.9923 24.2584 28.1987C24.2583 28.405 24.2039 28.5931 24.1216 28.768C24.0277 28.9676 23.8613 29.1227 23.7603 29.2085C23.5138 29.4179 23.2141 29.4838 22.9615 29.4839H22.8277C22.1178 29.4839 21.5418 28.9086 21.5416 28.1987C21.5416 27.4886 22.1176 26.9126 22.8277 26.9126H22.9615ZM24.2994 14.6274C23.4286 14.6275 22.7408 15.3663 22.8033 16.2348L23.399 24.521C23.4558 25.3052 24.1088 25.9125 24.8951 25.9126H25.4009C26.1872 25.9124 26.8402 25.3052 26.897 24.521L27.4927 16.2348C27.5552 15.3663 26.8674 14.6275 25.9966 14.6274H24.2994ZM25.3609 3.09129C26.2975 3.1092 27.2107 3.13631 27.8892 3.15867C28.2286 3.16986 28.5104 3.17972 28.7066 3.18699C28.8045 3.19062 28.8818 3.19375 28.9341 3.19578C28.9601 3.19679 28.9802 3.19818 28.9937 3.19871H29.0142L29.0357 3.19969L29.0572 3.20262H29.0591C29.0603 3.2028 29.0622 3.20336 29.064 3.20359C29.0678 3.20409 29.0733 3.20467 29.0797 3.20555C29.0925 3.20733 29.1106 3.21001 29.1324 3.21336C29.176 3.22008 29.2367 3.23015 29.3052 3.24363C29.4322 3.26862 29.626 3.31303 29.7877 3.38426C29.8931 3.43075 30.0501 3.50633 30.1734 3.56688C30.2364 3.59778 30.2933 3.62644 30.3345 3.64695C30.3551 3.65718 30.3728 3.66557 30.3843 3.67137C30.3897 3.67407 30.394 3.67671 30.397 3.6782C30.3985 3.67893 30.4002 3.67977 30.4009 3.68016H30.4019L30.4703 3.71434L30.525 3.76805L30.8209 4.0532L30.8502 4.08152L30.8746 4.11473L30.8775 4.11766C30.8791 4.11986 30.8816 4.12368 30.8843 4.12742C30.8902 4.1353 30.8987 4.14691 30.9088 4.16063C30.9292 4.1886 30.9581 4.22825 30.9898 4.27293C31.0517 4.36008 31.1336 4.47949 31.1959 4.58152C31.2733 4.70842 31.3559 4.86755 31.4146 4.98582C31.4447 5.04651 31.4705 5.1006 31.4888 5.13914C31.4978 5.15811 31.5052 5.17415 31.5103 5.18504C31.5128 5.19021 31.5158 5.19479 31.5172 5.19774C31.5176 5.19903 31.5178 5.20089 31.5181 5.20164L31.5191 5.20262V5.20359L31.565 5.3032V5.77H40.4634L40.5377 5.79441L40.982 5.93699L41.0552 5.96043L41.1177 6.00535H41.1187L41.1197 6.00633C41.1204 6.00679 41.1216 6.00754 41.1226 6.00828C41.1256 6.01041 41.1299 6.01422 41.1353 6.01805C41.1465 6.02597 41.1634 6.03714 41.1832 6.05125C41.2229 6.07963 41.278 6.11943 41.3394 6.16356C41.4618 6.25152 41.6138 6.36189 41.7203 6.44188C41.8132 6.51171 41.8792 6.57581 41.9341 6.63328C41.9931 6.69491 42.0143 6.72102 42.063 6.76805C42.1271 6.82981 42.2692 6.94651 42.3892 7.08445C42.5382 7.25576 42.6397 7.38592 42.7554 7.61961C42.8132 7.73636 42.8607 7.87547 42.8892 7.96727C42.9044 8.01626 42.9167 8.06004 42.9254 8.09129C42.9297 8.10676 42.9337 8.12022 42.9361 8.12938C42.9373 8.13383 42.9383 8.13845 42.939 8.14109C42.9393 8.14208 42.9398 8.14334 42.94 8.14402V8.14598L42.9556 8.2075V11.1968L42.4576 11.1987L7.84235 11.3413L7.34039 11.3432V8.02L7.38434 7.92234V7.92137L7.38531 7.92039C7.38568 7.91958 7.38664 7.91781 7.38727 7.91649C7.38865 7.91344 7.39077 7.90894 7.39313 7.90379C7.39823 7.89263 7.40553 7.87642 7.41461 7.85691C7.4329 7.81767 7.45849 7.76242 7.48883 7.70066C7.54737 7.58155 7.63113 7.4187 7.71344 7.28856C7.86942 7.04206 7.98469 6.86429 8.23297 6.62449C8.47493 6.39087 8.64937 6.27239 8.93121 6.11766C9.10464 6.02245 9.32245 5.93969 9.47809 5.88524C9.55935 5.85681 9.63127 5.83323 9.68317 5.81688C9.70919 5.80868 9.7307 5.80187 9.74567 5.79734C9.75298 5.79513 9.75902 5.79372 9.76324 5.79246C9.76536 5.79183 9.76785 5.79088 9.7691 5.79051H9.77106L9.83942 5.77H18.939C18.9342 5.56759 18.9423 5.32066 18.9937 5.10496C19.0282 4.9607 19.0893 4.80114 19.1334 4.69285C19.1566 4.63561 19.1781 4.58508 19.1939 4.5493C19.2017 4.53156 19.2088 4.51665 19.2134 4.50633C19.2157 4.50136 19.217 4.49661 19.2183 4.49363C19.2189 4.49231 19.2198 4.49065 19.2203 4.48973L19.2213 4.48875L19.2535 4.41941L19.3033 4.36375L19.3082 4.35887C19.3104 4.35637 19.314 4.3524 19.3179 4.34813C19.3261 4.33923 19.3379 4.32625 19.3521 4.31102C19.3809 4.28022 19.4215 4.23758 19.4683 4.18992C19.5583 4.09844 19.6884 3.97104 19.8111 3.87547C19.9151 3.79449 20.0457 3.71117 20.1392 3.65379C20.1632 3.6391 20.1861 3.62503 20.2066 3.61277C20.249 3.57086 20.2891 3.54235 20.3101 3.52879C20.4157 3.46084 20.6126 3.37159 20.9742 3.23192C21.0746 3.1932 21.1915 3.17142 21.2916 3.15672C21.4004 3.14074 21.5277 3.12789 21.6666 3.11766C21.945 3.09714 22.2936 3.08536 22.6822 3.07859C23.4609 3.06505 24.4252 3.0734 25.3609 3.09129ZM22.0855 4.19871C21.7835 4.19875 21.3959 4.28557 21.1207 4.59715C21.0959 4.62515 21.0689 4.65748 21.0435 4.69285C20.9882 4.77006 20.9485 4.83822 20.9175 4.90086L20.8404 5.07762C20.6806 5.4612 20.7922 5.83799 21.0123 6.09129C21.2237 6.33447 21.5453 6.48474 21.8853 6.48484H28.7173C29.041 6.48475 29.3763 6.36555 29.6187 6.14988C29.8735 5.92306 30.0609 5.54254 29.9107 5.10691C29.854 4.94267 29.7981 4.8342 29.6968 4.69285C29.6715 4.6575 29.6444 4.62514 29.6197 4.59715C29.3445 4.28547 28.9559 4.19874 28.6539 4.19871H22.0855Z" fill="url(#paint0_linear_130_376)"/>
<path d="M40.8843 12.7446L41.3838 12.7684L41.3843 12.7565V12.7446H40.8843ZM40.8834 12.7651L41.3817 12.8062L41.3824 12.7975L41.3828 12.7889L40.8834 12.7651ZM38.8121 37.9077L39.3103 37.9498L39.3104 37.9487L38.8121 37.9077ZM38.8004 38.0464L39.207 38.3373L39.287 38.2255L39.2986 38.0885L38.8004 38.0464ZM38.7193 38.1596V38.6596H38.9764L39.1259 38.4506L38.7193 38.1596ZM38.7183 38.1596V37.6596H38.2183V38.1596H38.7183ZM38.7183 38.1606L39.1199 38.4585L39.2183 38.3258V38.1606H38.7183ZM38.7154 38.1645L38.311 37.8705L38.3093 37.8729L38.7154 38.1645ZM38.7066 38.1772L39.1105 38.472L39.1106 38.4718L38.7066 38.1772ZM38.6734 38.2221L39.076 38.5186L39.076 38.5186L38.6734 38.2221ZM38.5601 38.3735L38.1613 38.0719L38.1613 38.0719L38.5601 38.3735ZM38.2476 38.7651L37.8695 38.438L37.8695 38.438L38.2476 38.7651ZM37.2554 39.7134L37.5287 40.1321L37.5288 40.132L37.2554 39.7134ZM36.563 40.0561L36.376 39.5924L36.376 39.5925L36.563 40.0561ZM36.2974 40.1587L36.1275 39.6884H36.1275L36.2974 40.1587ZM36.2164 40.187L36.0527 39.7145L36.0526 39.7146L36.2164 40.187ZM36.1939 40.1948L36.3545 40.6683L36.3547 40.6682L36.1939 40.1948ZM36.1871 40.1968L36.0264 39.7233L35.994 39.7343L35.9635 39.7495L36.1871 40.1968ZM36.1851 40.1977V40.6977H36.3032L36.4087 40.645L36.1851 40.1977ZM36.1841 40.1977V39.6977H36.1011L36.0224 39.7246L36.1841 40.1977ZM36.107 40.2241V40.7241H36.1901L36.2687 40.6972L36.107 40.2241ZM13.9673 40.2241L13.7992 40.695L13.8807 40.7241H13.9673V40.2241ZM13.8853 40.1948L14.0535 39.7238L14.0434 39.7205L13.8853 40.1948ZM13.8824 40.1938L13.7135 40.6646L13.7243 40.6682L13.8824 40.1938ZM13.8765 40.1909L14.056 39.7241L14.0473 39.721L13.8765 40.1909ZM13.8541 40.1831L13.6805 40.652L13.6809 40.6521L13.8541 40.1831ZM13.7779 40.1548L13.5977 40.6212L13.5977 40.6212L13.7779 40.1548ZM13.5279 40.0522L13.3291 40.511L13.3292 40.5111L13.5279 40.0522ZM12.8746 39.7016L12.5834 40.1081L12.5835 40.1082L12.8746 39.7016ZM12.1773 39.0278L11.7807 39.3323L11.7808 39.3325L12.1773 39.0278ZM11.8121 38.393L11.3586 38.6037L11.3586 38.6037L11.8121 38.393ZM11.7056 38.1499L11.2437 38.3413L11.2437 38.3413L11.7056 38.1499ZM11.6754 38.0757L11.2106 38.2601L11.2107 38.2602L11.6754 38.0757ZM11.6666 38.0542L11.2006 38.2356L11.2012 38.2371L11.6666 38.0542ZM11.6646 38.0483L12.1365 37.8831L12.126 37.8531L12.1118 37.8247L11.6646 38.0483ZM11.6636 38.0464H11.1636V38.1644L11.2164 38.27L11.6636 38.0464ZM11.6636 38.0454H12.1636V37.9526L12.1303 37.8659L11.6636 38.0454ZM11.6392 37.9819L11.1417 38.0317L11.1484 38.0986L11.1725 38.1614L11.6392 37.9819ZM11.6324 37.9136L11.1346 37.9607L11.1349 37.9633L11.6324 37.9136ZM9.26617 12.9136L9.76395 12.8664L9.76324 12.859L9.76231 12.8515L9.26617 12.9136ZM9.26324 12.8901H8.76324V12.9212L8.76711 12.9521L9.26324 12.8901ZM9.26324 12.0805V11.5805H8.76324V12.0805H9.26324ZM40.8843 12.0805H41.3843V11.5805H40.8843V12.0805ZM27.7642 27.4809L27.7567 26.981L27.7506 26.9811L27.7642 27.4809ZM27.2349 27.7016L27.0015 28.1438L27.3203 28.3121L27.5807 28.0628L27.2349 27.7016ZM26.9429 27.6274L26.943 27.1274H26.9429V27.6274ZM26.5464 27.6274V27.1274H26.5463L26.5464 27.6274ZM25.523 28.6255L25.0232 28.6127L25.0232 28.6128L25.523 28.6255ZM25.4048 33.2983L24.905 33.2857L24.905 33.286L25.4048 33.2983ZM26.5621 34.4848V34.9848H26.5623L26.5621 34.4848ZM27.7193 33.3276L28.2193 33.328V33.3276H27.7193ZM27.7193 33.0513L27.7478 32.5521L27.2193 32.5219V33.0513H27.7193ZM27.8111 33.0561V33.5561H27.8111L27.8111 33.0561ZM28.5132 33.0102L28.5972 33.5031L28.5973 33.5031L28.5132 33.0102ZM28.9781 32.895L28.8458 32.4128L28.8458 32.4128L28.9781 32.895ZM30.1236 32.1548L30.513 32.4684L30.5131 32.4683L30.1236 32.1548ZM30.483 31.4809L30.0297 31.2699L30.0297 31.27L30.483 31.4809ZM30.6431 30.8901L31.1376 30.9643L31.1376 30.9641L30.6431 30.8901ZM30.6695 30.6782L31.1673 30.7255L31.1673 30.7254L30.6695 30.6782ZM30.6744 30.6138L30.1767 30.564L30.1758 30.5764L30.6744 30.6138ZM30.6773 30.5845L30.1804 30.5287L30.1798 30.5347L30.6773 30.5845ZM30.6861 30.5005L31.1838 30.548L31.1838 30.5479L30.6861 30.5005ZM30.7066 30.2241L31.206 30.2482L31.206 30.2482L30.7066 30.2241ZM30.6675 29.4565L31.1576 29.3572L31.1575 29.3569L30.6675 29.4565ZM30.1031 28.2192L30.4728 27.8826L30.4727 27.8825L30.1031 28.2192ZM29.3414 27.6684L29.5406 27.2099L29.5406 27.2098L29.3414 27.6684ZM28.4439 27.4858L28.4857 26.9876L28.4856 26.9876L28.4439 27.4858ZM28.0894 27.4761L28.0885 26.976L28.0819 26.9761L28.0894 27.4761ZM14.2623 16.2817L13.7649 16.3332L13.7649 16.3332L14.2623 16.2817ZM15.9781 32.853L15.4807 32.9045L15.4808 32.9047L15.9781 32.853ZM17.8775 34.1987V34.6987H17.8775L17.8775 34.1987ZM19.3755 32.6147L19.8748 32.587L19.8748 32.5869L19.3755 32.6147ZM18.4517 16.0434L18.9509 16.0156L18.9509 16.0155L18.4517 16.0434ZM16.9537 14.6274L16.9537 14.1274H16.9537V14.6274ZM33.6304 14.6274V14.1274H33.6303L33.6304 14.6274ZM32.1334 16.0317L31.6344 15.9999L31.6344 15.9999L32.1334 16.0317ZM31.0777 32.603L30.5787 32.5712L30.5787 32.5713L31.0777 32.603ZM32.9879 34.1987V34.6987H32.9879L32.9879 34.1987ZM34.4781 32.8764L34.9745 32.9359L34.9746 32.9358L34.4781 32.8764ZM36.4576 16.3052L36.9541 16.3645V16.3645L36.4576 16.3052ZM34.9683 14.6274L34.9684 14.1274H34.9683V14.6274ZM23.8121 26.0766L23.6687 26.5556L23.6687 26.5557L23.8121 26.0766ZM21.4957 25.9526L21.4509 25.4546L21.4508 25.4546L21.4957 25.9526ZM20.2105 27.393L19.7105 27.3929V27.393H20.2105ZM20.2105 31.604H19.7105V31.6042L20.2105 31.604ZM21.3755 32.77L21.3754 33.27H21.3756L21.3755 32.77ZM22.5416 31.604L23.0416 31.6042V31.604H22.5416ZM22.5416 30.7807L22.9917 30.5631L22.0416 30.7807H22.5416ZM23.1871 32.1157L22.7369 32.3334L22.737 32.3335L23.1871 32.1157ZM24.23 32.77V33.27H24.2301L24.23 32.77ZM25.1529 30.8911L25.55 30.5872L25.5499 30.5871L25.1529 30.8911ZM24.5406 30.0727L24.2667 29.6544L23.8292 29.9408L24.135 30.3651L24.5406 30.0727ZM24.7173 29.9497L25.0259 30.3431L25.026 30.3431L24.7173 29.9497ZM25.3199 29.1626L25.7872 29.3405L25.7872 29.3403L25.3199 29.1626ZM25.4966 28.0718L25.9936 28.0167L25.9936 28.0167L25.4966 28.0718ZM25.3052 27.2016L25.7585 26.9906L25.7585 26.9905L25.3052 27.2016ZM24.7095 26.4429L25.0112 26.0441L25.011 26.044L24.7095 26.4429ZM27.8863 28.6274L27.9037 28.1277L27.9036 28.1277L27.8863 28.6274ZM28.0826 28.645L28.1515 28.1498L28.1514 28.1498L28.0826 28.645ZM28.6685 28.8462L28.9351 28.4231L28.9347 28.4229L28.6685 28.8462ZM28.9019 29.0679L29.2977 28.7623L29.2976 28.7622L28.9019 29.0679ZM29.0328 29.2622L29.4634 29.0082L29.4634 29.0081L29.0328 29.2622ZM29.1168 29.4165L29.5623 29.1895L29.5622 29.1895L29.1168 29.4165ZM29.1412 29.4653L29.5912 29.2475L29.5912 29.2474L29.1412 29.4653ZM29.148 29.48L28.6962 29.6942L28.6974 29.6966L29.148 29.48ZM29.1509 29.4848H29.6509V29.3734L29.6036 29.2725L29.1509 29.4848ZM29.1509 29.4868H28.6509V29.9868H29.1509V29.4868ZM29.1519 29.4868H29.6519V28.9868H29.1519V29.4868ZM29.1519 29.4878H28.6519V29.5969L28.6974 29.6961L29.1519 29.4878ZM29.1627 29.5112L29.6331 29.3419L29.626 29.322L29.6172 29.3029L29.1627 29.5112ZM29.1714 29.5356L29.644 29.3721L29.6419 29.3663L29.1714 29.5356ZM29.2418 29.7388L29.7144 29.5756L29.7143 29.5752L29.2418 29.7388ZM29.2916 30.4682L29.7799 30.5758L29.7799 30.5757L29.2916 30.4682ZM29.15 30.9116L29.602 31.1252L29.6021 31.1252L29.15 30.9116ZM28.7496 31.4868L29.0966 31.8467L29.097 31.8464L28.7496 31.4868ZM28.5601 31.6069L28.3738 31.1429L28.3728 31.1433L28.5601 31.6069ZM28.4595 31.6411L28.6011 32.1206L28.6012 32.1206L28.4595 31.6411ZM28.272 31.688L28.381 32.1759L28.3811 32.1759L28.272 31.688ZM27.9459 31.7534L28.035 32.2454L28.0351 32.2454L27.9459 31.7534ZM27.7642 31.77V32.27H27.7644L27.7642 31.77ZM26.7193 30.7251H26.2193V30.7252L26.7193 30.7251ZM26.7193 29.7182L26.2193 29.7181V29.7182H26.7193ZM27.7994 28.6264V28.1264L27.7943 28.1265L27.7994 28.6264ZM27.8238 28.6264V29.1264L27.8257 29.1264L27.8238 28.6264ZM22.9615 26.9126L22.9615 26.4126H22.9615V26.9126ZM23.7603 27.188L24.0841 26.807L24.084 26.8069L23.7603 27.188ZM24.1216 27.6284L24.5741 27.4156L24.574 27.4155L24.1216 27.6284ZM24.2584 28.1987L24.7584 28.1989V28.1987H24.2584ZM24.1216 28.768L24.574 28.981L24.5741 28.9809L24.1216 28.768ZM23.7603 29.2085L24.084 29.5895L24.0841 29.5895L23.7603 29.2085ZM22.9615 29.4839V29.9839H22.9615L22.9615 29.4839ZM21.5416 28.1987H21.0416V28.1989L21.5416 28.1987ZM24.2994 14.6274V14.1274H24.2994L24.2994 14.6274ZM22.8033 16.2348L23.302 16.199V16.199L22.8033 16.2348ZM23.399 24.521L22.9003 24.5568L22.9003 24.5571L23.399 24.521ZM24.8951 25.9126L24.895 26.4126H24.8951V25.9126ZM25.4009 25.9126V26.4126H25.401L25.4009 25.9126ZM26.897 24.521L27.3957 24.5571L27.3957 24.5568L26.897 24.521ZM27.4927 16.2348L26.994 16.199V16.199L27.4927 16.2348ZM25.9966 14.6274L25.9967 14.1274H25.9966V14.6274ZM25.3609 3.09129L25.3705 2.59138V2.59138L25.3609 3.09129ZM27.8892 3.15867L27.9057 2.65894L27.9057 2.65894L27.8892 3.15867ZM28.7066 3.18699L28.7251 2.68734L28.7251 2.68734L28.7066 3.18699ZM28.9341 3.19578L28.9536 2.69616L28.9535 2.69616L28.9341 3.19578ZM28.9937 3.19871L28.974 3.69832L28.9838 3.69871H28.9937V3.19871ZM29.0142 3.19871L29.0369 2.69923L29.0256 2.69871H29.0142V3.19871ZM29.0357 3.19969L29.1033 2.70427L29.0809 2.70123L29.0584 2.7002L29.0357 3.19969ZM29.0572 3.20262L28.9896 3.69803L29.0233 3.70262H29.0572V3.20262ZM29.0591 3.20262L29.1362 2.7086L29.0979 2.70262H29.0591V3.20262ZM29.064 3.20359L28.9985 3.69928L28.9991 3.69936L29.064 3.20359ZM29.0797 3.20555L29.1485 2.7103L29.1484 2.71029L29.0797 3.20555ZM29.1324 3.21336L29.2085 2.71918L29.2084 2.71918L29.1324 3.21336ZM29.3052 3.24363L29.4018 2.75305L29.4018 2.75304L29.3052 3.24363ZM29.7877 3.38426L29.9893 2.92674L29.9893 2.92671L29.7877 3.38426ZM30.1734 3.56688L30.3937 3.11805L30.3937 3.11804L30.1734 3.56688ZM30.3345 3.64695L30.1116 4.09449L30.1116 4.09452L30.3345 3.64695ZM30.3843 3.67137L30.6093 3.22481L30.6082 3.22429L30.3843 3.67137ZM30.397 3.6782L30.6212 3.23128L30.6212 3.23128L30.397 3.6782ZM30.4009 3.68016L30.1766 4.12698L30.2824 4.18016H30.4009V3.68016ZM30.4019 3.68016L30.6255 3.23294L30.52 3.18016H30.4019V3.68016ZM30.4703 3.71434L30.8206 3.35761L30.7644 3.30238L30.6939 3.26712L30.4703 3.71434ZM30.525 3.76805L30.1746 4.12479L30.178 4.12808L30.525 3.76805ZM30.8209 4.0532L31.1684 3.69371L31.1678 3.69318L30.8209 4.0532ZM30.8502 4.08152L31.253 3.78533L31.228 3.75135L31.1977 3.72203L30.8502 4.08152ZM30.8746 4.11473L30.4717 4.41092L30.4942 4.44147L30.521 4.46828L30.8746 4.11473ZM30.8775 4.11766L31.2823 3.82422L31.2591 3.79213L31.2311 3.7641L30.8775 4.11766ZM30.8843 4.12742L30.4821 4.42439L30.4821 4.42445L30.8843 4.12742ZM30.9088 4.16063L31.3124 3.86557L31.3124 3.86553L30.9088 4.16063ZM30.9898 4.27293L31.3974 3.98334L31.3974 3.9833L30.9898 4.27293ZM31.1959 4.58152L31.6227 4.32118L31.6227 4.32109L31.1959 4.58152ZM31.4146 4.98582L31.8625 4.76357L31.8625 4.76353L31.4146 4.98582ZM31.4888 5.13914L31.9404 4.92449L31.9404 4.92441L31.4888 5.13914ZM31.5103 5.18504L31.0575 5.39709L31.059 5.40025L31.5103 5.18504ZM31.5172 5.19774L31.9881 5.0298L31.9803 5.00801L31.9706 4.98703L31.5172 5.19774ZM31.5181 5.20164L31.0643 5.41156L31.1017 5.49229L31.1646 5.5552L31.5181 5.20164ZM31.5191 5.20262H32.0191V4.99551L31.8727 4.84906L31.5191 5.20262ZM31.5191 5.20359H31.0191V5.31325L31.065 5.41284L31.5191 5.20359ZM31.565 5.3032H32.065V5.19355L32.0191 5.09396L31.565 5.3032ZM31.565 5.77H31.065V6.27H31.565V5.77ZM40.4634 5.77L40.6197 5.29504L40.5436 5.27H40.4634V5.77ZM40.5377 5.79441L40.3814 6.26939L40.3849 6.27051L40.5377 5.79441ZM40.982 5.93699L40.8292 6.41308L40.8296 6.41321L40.982 5.93699ZM41.0552 5.96043L41.3471 5.55442L41.2829 5.5083L41.2076 5.48422L41.0552 5.96043ZM41.1177 6.00535L40.8259 6.41136L40.9567 6.50535H41.1177V6.00535ZM41.1187 6.00535L41.4723 5.6518L41.3258 5.50535H41.1187V6.00535ZM41.1197 6.00633L40.7661 6.35988L40.8003 6.39408L40.8405 6.42109L41.1197 6.00633ZM41.1226 6.00828L41.4166 5.60378L41.4125 5.60092L41.1226 6.00828ZM41.1353 6.01805L40.8454 6.42539L40.8458 6.42568L41.1353 6.01805ZM41.1832 6.05125L41.4736 5.64425L41.4736 5.64423L41.1832 6.05125ZM41.3394 6.16356L41.0476 6.56957L41.0476 6.56957L41.3394 6.16356ZM41.7203 6.44188L42.0206 6.04216L42.0205 6.04208L41.7203 6.44188ZM41.9341 6.63328L42.2955 6.28771L42.2954 6.28763L41.9341 6.63328ZM42.063 6.76805L41.7157 7.12771L41.7159 7.12789L42.063 6.76805ZM42.3892 7.08445L42.7665 6.75633L42.7664 6.75623L42.3892 7.08445ZM42.7554 7.61961L43.2036 7.39787L43.2035 7.39767L42.7554 7.61961ZM42.8892 7.96727L43.3667 7.81891L43.3667 7.81881L42.8892 7.96727ZM42.9254 8.09129L43.4071 7.95733L43.4071 7.95731L42.9254 8.09129ZM42.9361 8.12938L43.4195 8.00168L43.4193 8.00074L42.9361 8.12938ZM42.939 8.14109L42.4552 8.26711L42.4578 8.2771L42.4608 8.28697L42.939 8.14109ZM42.94 8.14402H43.44V8.08093L43.4243 8.01982L42.94 8.14402ZM42.94 8.14598H42.44V8.20848L42.4554 8.26905L42.94 8.14598ZM42.9556 8.2075H43.4556V8.145L43.4402 8.08442L42.9556 8.2075ZM42.9556 11.1968L42.9576 11.6968L43.4556 11.6948V11.1968H42.9556ZM42.4576 11.1987L42.4556 10.6987L42.4555 10.6987L42.4576 11.1987ZM7.84235 11.3413L7.84429 11.8413L7.84441 11.8413L7.84235 11.3413ZM7.34039 11.3432H6.84039V11.8452L7.34234 11.8432L7.34039 11.3432ZM7.34039 8.02L6.88443 7.81482L6.84039 7.91268V8.02H7.34039ZM7.38434 7.92234L7.8403 8.12753L7.88434 8.02966V7.92234H7.38434ZM7.38434 7.92137L7.03078 7.56781L6.88434 7.71426V7.92137H7.38434ZM7.38531 7.92039L7.73887 8.27394L7.80347 8.20935L7.84105 8.12608L7.38531 7.92039ZM7.38727 7.91649L7.83956 8.12977L7.84268 8.12288L7.38727 7.91649ZM7.39313 7.90379L7.84781 8.11179L7.84791 8.11158L7.39313 7.90379ZM7.41461 7.85691L6.96139 7.64574L6.96137 7.6458L7.41461 7.85691ZM7.48883 7.70066L7.04009 7.48014L7.04007 7.48018L7.48883 7.70066ZM7.71344 7.28856L7.29093 7.02119L7.29087 7.02129L7.71344 7.28856ZM8.23297 6.62449L7.88567 6.2648L7.88561 6.26485L8.23297 6.62449ZM8.93121 6.11766L8.69061 5.67936L8.69059 5.67936L8.93121 6.11766ZM9.47809 5.88524L9.31298 5.41328L9.31296 5.41329L9.47809 5.88524ZM9.68317 5.81688L9.53295 5.33997L9.53292 5.33999L9.68317 5.81688ZM9.74567 5.79734L9.60082 5.31879L9.60082 5.31879L9.74567 5.79734ZM9.76324 5.79246L9.90571 6.27174L9.90575 6.27173L9.76324 5.79246ZM9.7691 5.79051V5.29051H9.69662L9.62712 5.31109L9.7691 5.79051ZM9.77106 5.79051V6.29051H9.84444L9.91473 6.26942L9.77106 5.79051ZM9.83942 5.77V5.27H9.76603L9.69574 5.29109L9.83942 5.77ZM18.939 5.77V6.27H19.4512L19.4389 5.75798L18.939 5.77ZM18.9937 5.10496L18.5074 4.98882L18.5073 4.98912L18.9937 5.10496ZM19.1334 4.69285L18.6702 4.50447L18.6702 4.50452L19.1334 4.69285ZM19.1939 4.5493L18.7364 4.34756L18.7364 4.34764L19.1939 4.5493ZM19.2134 4.50633L19.6687 4.71304L19.6688 4.71279L19.2134 4.50633ZM19.2183 4.49363L18.7639 4.28496L18.7602 4.29326L19.2183 4.49363ZM19.2203 4.48973L18.8667 4.13617L18.808 4.19487L18.7714 4.26939L19.2203 4.48973ZM19.2213 4.48875L19.5748 4.8423L19.6374 4.77974L19.6747 4.69949L19.2213 4.48875ZM19.2535 4.41941L18.8809 4.08602L18.8314 4.14135L18.8001 4.20867L19.2535 4.41941ZM19.3033 4.36375L18.9497 4.0102L18.9399 4.02001L18.9307 4.03035L19.3033 4.36375ZM19.3082 4.35887L19.6617 4.71242L19.67 4.70414L19.6779 4.69547L19.3082 4.35887ZM19.3179 4.34813L18.9496 4.01005L18.9494 4.0102L19.3179 4.34813ZM19.3521 4.31102L18.9868 3.96961L18.9868 3.96965L19.3521 4.31102ZM19.4683 4.18992L19.1118 3.83934L19.1118 3.83938L19.4683 4.18992ZM19.8111 3.87547L19.5039 3.48099L19.5038 3.48102L19.8111 3.87547ZM20.1392 3.65379L19.8777 3.22763L19.8777 3.22765L20.1392 3.65379ZM20.2066 3.61277L20.4632 4.04194L20.5151 4.01088L20.5582 3.96832L20.2066 3.61277ZM20.3101 3.52879L20.0395 3.10838L20.0392 3.10853L20.3101 3.52879ZM20.9742 3.23192L20.7943 2.7654L20.794 2.7655L20.9742 3.23192ZM21.2916 3.15672L21.219 2.66202L21.2189 2.66202L21.2916 3.15672ZM21.6666 3.11766L21.6298 2.61901L21.6298 2.61901L21.6666 3.11766ZM22.6822 3.07859L22.6735 2.57867L22.6735 2.57867L22.6822 3.07859ZM22.0855 4.19871V3.69871H22.0855L22.0855 4.19871ZM21.1207 4.59715L20.7459 4.26614L20.7458 4.26624L21.1207 4.59715ZM21.0435 4.69285L20.6372 4.40143L20.6371 4.4016L21.0435 4.69285ZM20.9175 4.90086L20.4694 4.67914L20.4641 4.68987L20.4593 4.70085L20.9175 4.90086ZM20.8404 5.07762L20.3821 4.87758L20.3788 4.88538L20.8404 5.07762ZM21.0123 6.09129L20.6348 6.4192L20.635 6.41939L21.0123 6.09129ZM21.8853 6.48484L21.8852 6.98484H21.8853V6.48484ZM28.7173 6.48484V6.98484H28.7175L28.7173 6.48484ZM29.6187 6.14988L29.9511 6.52345L29.9512 6.52332L29.6187 6.14988ZM29.9107 5.10691L30.3834 4.94398L30.3833 4.94377L29.9107 5.10691ZM29.6968 4.69285L30.1033 4.40161L30.1032 4.40154L29.6968 4.69285ZM29.6197 4.59715L29.9946 4.26632L29.9945 4.26619L29.6197 4.59715ZM28.6539 4.19871L28.6539 3.69871H28.6539V4.19871ZM40.8843 12.7446L40.3849 12.7208L40.3839 12.7413L40.8834 12.7651L41.3828 12.7889L41.3838 12.7684L40.8843 12.7446ZM40.8834 12.7651L40.3851 12.7241L38.3138 37.8666L38.8121 37.9077L39.3104 37.9487L41.3817 12.8062L40.8834 12.7651ZM38.8121 37.9077L38.3138 37.8656L38.3021 38.0043L38.8004 38.0464L39.2986 38.0885L39.3103 37.9498L38.8121 37.9077ZM38.8004 38.0464L38.3937 37.7554L38.3127 37.8687L38.7193 38.1596L39.1259 38.4506L39.207 38.3373L38.8004 38.0464ZM38.7193 38.1596V37.6596H38.7183V38.1596V38.6596H38.7193V38.1596ZM38.7183 38.1596H38.2183V38.1606H38.7183H39.2183V38.1596H38.7183ZM38.7183 38.1606L38.3167 37.8627C38.3176 37.8617 38.3182 37.8608 38.3185 37.8604C38.3188 37.86 38.319 37.8597 38.319 37.8597C38.319 37.8597 38.319 37.8597 38.3189 37.8599C38.3188 37.86 38.3185 37.8604 38.3183 37.8607C38.3177 37.8614 38.3168 37.8626 38.3157 37.8641C38.3147 37.8655 38.313 37.8678 38.311 37.8705L38.7154 38.1645L39.1198 38.4586L39.1199 38.4585L38.7183 38.1606ZM38.7154 38.1645L38.3093 37.8729C38.305 37.8789 38.3015 37.8839 38.3002 37.8859C38.2994 37.8871 38.2987 37.8881 38.2983 37.8887C38.2978 37.8894 38.2977 37.8895 38.2976 37.8898C38.2971 37.8905 38.2993 37.8872 38.3026 37.8826L38.7066 38.1772L39.1106 38.4718C39.1177 38.4621 39.1232 38.4539 39.1257 38.4503C39.1263 38.4495 39.1269 38.4486 39.1271 38.4483C39.1274 38.4478 39.1273 38.4479 39.1271 38.4482C39.1271 38.4483 39.1248 38.4516 39.1215 38.4562L38.7154 38.1645ZM38.7066 38.1772L38.3027 37.8825C38.2947 37.8935 38.2893 37.9005 38.2708 37.9257L38.6734 38.2221L39.076 38.5186C39.0853 38.5061 39.1029 38.4823 39.1105 38.472L38.7066 38.1772ZM38.6734 38.2221L38.2708 37.9257C38.2444 37.9614 38.206 38.0129 38.1613 38.0719L38.5601 38.3735L38.9589 38.6751C39.005 38.6142 39.0462 38.5591 39.076 38.5186L38.6734 38.2221ZM38.5601 38.3735L38.1613 38.0719C38.0741 38.1873 37.9623 38.3307 37.8695 38.438L38.2476 38.7651L38.6257 39.0923C38.7405 38.9596 38.8681 38.7952 38.9589 38.6751L38.5601 38.3735ZM38.2476 38.7651L37.8695 38.438C37.5566 38.7996 37.3884 39.0294 36.9821 39.2947L37.2554 39.7134L37.5288 40.132C38.0777 39.7737 38.3427 39.4194 38.6257 39.0923L38.2476 38.7651ZM37.2554 39.7134L36.9821 39.2947C36.8114 39.4061 36.5721 39.5133 36.376 39.5924L36.563 40.0561L36.7501 40.5198C36.9572 40.4363 37.2722 40.2995 37.5287 40.1321L37.2554 39.7134ZM36.563 40.0561L36.376 39.5925C36.2746 39.6333 36.1874 39.6668 36.1275 39.6884L36.2974 40.1587L36.4673 40.6289C36.5421 40.6019 36.6413 40.5637 36.7501 40.5198L36.563 40.0561ZM36.2974 40.1587L36.1275 39.6884C36.0979 39.6991 36.0764 39.7063 36.0527 39.7145L36.2164 40.187L36.38 40.6594C36.395 40.6543 36.4294 40.6426 36.4673 40.6289L36.2974 40.1587ZM36.2164 40.187L36.0526 39.7146C36.0471 39.7165 36.042 39.7183 36.0386 39.7195C36.0367 39.7201 36.0354 39.7206 36.0344 39.7209C36.0333 39.7213 36.033 39.7214 36.0331 39.7214L36.1939 40.1948L36.3547 40.6682C36.3599 40.6665 36.3652 40.6646 36.3686 40.6634C36.3727 40.662 36.3762 40.6608 36.3801 40.6594L36.2164 40.187ZM36.1939 40.1948L36.0333 39.7213C36.042 39.7183 36.0494 39.7161 36.0544 39.7147C36.0593 39.7133 36.0631 39.7123 36.0637 39.7122C36.0639 39.7121 36.064 39.7121 36.0638 39.7121C36.0638 39.7121 36.0634 39.7122 36.063 39.7123C36.0622 39.7126 36.0601 39.7131 36.0576 39.7138C36.0551 39.7145 36.0511 39.7156 36.0462 39.717C36.0414 39.7184 36.0346 39.7205 36.0264 39.7233L36.1871 40.1968L36.3477 40.6702C36.34 40.6729 36.3335 40.6748 36.3292 40.6761C36.3248 40.6774 36.3213 40.6784 36.3192 40.6789C36.3172 40.6795 36.3157 40.6799 36.3155 40.6799C36.3153 40.68 36.3152 40.68 36.3154 40.68C36.3156 40.6799 36.316 40.6798 36.3164 40.6797C36.3182 40.6792 36.3232 40.6779 36.3294 40.6761C36.3358 40.6743 36.3444 40.6717 36.3545 40.6683L36.1939 40.1948ZM36.1871 40.1968L35.9635 39.7495L35.9615 39.7505L36.1851 40.1977L36.4087 40.645L36.4107 40.644L36.1871 40.1968ZM36.1851 40.1977V39.6977H36.1841V40.1977V40.6977H36.1851V40.1977ZM36.1841 40.1977L36.0224 39.7246L35.9453 39.751L36.107 40.2241L36.2687 40.6972L36.3458 40.6709L36.1841 40.1977ZM36.107 40.2241V39.7241H13.9673V40.2241V40.7241H36.107V40.2241ZM13.9673 40.2241L14.1355 39.7532L14.0535 39.7239L13.8853 40.1948L13.7171 40.6657L13.7992 40.695L13.9673 40.2241ZM13.8853 40.1948L14.0434 39.7205L14.0405 39.7195L13.8824 40.1938L13.7243 40.6682L13.7272 40.6691L13.8853 40.1948ZM13.8824 40.1938L14.0512 39.7232C14.0688 39.7295 14.0829 39.7357 14.0925 39.7401C14.1022 39.7447 14.1099 39.7486 14.1146 39.7511C14.1194 39.7536 14.123 39.7556 14.1242 39.7563C14.1246 39.7565 14.1249 39.7567 14.1251 39.7568C14.1253 39.7569 14.1254 39.757 14.1254 39.757C14.1257 39.7571 14.125 39.7568 14.1246 39.7566C14.1229 39.7556 14.1146 39.7509 14.1039 39.7455C14.0928 39.7399 14.0764 39.7321 14.0559 39.7242L13.8765 40.1909L13.6971 40.6576C13.6779 40.6502 13.6626 40.6429 13.6526 40.6379C13.643 40.633 13.6357 40.6289 13.635 40.6285C13.6348 40.6284 13.6344 40.6282 13.6349 40.6284C13.6351 40.6286 13.6359 40.629 13.6368 40.6295C13.6385 40.6305 13.6426 40.6327 13.6477 40.6354C13.6529 40.6381 13.661 40.6423 13.6711 40.647C13.6811 40.6517 13.6956 40.658 13.7135 40.6645L13.8824 40.1938ZM13.8765 40.1909L14.0473 39.721C14.0412 39.7188 14.036 39.717 14.0334 39.7161C14.032 39.7156 14.0306 39.7151 14.0297 39.7148C14.0285 39.7144 14.028 39.7142 14.0272 39.714C14.0245 39.7131 14.0253 39.7133 14.0272 39.714L13.8541 40.1831L13.6809 40.6521C13.6919 40.6562 13.7013 40.6594 13.7063 40.6611C13.7075 40.6615 13.7088 40.6619 13.7094 40.6622C13.7103 40.6624 13.7106 40.6626 13.7108 40.6626C13.7115 40.6629 13.7093 40.6621 13.7058 40.6608L13.8765 40.1909ZM13.8541 40.1831L14.0276 39.7142C14.002 39.7047 13.9854 39.6989 13.958 39.6884L13.7779 40.1548L13.5977 40.6212C13.6334 40.635 13.6695 40.6479 13.6805 40.652L13.8541 40.1831ZM13.7779 40.1548L13.9581 39.6884C13.9 39.6659 13.8182 39.6331 13.7266 39.5934L13.5279 40.0522L13.3292 40.5111C13.4347 40.5567 13.5289 40.5946 13.5977 40.6212L13.7779 40.1548ZM13.5279 40.0522L13.7266 39.5934C13.5443 39.5144 13.3215 39.4067 13.1657 39.2951L12.8746 39.7016L12.5835 40.1082C12.8302 40.2849 13.1348 40.4268 13.3291 40.511L13.5279 40.0522ZM12.8746 39.7016L13.1658 39.2952C12.9037 39.1074 12.7686 38.9766 12.5738 38.7232L12.1773 39.0278L11.7808 39.3325C12.0357 39.6641 12.2418 39.8634 12.5834 40.1081L12.8746 39.7016ZM12.1773 39.0278L12.5739 38.7233C12.4585 38.573 12.3473 38.3585 12.2655 38.1824L11.8121 38.393L11.3586 38.6037C11.4465 38.7929 11.5952 39.0906 11.7807 39.3323L12.1773 39.0278ZM11.8121 38.393L12.2655 38.1824C12.2251 38.0953 12.1916 38.0165 12.1675 37.9584L11.7056 38.1499L11.2437 38.3413C11.2708 38.4067 11.3102 38.4994 11.3586 38.6037L11.8121 38.393ZM11.7056 38.1499L12.1675 37.9585C12.1553 37.929 12.1458 37.9057 12.14 37.8911L11.6754 38.0757L11.2107 38.2602C11.2191 38.2813 11.2306 38.3097 11.2437 38.3413L11.7056 38.1499ZM11.6754 38.0757L12.1401 37.8913C12.1368 37.8829 12.1337 37.8756 12.1321 37.8717C12.1311 37.8693 12.1309 37.8687 12.1306 37.868C12.1303 37.8674 12.1309 37.8688 12.1319 37.8712L11.6666 38.0542L11.2012 38.2371C11.2032 38.2421 11.205 38.2464 11.206 38.2489C11.207 38.2514 11.2082 38.2542 11.2087 38.2554C11.2094 38.2571 11.2098 38.2581 11.2101 38.2589C11.2103 38.2593 11.2104 38.2596 11.2105 38.2598C11.2105 38.2599 11.2106 38.2599 11.2106 38.26C11.2106 38.26 11.2106 38.26 11.2106 38.26C11.2106 38.2601 11.2106 38.2601 11.2106 38.2601L11.6754 38.0757ZM11.6666 38.0542L12.1325 37.8727C12.1356 37.8807 12.1379 37.8872 12.1393 37.8915C12.1408 37.8959 12.1419 37.8992 12.1423 37.9004C12.1424 37.901 12.1426 37.9015 12.1425 37.9012C12.1425 37.9012 12.1424 37.9009 12.1423 37.9006C12.1422 37.9003 12.1421 37.8998 12.1419 37.8992C12.1415 37.8982 12.1409 37.8962 12.1401 37.8937C12.1393 37.8913 12.1381 37.8875 12.1365 37.8831L11.6646 38.0483L11.1927 38.2136C11.1913 38.2095 11.1902 38.2061 11.1895 38.2041C11.1888 38.202 11.1883 38.2005 11.1881 38.1998C11.188 38.1993 11.1878 38.1988 11.188 38.1992C11.188 38.1995 11.1883 38.2004 11.1887 38.2016C11.1894 38.2038 11.1908 38.2082 11.1926 38.2136C11.1945 38.219 11.1972 38.2266 11.2006 38.2356L11.6666 38.0542ZM11.6646 38.0483L12.1118 37.8247L12.1108 37.8228L11.6636 38.0464L11.2164 38.27L11.2174 38.2719L11.6646 38.0483ZM11.6636 38.0464H12.1636V38.0454H11.6636H11.1636V38.0464H11.6636ZM11.6636 38.0454L12.1303 37.8659L12.1059 37.8024L11.6392 37.9819L11.1725 38.1614L11.197 38.2249L11.6636 38.0454ZM11.6392 37.9819L12.1367 37.9322L12.1299 37.8638L11.6324 37.9136L11.1349 37.9633L11.1417 38.0317L11.6392 37.9819ZM11.6324 37.9136L12.1302 37.8664L9.76395 12.8664L9.26617 12.9136L8.7684 12.9607L11.1346 37.9607L11.6324 37.9136ZM9.26617 12.9136L9.76231 12.8515L9.75938 12.8281L9.26324 12.8901L8.76711 12.9521L8.77004 12.9756L9.26617 12.9136ZM9.26324 12.8901H9.76324V12.0805H9.26324H8.76324V12.8901H9.26324ZM9.26324 12.0805V12.5805H40.8843V12.0805V11.5805H9.26324V12.0805ZM40.8843 12.0805H40.3843V12.7446H40.8843H41.3843V12.0805H40.8843ZM27.7642 27.4809L27.7506 26.9811C27.4251 26.99 27.1188 27.1206 26.8891 27.3405L27.2349 27.7016L27.5807 28.0628C27.6328 28.0129 27.7031 27.9828 27.7779 27.9808L27.7642 27.4809ZM27.2349 27.7016L27.4684 27.2595C27.3172 27.1797 27.1386 27.1275 26.943 27.1274L26.9429 27.6274L26.9428 28.1274C26.9585 28.1274 26.978 28.1314 27.0015 28.1438L27.2349 27.7016ZM26.9429 27.6274V27.1274H26.5464V27.6274V28.1274H26.9429V27.6274ZM26.5464 27.6274L26.5463 27.1274C25.7198 27.1277 25.0442 27.7865 25.0232 28.6127L25.523 28.6255L26.0228 28.6382C26.0301 28.354 26.2624 28.1275 26.5466 28.1274L26.5464 27.6274ZM25.523 28.6255L25.0232 28.6128L24.905 33.2857L25.4048 33.2983L25.9047 33.311L26.0229 28.6381L25.523 28.6255ZM25.4048 33.2983L24.905 33.286C24.8821 34.2166 25.6305 34.9848 26.5621 34.9848V34.4848V33.9848C26.193 33.9848 25.8956 33.6801 25.9047 33.3106L25.4048 33.2983ZM26.5621 34.4848L26.5623 34.9848C27.4771 34.9845 28.2186 34.2422 28.2193 33.328L27.7193 33.3276L27.2193 33.3272C27.219 33.6902 26.9243 33.9847 26.5619 33.9848L26.5621 34.4848ZM27.7193 33.3276H28.2193V33.0513H27.7193H27.2193V33.3276H27.7193ZM27.7193 33.0513L27.6908 33.5504C27.7049 33.5512 27.7048 33.5515 27.7319 33.5533C27.7512 33.5545 27.7793 33.5561 27.8111 33.5561V33.0561V32.5561C27.8117 32.5561 27.8089 32.5562 27.7975 32.5554C27.7916 32.555 27.7862 32.5546 27.7773 32.554C27.7693 32.5534 27.7589 32.5527 27.7478 32.5521L27.7193 33.0513ZM27.8111 33.0561L27.8111 33.5561C28.1349 33.5561 28.3753 33.5409 28.5972 33.5031L28.5132 33.0102L28.4293 32.5173C28.2842 32.5421 28.1054 32.5561 27.8111 32.5561L27.8111 33.0561ZM28.5132 33.0102L28.5973 33.5031C28.8054 33.4676 28.9908 33.41 29.1104 33.3772L28.9781 32.895L28.8458 32.4128C28.6861 32.4566 28.5735 32.4927 28.4292 32.5174L28.5132 33.0102ZM28.9781 32.895L29.1103 33.3772C29.5971 33.2437 30.1017 32.9789 30.513 32.4684L30.1236 32.1548L29.7342 31.8411C29.4786 32.1584 29.1701 32.3239 28.8458 32.4128L28.9781 32.895ZM30.1236 32.1548L30.5131 32.4683C30.7729 32.1455 30.8898 31.7918 30.9363 31.6919L30.483 31.4809L30.0297 31.27C29.9181 31.5097 29.8922 31.6448 29.7341 31.8413L30.1236 32.1548ZM30.483 31.4809L30.9363 31.6919C31.0604 31.4252 31.1132 31.1269 31.1376 30.9643L30.6431 30.8901L30.1487 30.816C30.1268 30.9619 30.09 31.1404 30.0297 31.2699L30.483 31.4809ZM30.6431 30.8901L31.1376 30.9641C31.1515 30.8717 31.1613 30.788 31.1673 30.7255L30.6695 30.6782L30.1717 30.6309C30.1675 30.6752 30.1599 30.741 30.1486 30.8161L30.6431 30.8901ZM30.6695 30.6782L31.1673 30.7254C31.1703 30.6932 31.1728 30.653 31.173 30.6511L30.6744 30.6138L30.1758 30.5764C30.1753 30.5825 30.1749 30.5886 30.1746 30.5932C30.1742 30.5984 30.174 30.6025 30.1737 30.607C30.1731 30.6157 30.1725 30.6234 30.1717 30.631L30.6695 30.6782ZM30.6744 30.6138L31.1719 30.6635L31.1748 30.6342L30.6773 30.5845L30.1798 30.5347L30.1769 30.564L30.6744 30.6138ZM30.6773 30.5845L31.1742 30.6402C31.1765 30.6192 31.1801 30.5868 31.1838 30.548L30.6861 30.5005L30.1884 30.453C30.1854 30.4837 30.1826 30.5097 30.1804 30.5287L30.6773 30.5845ZM30.6861 30.5005L31.1838 30.5479C31.1908 30.4753 31.2002 30.3695 31.206 30.2482L30.7066 30.2241L30.2072 30.2C30.2024 30.2986 30.1947 30.3868 30.1884 30.4531L30.6861 30.5005ZM30.7066 30.2241L31.206 30.2482C31.2165 30.0307 31.2223 29.6765 31.1576 29.3572L30.6675 29.4565L30.1775 29.5559C30.2165 29.7481 30.2169 29.9994 30.2072 30.2L30.7066 30.2241ZM30.6675 29.4565L31.1575 29.3569C31.0636 28.8947 30.951 28.4078 30.4728 27.8826L30.1031 28.2192L29.7334 28.5559C30.0241 28.8751 30.093 29.14 30.1776 29.5561L30.6675 29.4565ZM30.1031 28.2192L30.4727 27.8825C30.1973 27.5801 29.9467 27.3863 29.5406 27.2099L29.3414 27.6684L29.1421 28.127C29.4048 28.2412 29.5424 28.3462 29.7335 28.5559L30.1031 28.2192ZM29.3414 27.6684L29.5406 27.2098C29.0916 27.0148 28.7349 27.0085 28.4857 26.9876L28.4439 27.4858L28.4021 27.9841C28.6928 28.0085 28.8729 28.0101 29.1422 28.1271L29.3414 27.6684ZM28.4439 27.4858L28.4856 26.9876C28.365 26.9775 28.2152 26.9758 28.0885 26.9761L28.0894 27.4761L28.0903 27.9761C28.2158 27.9758 28.328 27.9779 28.4022 27.9841L28.4439 27.4858ZM28.0894 27.4761L28.0819 26.9761L27.7567 26.981L27.7642 27.4809L27.7717 27.9809L28.0969 27.976L28.0894 27.4761ZM15.7545 14.6274V14.1274C14.5686 14.1274 13.6428 15.1533 13.7649 16.3332L14.2623 16.2817L14.7596 16.2302C14.6986 15.6405 15.1613 15.1274 15.7545 15.1274V14.6274ZM14.2623 16.2817L13.7649 16.3332L15.4807 32.9045L15.9781 32.853L16.4754 32.8015L14.7596 16.2302L14.2623 16.2817ZM15.9781 32.853L15.4808 32.9047C15.5866 33.9235 16.4454 34.6987 17.4703 34.6987V34.1987V33.6987C16.9582 33.6987 16.5283 33.3111 16.4754 32.8014L15.9781 32.853ZM17.4703 34.1987V34.6987H17.8775V34.1987V33.6987H17.4703V34.1987ZM17.8775 34.1987L17.8775 34.6987C19.0258 34.6986 19.9384 33.7331 19.8748 32.587L19.3755 32.6147L18.8763 32.6424C18.9081 33.2157 18.4513 33.6987 17.8775 33.6987L17.8775 34.1987ZM19.3755 32.6147L19.8748 32.5869L18.9509 16.0156L18.4517 16.0434L17.9525 16.0713L18.8763 32.6426L19.3755 32.6147ZM18.4517 16.0434L18.9509 16.0155C18.8916 14.9558 18.0145 14.1275 16.9537 14.1274L16.9537 14.6274L16.9536 15.1274C17.4845 15.1275 17.9229 15.542 17.9525 16.0714L18.4517 16.0434ZM16.9537 14.6274V14.1274H15.7545V14.6274V15.1274H16.9537V14.6274ZM33.6304 14.6274L33.6303 14.1274C32.5756 14.1276 31.7016 14.9468 31.6344 15.9999L32.1334 16.0317L32.6323 16.0636C32.6659 15.5374 33.1028 15.1275 33.6305 15.1274L33.6304 14.6274ZM32.1334 16.0317L31.6344 15.9999L30.5787 32.5712L31.0777 32.603L31.5767 32.6348L32.6324 16.0635L32.1334 16.0317ZM31.0777 32.603L30.5787 32.5713C30.5056 33.7231 31.4201 34.6987 32.5748 34.6987V34.1987V33.6987C31.9978 33.6987 31.5401 33.2109 31.5767 32.6347L31.0777 32.603ZM32.5748 34.1987V34.6987H32.9879V34.1987V33.6987H32.5748V34.1987ZM32.9879 34.1987L32.9879 34.6987C34.0003 34.6986 34.8541 33.9413 34.9745 32.9359L34.4781 32.8764L33.9816 32.817C33.9215 33.3195 33.4942 33.6987 32.9878 33.6987L32.9879 34.1987ZM34.4781 32.8764L34.9746 32.9358L36.9541 16.3645L36.4576 16.3052L35.9611 16.2459L33.9816 32.8171L34.4781 32.8764ZM36.4576 16.3052L36.9541 16.3645C37.0962 15.1743 36.1667 14.1276 34.9684 14.1274L34.9683 14.6274L34.9682 15.1274C35.5676 15.1275 36.0322 15.651 35.9611 16.2459L36.4576 16.3052ZM34.9683 14.6274V14.1274H33.6304V14.6274V15.1274H34.9683V14.6274ZM23.8121 26.0766L23.9555 25.5976C23.1299 25.3505 22.0926 25.397 21.4509 25.4546L21.4957 25.9526L21.5404 26.4506C22.174 26.3937 23.0425 26.3682 23.6687 26.5556L23.8121 26.0766ZM21.4957 25.9526L21.4508 25.4546C20.4049 25.5488 19.7108 26.4407 19.7105 27.3929L20.2105 27.393L20.7105 27.3932C20.7106 26.9064 21.0602 26.4938 21.5405 26.4506L21.4957 25.9526ZM20.2105 27.393H19.7105V31.604H20.2105H20.7105V27.393H20.2105ZM20.2105 31.604L19.7105 31.6042C19.7108 32.5231 20.4553 33.2698 21.3754 33.27L21.3755 32.77L21.3757 32.27C21.0088 32.2699 20.7106 31.9719 20.7105 31.6038L20.2105 31.604ZM21.3755 32.77L21.3756 33.27C22.2954 33.2699 23.0412 32.5236 23.0416 31.6042L22.5416 31.604L22.0416 31.6038C22.0414 31.9715 21.7429 32.27 21.3755 32.27L21.3755 32.77ZM22.5416 31.604H23.0416V30.7807H22.5416H22.0416V31.604H22.5416ZM22.5416 30.7807L22.0914 30.9984L22.7369 32.3334L23.1871 32.1157L23.6372 31.898L22.9917 30.5631L22.5416 30.7807ZM23.1871 32.1157L22.737 32.3335C23.0139 32.9057 23.5937 33.27 24.23 33.27V32.77V32.27C23.9778 32.27 23.7473 32.1255 23.6371 31.8979L23.1871 32.1157ZM24.23 32.77L24.2301 33.27C25.6265 33.2698 26.3775 31.6687 25.55 30.5872L25.1529 30.8911L24.7558 31.1949C25.0921 31.6344 24.7779 32.2699 24.23 32.27L24.23 32.77ZM25.1529 30.8911L25.5499 30.5871C25.3309 30.3011 25.1127 30.0113 24.9462 29.7804L24.5406 30.0727L24.135 30.3651C24.3099 30.6077 24.5349 30.9065 24.7559 31.1951L25.1529 30.8911ZM24.5406 30.0727L24.8144 30.4911C24.8723 30.4532 24.9509 30.402 25.0259 30.3431L24.7173 29.9497L24.4088 29.5563C24.3728 29.5845 24.33 29.613 24.2667 29.6544L24.5406 30.0727ZM24.7173 29.9497L25.026 30.3431C25.3464 30.0917 25.6047 29.8198 25.7872 29.3405L25.3199 29.1626L24.8526 28.9847C24.753 29.2463 24.6327 29.3805 24.4087 29.5563L24.7173 29.9497ZM25.3199 29.1626L25.7872 29.3403C25.9242 28.9802 26.0569 28.5884 25.9936 28.0167L25.4966 28.0718L24.9997 28.1268C25.0366 28.4603 24.9715 28.6722 24.8526 28.9848L25.3199 29.1626ZM25.4966 28.0718L25.9936 28.0167C25.9721 27.823 25.9666 27.4376 25.7585 26.9906L25.3052 27.2016L24.8519 27.4126C24.973 27.6727 24.969 27.8496 24.9997 28.1268L25.4966 28.0718ZM25.3052 27.2016L25.7585 26.9905C25.5909 26.6307 25.4013 26.3392 25.0112 26.0441L24.7095 26.4429L24.4079 26.8416C24.6354 27.0137 24.7338 27.159 24.852 27.4128L25.3052 27.2016ZM24.7095 26.4429L25.011 26.044C24.5764 25.7154 24.0783 25.6344 23.9554 25.5976L23.8121 26.0766L23.6687 26.5557C23.9504 26.6399 24.1624 26.6561 24.408 26.8417L24.7095 26.4429ZM27.8863 28.6274L27.8688 29.1271C27.9023 29.1283 27.9533 29.1318 28.0138 29.1402L28.0826 28.645L28.1514 28.1498C28.0549 28.1364 27.9695 28.13 27.9037 28.1277L27.8863 28.6274ZM28.0826 28.645L28.0137 29.1402C28.1314 29.1566 28.2794 29.1921 28.4023 29.2694L28.6685 28.8462L28.9347 28.4229C28.6395 28.2372 28.3311 28.1748 28.1515 28.1498L28.0826 28.645ZM28.6685 28.8462L28.402 29.2692C28.4164 29.2783 28.434 29.2925 28.4537 29.3124C28.473 29.332 28.4902 29.3528 28.5062 29.3735L28.9019 29.0679L29.2976 28.7622C29.2423 28.6906 29.1202 28.5398 28.9351 28.4231L28.6685 28.8462ZM28.9019 29.0679L28.5061 29.3734C28.5421 29.42 28.5758 29.4717 28.6021 29.5163L29.0328 29.2622L29.4634 29.0081C29.4212 28.9365 29.3645 28.8488 29.2977 28.7623L28.9019 29.0679ZM29.0328 29.2622L28.6021 29.5162C28.6294 29.5625 28.6527 29.6072 28.6713 29.6435L29.1168 29.4165L29.5622 29.1895C29.5403 29.1464 29.5062 29.0806 29.4634 29.0082L29.0328 29.2622ZM29.1168 29.4165L28.6713 29.6435C28.6807 29.6621 28.6874 29.6754 28.6912 29.6833L29.1412 29.4653L29.5912 29.2474C29.5832 29.2308 29.5731 29.2108 29.5623 29.1895L29.1168 29.4165ZM29.1412 29.4653L28.6911 29.6831C28.6904 29.6817 28.6901 29.681 28.6908 29.6825C28.691 29.6828 28.6911 29.6832 28.6914 29.6839C28.6917 29.6844 28.6921 29.6853 28.6925 29.6861C28.6932 29.6877 28.6946 29.6907 28.6962 29.6942L29.148 29.48L29.5998 29.2658C29.6006 29.2674 29.601 29.2684 29.6007 29.2678C29.6006 29.2675 29.6005 29.2673 29.6002 29.2666C29.6 29.2661 29.5996 29.2653 29.5992 29.2644C29.5976 29.261 29.5948 29.2548 29.5912 29.2475L29.1412 29.4653ZM29.148 29.48L28.6974 29.6966C28.7022 29.7066 28.7067 29.7152 28.7106 29.7223C28.7145 29.7293 28.718 29.7353 28.7209 29.74C28.7238 29.7448 28.7262 29.7487 28.728 29.7514C28.7297 29.7541 28.7311 29.7562 28.7316 29.757C28.7318 29.7573 28.7321 29.7578 28.732 29.7576C28.732 29.7576 28.7319 29.7575 28.7318 29.7573C28.7317 29.7572 28.7316 29.757 28.7314 29.7567C28.7307 29.7557 28.7289 29.7529 28.7266 29.7492C28.7243 29.7456 28.7205 29.7394 28.7161 29.7316C28.7118 29.724 28.7053 29.7122 28.6983 29.6972L29.1509 29.4848L29.6036 29.2725C29.5964 29.2572 29.5898 29.245 29.5853 29.2371C29.5806 29.229 29.5766 29.2225 29.5741 29.2185C29.5716 29.2144 29.5695 29.2112 29.5686 29.2098C29.5681 29.2091 29.5677 29.2085 29.5676 29.2083C29.5673 29.2079 29.5675 29.2082 29.5676 29.2083C29.5678 29.2086 29.569 29.2103 29.5704 29.2126C29.5719 29.2149 29.574 29.2183 29.5766 29.2226C29.5792 29.2269 29.5825 29.2324 29.5861 29.239C29.5897 29.2456 29.5941 29.2538 29.5986 29.2633L29.148 29.48ZM29.1509 29.4848H28.6509V29.4868H29.1509H29.6509V29.4848H29.1509ZM29.1509 29.4868V29.9868H29.1519V29.4868V28.9868H29.1509V29.4868ZM29.1519 29.4868H28.6519V29.4878H29.1519H29.6519V29.4868H29.1519ZM29.1519 29.4878L28.6974 29.6961L28.7081 29.7195L29.1627 29.5112L29.6172 29.3029L29.6064 29.2794L29.1519 29.4878ZM29.1627 29.5112L28.6922 29.6806L28.701 29.705L29.1714 29.5356L29.6419 29.3663L29.6331 29.3419L29.1627 29.5112ZM29.1714 29.5356L28.699 29.6992L28.7693 29.9023L29.2418 29.7388L29.7143 29.5752L29.6439 29.3721L29.1714 29.5356ZM29.2418 29.7388L28.7691 29.9019C28.8198 30.0486 28.8371 30.2072 28.8033 30.3607L29.2916 30.4682L29.7799 30.5757C29.8606 30.2091 29.813 29.8613 29.7144 29.5756L29.2418 29.7388ZM29.2916 30.4682L28.8033 30.3607C28.7789 30.4711 28.7438 30.6009 28.6979 30.698L29.15 30.9116L29.6021 31.1252C29.6973 30.9235 29.7515 30.7044 29.7799 30.5758L29.2916 30.4682ZM29.15 30.9116L28.6979 30.698C28.6581 30.7822 28.5991 30.8767 28.5364 30.9631C28.4719 31.0521 28.4194 31.1105 28.4022 31.1272L28.7496 31.4868L29.097 31.8464C29.2288 31.7191 29.4606 31.4246 29.602 31.1252L29.15 30.9116ZM28.7496 31.4868L28.4025 31.1269C28.4026 31.1267 28.4014 31.1279 28.3985 31.13C28.3956 31.1321 28.3922 31.1342 28.3886 31.1362C28.385 31.1381 28.3822 31.1395 28.3806 31.1402C28.3799 31.1405 28.3794 31.1407 28.379 31.1408C28.3773 31.1415 28.3799 31.1405 28.3738 31.1429L28.5601 31.6069L28.7465 32.0709C28.744 32.0719 28.7528 32.0684 28.7593 32.0657C28.7672 32.0625 28.777 32.0583 28.7884 32.0532C28.811 32.0431 28.8393 32.0296 28.8711 32.0121C28.9332 31.9778 29.0158 31.9247 29.0966 31.8467L28.7496 31.4868ZM28.5601 31.6069L28.3728 31.1433C28.3599 31.1486 28.342 31.1545 28.3179 31.1616L28.4595 31.6411L28.6012 32.1206C28.6345 32.1108 28.6891 32.0941 28.7475 32.0705L28.5601 31.6069ZM28.4595 31.6411L28.318 31.1616C28.2764 31.1738 28.2227 31.1867 28.163 31.2L28.272 31.688L28.3811 32.1759C28.4438 32.1619 28.5252 32.143 28.6011 32.1206L28.4595 31.6411ZM28.272 31.688L28.163 31.2C28.0478 31.2257 27.9214 31.2497 27.8566 31.2614L27.9459 31.7534L28.0351 32.2454C28.106 32.2325 28.2471 32.2059 28.381 32.1759L28.272 31.688ZM27.9459 31.7534L27.8567 31.2614C27.824 31.2673 27.793 31.27 27.764 31.27L27.7642 31.77L27.7644 32.27C27.854 32.27 27.9446 32.2618 28.035 32.2454L27.9459 31.7534ZM27.7642 31.77V31.27C27.4635 31.27 27.2194 31.026 27.2193 30.725L26.7193 30.7251L26.2193 30.7252C26.2195 31.5781 26.911 32.27 27.7642 32.27V31.77ZM26.7193 30.7251H27.2193V29.7182H26.7193H26.2193V30.7251H26.7193ZM26.7193 29.7182L27.2193 29.7184C27.2194 29.3934 27.4811 29.1297 27.8045 29.1264L27.7994 28.6264L27.7943 28.1265C26.9225 28.1354 26.2196 28.8452 26.2193 29.7181L26.7193 29.7182ZM27.7994 28.6264V29.1264H27.8238V28.6264V28.1264H27.7994V28.6264ZM27.8238 28.6264L27.8257 29.1264C27.8363 29.1264 27.8515 29.1265 27.869 29.1271L27.8863 28.6274L27.9036 28.1277C27.8711 28.1266 27.8428 28.1264 27.8218 28.1264L27.8238 28.6264ZM22.9615 26.9126L22.9614 27.4126C23.1341 27.4126 23.3061 27.4581 23.4366 27.569L23.7603 27.188L24.084 26.8069C23.7215 26.4989 23.2941 26.4126 22.9615 26.4126L22.9615 26.9126ZM23.7603 27.188L23.4365 27.569C23.4775 27.6038 23.525 27.647 23.5694 27.6972C23.6147 27.7482 23.6485 27.7973 23.6693 27.8413L24.1216 27.6284L24.574 27.4155C24.4323 27.1143 24.1958 26.9019 24.0841 26.807L23.7603 27.188ZM24.1216 27.6284L23.6692 27.8412C23.7285 27.9673 23.7584 28.083 23.7584 28.1987H24.2584H24.7584C24.7584 27.9015 24.6795 27.6398 24.5741 27.4156L24.1216 27.6284ZM24.2584 28.1987L23.7584 28.1985C23.7583 28.3139 23.7286 28.429 23.6692 28.5552L24.1216 28.768L24.5741 28.9809C24.6793 28.7571 24.7583 28.496 24.7584 28.1989L24.2584 28.1987ZM24.1216 28.768L23.6693 28.5551C23.6485 28.5991 23.6147 28.6482 23.5694 28.6993C23.525 28.7494 23.4775 28.7927 23.4365 28.8275L23.7603 29.2085L24.0841 29.5895C24.1958 29.4945 24.4323 29.2821 24.574 28.981L24.1216 28.768ZM23.7603 29.2085L23.4366 28.8274C23.3061 28.9383 23.1341 28.9839 22.9614 28.9839L22.9615 29.4839L22.9615 29.9839C23.2941 29.9838 23.7215 29.8975 24.084 29.5895L23.7603 29.2085ZM22.9615 29.4839V28.9839H22.8277V29.4839V29.9839H22.9615V29.4839ZM22.8277 29.4839V28.9839C22.3936 28.9839 22.0417 28.6321 22.0416 28.1985L21.5416 28.1987L21.0416 28.1989C21.0419 29.1851 21.842 29.9839 22.8277 29.9839V29.4839ZM21.5416 28.1987H22.0416C22.0416 27.7648 22.3938 27.4126 22.8277 27.4126V26.9126V26.4126C21.8415 26.4126 21.0416 27.2125 21.0416 28.1987H21.5416ZM22.8277 26.9126V27.4126H22.9615V26.9126V26.4126H22.8277V26.9126ZM24.2994 14.6274L24.2994 14.1274C23.1384 14.1275 22.2213 15.1126 22.3046 16.2707L22.8033 16.2348L23.302 16.199C23.2604 15.6201 23.7188 15.1275 24.2994 15.1274L24.2994 14.6274ZM22.8033 16.2348L22.3046 16.2707L22.9003 24.5568L23.399 24.521L23.8977 24.4851L23.302 16.199L22.8033 16.2348ZM23.399 24.521L22.9003 24.5571C22.9761 25.6028 23.8467 26.4124 24.895 26.4126L24.8951 25.9126L24.8951 25.4126C24.3708 25.4125 23.9356 25.0076 23.8977 24.4848L23.399 24.521ZM24.8951 25.9126V26.4126H25.4009V25.9126V25.4126H24.8951V25.9126ZM25.4009 25.9126L25.401 26.4126C26.4493 26.4124 27.32 25.6028 27.3957 24.5571L26.897 24.521L26.3983 24.4849C26.3605 25.0075 25.9252 25.4125 25.4009 25.4126L25.4009 25.9126ZM26.897 24.521L27.3957 24.5568L27.9914 16.2707L27.4927 16.2348L26.994 16.199L26.3983 24.4851L26.897 24.521ZM27.4927 16.2348L27.9914 16.2707C28.0747 15.1126 27.1576 14.1275 25.9967 14.1274L25.9966 14.6274L25.9966 15.1274C26.5772 15.1275 27.0356 15.6201 26.994 16.199L27.4927 16.2348ZM25.9966 14.6274V14.1274H24.2994V14.6274V15.1274H25.9966V14.6274ZM25.3609 3.09129L25.3513 3.5912C26.2848 3.60905 27.1955 3.63608 27.8728 3.6584L27.8892 3.15867L27.9057 2.65894C27.2259 2.63654 26.3102 2.60935 25.3705 2.59138L25.3609 3.09129ZM27.8892 3.15867L27.8727 3.6584C28.2116 3.66957 28.4928 3.67941 28.6881 3.68665L28.7066 3.18699L28.7251 2.68734C28.5281 2.68003 28.2455 2.67014 27.9057 2.65894L27.8892 3.15867ZM28.7066 3.18699L28.6881 3.68665C28.7854 3.69026 28.8614 3.69334 28.9148 3.69541L28.9341 3.19578L28.9535 2.69616C28.9022 2.69417 28.8235 2.69099 28.7251 2.68734L28.7066 3.18699ZM28.9341 3.19578L28.9147 3.69541C28.9239 3.69576 28.9324 3.6962 28.9416 3.69669C28.9455 3.69691 28.9514 3.69723 28.956 3.69748C28.9609 3.69774 28.9673 3.69806 28.974 3.69832L28.9937 3.19871L29.0135 2.6991C29.0136 2.69911 29.0132 2.69909 29.0124 2.69905C29.0115 2.69901 29.0103 2.69895 29.0087 2.69886C29.0049 2.69867 29.0016 2.69848 28.9956 2.69816C28.9849 2.69757 28.9703 2.69681 28.9536 2.69616L28.9341 3.19578ZM28.9937 3.19871V3.69871H29.0142V3.19871V2.69871H28.9937V3.19871ZM29.0142 3.19871L28.9915 3.6982L29.013 3.69917L29.0357 3.19969L29.0584 2.7002L29.0369 2.69923L29.0142 3.19871ZM29.0357 3.19969L28.9681 3.6951L28.9896 3.69803L29.0572 3.20262L29.1247 2.7072L29.1033 2.70427L29.0357 3.19969ZM29.0572 3.20262V3.70262H29.0591V3.20262V2.70262H29.0572V3.20262ZM29.0591 3.20262L28.9821 3.69664C28.9738 3.69536 28.9672 3.6941 28.9629 3.69326C28.9585 3.6924 28.9551 3.69166 28.9532 3.69125C28.9514 3.69084 28.95 3.69052 28.9499 3.6905C28.9492 3.69034 28.9506 3.69067 28.9513 3.69083C28.9533 3.69128 28.9591 3.69257 28.9663 3.694C28.9736 3.69542 28.9848 3.69747 28.9985 3.69928L29.064 3.20359L29.1295 2.70791C29.1424 2.7096 29.1527 2.71149 29.159 2.71274C29.1654 2.71399 29.1702 2.71509 29.1714 2.71535C29.1717 2.71541 29.1727 2.71564 29.1716 2.71539C29.1711 2.71528 29.1693 2.71487 29.1671 2.71438C29.1648 2.71389 29.161 2.71307 29.1563 2.71215C29.1517 2.71124 29.1448 2.70993 29.1362 2.7086L29.0591 3.20262ZM29.064 3.20359L28.9991 3.69936C29.0028 3.69984 29.006 3.70023 29.0076 3.70042C29.0085 3.70053 29.0094 3.70064 29.01 3.7007C29.0106 3.70078 29.011 3.70083 29.0114 3.70088C29.013 3.70106 29.0123 3.701 29.0109 3.7008L29.0797 3.20555L29.1484 2.71029C29.1406 2.70922 29.1341 2.70842 29.1304 2.70798C29.1294 2.70787 29.1286 2.70776 29.128 2.70769C29.1273 2.70761 29.127 2.70758 29.1267 2.70755C29.1261 2.70747 29.1272 2.7076 29.129 2.70783L29.064 3.20359ZM29.0797 3.20555L29.0108 3.70079C29.0203 3.70211 29.0358 3.70438 29.0563 3.70754L29.1324 3.21336L29.2084 2.71918C29.1854 2.71563 29.1647 2.71256 29.1485 2.7103L29.0797 3.20555ZM29.1324 3.21336L29.0563 3.70754C29.0948 3.71347 29.1485 3.72238 29.2087 3.73423L29.3052 3.24363L29.4018 2.75304C29.3249 2.73793 29.2572 2.72669 29.2085 2.71918L29.1324 3.21336ZM29.3052 3.24363L29.2087 3.73422C29.3284 3.75779 29.4773 3.79387 29.586 3.8418L29.7877 3.38426L29.9893 2.92671C29.7748 2.83219 29.5359 2.77944 29.4018 2.75305L29.3052 3.24363ZM29.7877 3.38426L29.586 3.84178C29.6811 3.88372 29.8299 3.95525 29.9531 4.01571L30.1734 3.56688L30.3937 3.11804C30.2702 3.0574 30.1051 2.97779 29.9893 2.92674L29.7877 3.38426ZM30.1734 3.56688L29.9531 4.01571C30.0143 4.04575 30.0684 4.07297 30.1116 4.09449L30.3345 3.64695L30.5575 3.19942C30.5183 3.1799 30.4584 3.14981 30.3937 3.11805L30.1734 3.56688ZM30.3345 3.64695L30.1116 4.09452C30.1697 4.12346 30.1242 4.10028 30.1605 4.11845L30.3843 3.67137L30.6082 3.22429C30.5991 3.21971 30.5883 3.21449 30.5814 3.21112C30.5731 3.20711 30.5654 3.20335 30.5574 3.19938L30.3345 3.64695ZM30.3843 3.67137L30.1594 4.11792C30.1526 4.1145 30.1478 4.11177 30.1486 4.11226C30.1487 4.11231 30.1489 4.11237 30.1491 4.11252C30.1493 4.11263 30.1497 4.11285 30.1501 4.11307C30.1509 4.1135 30.1523 4.11429 30.154 4.11521C30.1557 4.11614 30.1581 4.11749 30.1611 4.11906C30.164 4.12061 30.1681 4.12272 30.1729 4.12513L30.397 3.6782L30.6212 3.23128C30.6253 3.23331 30.6285 3.23501 30.6306 3.23613C30.6327 3.23726 30.6343 3.23813 30.6351 3.23856C30.6359 3.23898 30.6364 3.23925 30.6361 3.23912C30.636 3.23907 30.6359 3.239 30.6356 3.23883C30.6354 3.23869 30.635 3.23847 30.6345 3.23822C30.6311 3.23634 30.6214 3.23094 30.6093 3.22481L30.3843 3.67137ZM30.397 3.6782L30.1728 4.12513C30.174 4.12573 30.1752 4.12631 30.1759 4.12665C30.177 4.12718 30.1768 4.12712 30.1766 4.12698L30.4009 3.68016L30.6253 3.23333C30.6243 3.2328 30.6229 3.23213 30.6226 3.23197C30.6219 3.23161 30.6215 3.23141 30.6212 3.23128L30.397 3.6782ZM30.4009 3.68016V4.18016H30.4019V3.68016V3.18016H30.4009V3.68016ZM30.4019 3.68016L30.1783 4.12737L30.2467 4.16155L30.4703 3.71434L30.6939 3.26712L30.6255 3.23294L30.4019 3.68016ZM30.4703 3.71434L30.1199 4.07106L30.1746 4.12477L30.525 3.76805L30.8753 3.41132L30.8206 3.35761L30.4703 3.71434ZM30.525 3.76805L30.178 4.12808L30.4739 4.41323L30.8209 4.0532L31.1678 3.69318L30.8719 3.40802L30.525 3.76805ZM30.8209 4.0532L30.4734 4.4127L30.5026 4.44102L30.8502 4.08152L31.1977 3.72203L31.1684 3.69371L30.8209 4.0532ZM30.8502 4.08152L30.4473 4.37772L30.4717 4.41092L30.8746 4.11473L31.2774 3.81853L31.253 3.78533L30.8502 4.08152ZM30.8746 4.11473L30.521 4.46828L30.5239 4.47121L30.8775 4.11766L31.2311 3.7641L31.2281 3.76117L30.8746 4.11473ZM30.8775 4.11766L30.4727 4.4111C30.4708 4.40856 30.4694 4.40654 30.4686 4.40539C30.4678 4.40419 30.4672 4.40333 30.467 4.40304C30.4668 4.40275 30.4667 4.40261 30.4669 4.40298C30.4671 4.40318 30.4676 4.40394 30.4681 4.40465C30.4699 4.40737 30.4753 4.41518 30.4821 4.42439L30.8843 4.12742L31.2866 3.83046C31.2906 3.83592 31.2934 3.83996 31.2929 3.83928C31.2928 3.83914 31.2928 3.83908 31.2924 3.83848C31.2921 3.83805 31.2914 3.83715 31.2908 3.83614C31.2901 3.83512 31.289 3.83357 31.2877 3.83173C31.2864 3.82993 31.2846 3.82731 31.2823 3.82422L30.8775 4.11766ZM30.8843 4.12742L30.4821 4.42445C30.4878 4.43218 30.4958 4.44301 30.5051 4.45572L30.9088 4.16063L31.3124 3.86553C31.3016 3.85082 31.2925 3.83842 31.2865 3.83039L30.8843 4.12742ZM30.9088 4.16063L30.5051 4.45568C30.525 4.48288 30.5523 4.5205 30.5822 4.56256L30.9898 4.27293L31.3974 3.9833C31.3638 3.936 31.3334 3.89432 31.3124 3.86557L30.9088 4.16063ZM30.9898 4.27293L30.5822 4.56253C30.6415 4.64597 30.7157 4.75449 30.769 4.84196L31.1959 4.58152L31.6227 4.32109C31.5515 4.20448 31.462 4.0742 31.3974 3.98334L30.9898 4.27293ZM31.1959 4.58152L30.769 4.84187C30.835 4.95011 30.9101 5.09391 30.9667 5.20811L31.4146 4.98582L31.8625 4.76353C31.8018 4.64118 31.7115 4.46674 31.6227 4.32118L31.1959 4.58152ZM31.4146 4.98582L30.9667 5.20807C30.9949 5.26479 31.0191 5.31569 31.0373 5.35387L31.4888 5.13914L31.9404 4.92441C31.9219 4.8855 31.8946 4.82824 31.8625 4.76357L31.4146 4.98582ZM31.4888 5.13914L31.0373 5.35379C31.0456 5.37144 31.0503 5.38161 31.0575 5.39708L31.5103 5.18504L31.9631 4.973C31.9602 4.9667 31.9501 4.94478 31.9404 4.92449L31.4888 5.13914ZM31.5103 5.18504L31.059 5.40025C31.0642 5.41106 31.0689 5.42002 31.0723 5.42643C31.0757 5.43269 31.0786 5.43776 31.0797 5.43966C31.0799 5.44015 31.0802 5.44063 31.0803 5.4408C31.0805 5.44106 31.0805 5.44104 31.0804 5.44095C31.0803 5.44083 31.0796 5.43951 31.0785 5.43765C31.0775 5.43581 31.0757 5.4324 31.0734 5.428C31.0711 5.42371 31.0677 5.41694 31.0637 5.40844L31.5172 5.19774L31.9706 4.98703C31.9663 4.97779 31.9625 4.97024 31.9598 4.96511C31.957 4.95987 31.9547 4.95559 31.9532 4.95282C31.9516 4.95003 31.9503 4.94774 31.9497 4.94663C31.9493 4.94603 31.949 4.94549 31.9489 4.94523C31.9487 4.94488 31.9487 4.94483 31.9486 4.94478C31.9485 4.94452 31.9501 4.94729 31.9522 4.95115C31.9543 4.95515 31.9577 4.96161 31.9616 4.96983L31.5103 5.18504ZM31.5172 5.19774L31.0462 5.36567C31.0375 5.34117 31.0326 5.32135 31.0305 5.31246C31.0284 5.30333 31.0269 5.29557 31.0272 5.29712C31.0272 5.29713 31.0272 5.29718 31.0272 5.29723C31.0273 5.29729 31.0273 5.29737 31.0273 5.29747C31.0273 5.29766 31.0274 5.29797 31.0275 5.29835C31.0276 5.29907 31.0279 5.30031 31.0282 5.30184C31.0288 5.30462 31.0299 5.31022 31.0316 5.31723C31.0332 5.32396 31.0361 5.33531 31.0404 5.34915C31.0444 5.36209 31.0519 5.38468 31.0643 5.41156L31.5181 5.20164L31.9719 4.99173C31.9784 5.0057 31.9833 5.01804 31.9869 5.02785C31.9906 5.03776 31.9935 5.04646 31.9956 5.05347C31.9999 5.06706 32.0026 5.07813 32.0042 5.08456C32.0058 5.09126 32.0069 5.09655 32.0074 5.09899C32.0079 5.10132 32.0083 5.10337 32.0081 5.10266C32.0081 5.1026 32.008 5.10199 32.0079 5.10127C32.0077 5.1005 32.0075 5.09932 32.0072 5.09789C32.0066 5.09514 32.0056 5.09063 32.0044 5.08511C32.0031 5.07962 32.0012 5.07211 31.9987 5.06327C31.9963 5.05452 31.9928 5.04305 31.9881 5.0298L31.5172 5.19774ZM31.5181 5.20164L31.1646 5.5552L31.1656 5.55617L31.5191 5.20262L31.8727 4.84906L31.8717 4.84809L31.5181 5.20164ZM31.5191 5.20262H31.0191V5.20359H31.5191H32.0191V5.20262H31.5191ZM31.5191 5.20359L31.065 5.41284L31.1109 5.51245L31.565 5.3032L32.0191 5.09396L31.9732 4.99435L31.5191 5.20359ZM31.565 5.3032H31.065V5.77H31.565H32.065V5.3032H31.565ZM31.565 5.77V6.27H40.4634V5.77V5.27H31.565V5.77ZM40.4634 5.77L40.3072 6.24496L40.3814 6.26938L40.5377 5.79441L40.6939 5.31945L40.6197 5.29504L40.4634 5.77ZM40.5377 5.79441L40.3849 6.27051L40.8292 6.41308L40.982 5.93699L41.1348 5.4609L40.6904 5.31832L40.5377 5.79441ZM40.982 5.93699L40.8296 6.41321L40.9028 6.43664L41.0552 5.96043L41.2076 5.48422L41.1344 5.46078L40.982 5.93699ZM41.0552 5.96043L40.7634 6.36644L40.8259 6.41136L41.1177 6.00535L41.4096 5.59934L41.3471 5.55442L41.0552 5.96043ZM41.1177 6.00535V6.50535H41.1187V6.00535V5.50535H41.1177V6.00535ZM41.1187 6.00535L40.7652 6.35891L40.7661 6.35988L41.1197 6.00633L41.4732 5.65278L41.4723 5.6518L41.1187 6.00535ZM41.1197 6.00633L40.8405 6.42109C40.8441 6.42351 40.847 6.42545 40.8474 6.42566C40.8489 6.42664 40.8475 6.42573 40.8473 6.4256C40.8465 6.42511 40.8448 6.42397 40.8425 6.42245C40.8403 6.42096 40.8369 6.41862 40.8327 6.41565L41.1226 6.00828L41.4125 5.60092C41.4078 5.59758 41.4039 5.59487 41.4011 5.59301C41.3983 5.59113 41.396 5.58963 41.3948 5.5888C41.3941 5.58833 41.3922 5.58711 41.3932 5.58779C41.3934 5.58789 41.394 5.58829 41.3948 5.58883C41.3956 5.58935 41.3971 5.59032 41.3989 5.59157L41.1197 6.00633ZM41.1226 6.00828L40.8287 6.41276C40.8246 6.40976 40.8213 6.4073 40.8194 6.40579C40.8174 6.40426 40.8159 6.4031 40.8153 6.40263C40.8147 6.40218 40.8144 6.4019 40.8148 6.40225C40.815 6.40239 40.816 6.40323 40.817 6.40399C40.8211 6.40723 40.8317 6.41569 40.8454 6.42539L41.1353 6.01805L41.4253 5.6107C41.4296 5.6138 41.4331 5.61639 41.4354 5.61815C41.4365 5.61904 41.4374 5.61976 41.4381 5.62025C41.4387 5.62073 41.4391 5.62105 41.4391 5.62107C41.4391 5.62108 41.4391 5.62105 41.4389 5.62092C41.4386 5.62066 41.4387 5.62076 41.4382 5.62035C41.4377 5.61991 41.4364 5.61888 41.4349 5.61771C41.4334 5.61652 41.431 5.61469 41.4282 5.61252C41.4254 5.61039 41.4214 5.60734 41.4165 5.6038L41.1226 6.00828ZM41.1353 6.01805L40.8458 6.42568C40.8517 6.42986 40.8573 6.43373 40.8614 6.43659C40.8653 6.43927 40.8703 6.4427 40.8734 6.44482C40.8808 6.44987 40.8868 6.45405 40.8928 6.45828L41.1832 6.05125L41.4736 5.64423C41.4597 5.63435 41.4474 5.62588 41.4386 5.61984C41.4336 5.61641 41.431 5.61468 41.428 5.61259C41.4252 5.61069 41.4245 5.61019 41.4249 5.61042L41.1353 6.01805ZM41.1832 6.05125L40.8927 6.45825C40.9317 6.48602 40.9845 6.52421 41.0476 6.56957L41.3394 6.16356L41.6312 5.75754C41.5716 5.71466 41.5142 5.67323 41.4736 5.64425L41.1832 6.05125ZM41.3394 6.16356L41.0476 6.56957C41.1693 6.65705 41.3178 6.76494 41.42 6.84167L41.7203 6.44188L42.0205 6.04208C41.9097 5.95885 41.7543 5.846 41.6312 5.75754L41.3394 6.16356ZM41.7203 6.44188L41.4199 6.8416C41.4842 6.88993 41.5296 6.93373 41.5729 6.97894L41.9341 6.63328L42.2954 6.28763C42.2287 6.21788 42.1422 6.13348 42.0206 6.04216L41.7203 6.44188ZM41.9341 6.63328L41.5728 6.97885C41.6098 7.01754 41.6592 7.07316 41.7157 7.12771L42.063 6.76805L42.4104 6.40838C42.3695 6.36887 42.3764 6.37228 42.2955 6.28771L41.9341 6.63328ZM42.063 6.76805L41.7159 7.12789C41.7393 7.1505 41.7671 7.17545 41.7897 7.19579C41.8146 7.21828 41.8394 7.24048 41.8656 7.26476C41.9184 7.31354 41.9691 7.3633 42.012 7.41268L42.3892 7.08445L42.7664 6.75623C42.6295 6.5989 42.4306 6.42792 42.4102 6.40821L42.063 6.76805ZM42.3892 7.08445L42.012 7.41258C42.1449 7.56545 42.2173 7.65963 42.3074 7.84156L42.7554 7.61961L43.2035 7.39767C43.0621 7.11221 42.9315 6.94608 42.7665 6.75633L42.3892 7.08445ZM42.7554 7.61961L42.3073 7.84135C42.3473 7.92229 42.3856 8.03145 42.4118 8.11573L42.8892 7.96727L43.3667 7.81881C43.3358 7.71949 43.2791 7.55044 43.2036 7.39787L42.7554 7.61961ZM42.8892 7.96727L42.4117 8.11562C42.4246 8.1569 42.4351 8.19446 42.4436 8.22527L42.9254 8.09129L43.4071 7.95731C43.3983 7.92561 43.3843 7.87562 43.3667 7.81891L42.8892 7.96727ZM42.9254 8.09129L42.4436 8.22525C42.4464 8.23515 42.449 8.24439 42.4507 8.25021C42.4516 8.25343 42.4522 8.25552 42.4527 8.25715C42.4532 8.25884 42.4532 8.25891 42.4529 8.25801L42.9361 8.12938L43.4193 8.00074C43.4166 7.9909 43.4137 7.98066 43.4121 7.97519C43.4101 7.96813 43.4086 7.9629 43.4071 7.95733L42.9254 8.09129ZM42.9361 8.12938L42.4527 8.25707C42.452 8.25456 42.4517 8.25305 42.452 8.25464C42.4521 8.25502 42.4522 8.25528 42.4524 8.25593C42.4525 8.25646 42.4527 8.25727 42.4529 8.25814C42.4532 8.25954 42.4541 8.26303 42.4552 8.26711L42.939 8.14109L43.4229 8.01508C43.4233 8.01664 43.4236 8.01782 43.4237 8.01841C43.4239 8.01902 43.424 8.0194 43.424 8.01941C43.424 8.01941 43.424 8.0193 43.4239 8.01887C43.4238 8.01857 43.4236 8.01783 43.4234 8.01719C43.4228 8.0147 43.4214 8.00866 43.4195 8.00168L42.9361 8.12938ZM42.939 8.14109L42.4608 8.28697C42.4633 8.29515 42.4655 8.30158 42.4664 8.3044C42.4673 8.30704 42.4684 8.30991 42.468 8.30887C42.468 8.30879 42.4677 8.30794 42.4673 8.3068C42.4669 8.30566 42.4662 8.30361 42.4653 8.30102C42.4645 8.2985 42.4632 8.29455 42.4617 8.28966C42.4603 8.28499 42.4581 8.27752 42.4557 8.26823L42.94 8.14402L43.4243 8.01982C43.4219 8.01036 43.4196 8.0027 43.4182 7.99783C43.4166 7.99274 43.4152 7.98857 43.4143 7.98582C43.4127 7.98078 43.4112 7.97663 43.4111 7.97647C43.4106 7.97491 43.4114 7.97724 43.4121 7.97934C43.4129 7.98163 43.4149 7.98753 43.4173 7.99522L42.939 8.14109ZM42.94 8.14402H42.44V8.14598H42.94H43.44V8.14402H42.94ZM42.94 8.14598L42.4554 8.26905L42.471 8.33058L42.9556 8.2075L43.4402 8.08442L43.4246 8.0229L42.94 8.14598ZM42.9556 8.2075H42.4556V11.1968H42.9556H43.4556V8.2075H42.9556ZM42.9556 11.1968L42.9537 10.6968L42.4556 10.6987L42.4576 11.1987L42.4595 11.6987L42.9576 11.6968L42.9556 11.1968ZM42.4576 11.1987L42.4555 10.6987L7.84029 10.8413L7.84235 11.3413L7.84441 11.8413L42.4596 11.6987L42.4576 11.1987ZM7.84235 11.3413L7.8404 10.8413L7.33845 10.8432L7.34039 11.3432L7.34234 11.8432L7.84429 11.8413L7.84235 11.3413ZM7.34039 11.3432H7.84039V8.02H7.34039H6.84039V11.3432H7.34039ZM7.34039 8.02L7.79635 8.22518L7.8403 8.12753L7.38434 7.92234L6.92838 7.71716L6.88443 7.81482L7.34039 8.02ZM7.38434 7.92234H7.88434V7.92137H7.38434H6.88434V7.92234H7.38434ZM7.38434 7.92137L7.73789 8.27492L7.73887 8.27394L7.38531 7.92039L7.03176 7.56684L7.03078 7.56781L7.38434 7.92137ZM7.38531 7.92039L7.84105 8.12608C7.83844 8.13187 7.83626 8.13639 7.8351 8.13878C7.83383 8.14139 7.8328 8.14343 7.83224 8.14454C7.83131 8.1464 7.83045 8.14807 7.83096 8.14706C7.83107 8.14685 7.83212 8.14481 7.83332 8.14243C7.83447 8.14014 7.83678 8.13553 7.83951 8.12974L7.38727 7.91649L6.93503 7.70323C6.93745 7.6981 6.9394 7.69421 6.94018 7.69265C6.94101 7.691 6.94168 7.68971 6.94142 7.6902C6.94141 7.69022 6.94111 7.69082 6.9408 7.69142C6.94047 7.69206 6.93986 7.69325 6.93913 7.69471C6.93842 7.69612 6.93725 7.69845 6.93586 7.70131C6.93458 7.70396 6.93229 7.70871 6.92958 7.7147L7.38531 7.92039ZM7.38727 7.91649L7.84268 8.12288C7.8423 8.12371 7.84212 8.1241 7.84233 8.12366C7.84253 8.12322 7.84279 8.12266 7.84334 8.12147C7.8443 8.11941 7.84597 8.1158 7.84781 8.11179L7.39313 7.90379L6.93844 7.69579C6.93792 7.69693 6.93736 7.69815 6.93632 7.70039C6.93587 7.70135 6.9352 7.70281 6.93454 7.70423C6.93389 7.70564 6.93292 7.70774 6.93185 7.71009L7.38727 7.91649ZM7.39313 7.90379L7.84791 8.11158C7.85431 8.09755 7.85979 8.08534 7.86786 8.06803L7.41461 7.85691L6.96137 7.6458C6.95126 7.66749 6.94214 7.6877 6.93835 7.696L7.39313 7.90379ZM7.41461 7.85691L7.86783 8.06809C7.88659 8.02782 7.90994 7.97743 7.93759 7.92115L7.48883 7.70066L7.04007 7.48018C7.00703 7.54742 6.9792 7.60752 6.96139 7.64574L7.41461 7.85691ZM7.48883 7.70066L7.93757 7.92119C7.99444 7.80546 8.06862 7.66238 8.13601 7.55582L7.71344 7.28856L7.29087 7.02129C7.19364 7.17501 7.10029 7.35764 7.04009 7.48014L7.48883 7.70066ZM7.71344 7.28856L8.13595 7.55592C8.28616 7.31856 8.37592 7.18156 8.58033 6.98414L8.23297 6.62449L7.88561 6.26485C7.59346 6.54702 7.45269 6.76557 7.29093 7.02119L7.71344 7.28856ZM8.23297 6.62449L8.58028 6.98419C8.78423 6.78725 8.9207 6.69382 9.17183 6.55595L8.93121 6.11766L8.69059 5.67936C8.37804 5.85095 8.16563 5.99448 7.88567 6.2648L8.23297 6.62449ZM8.93121 6.11766L9.17182 6.55596C9.30728 6.4816 9.49266 6.40986 9.64322 6.35718L9.47809 5.88524L9.31296 5.41329C9.15224 5.46953 8.902 5.56331 8.69061 5.67936L8.93121 6.11766ZM9.47809 5.88524L9.6432 6.35719C9.71928 6.33057 9.78624 6.30863 9.83342 6.29377L9.68317 5.81688L9.53292 5.33999C9.4763 5.35782 9.39942 5.38304 9.31298 5.41328L9.47809 5.88524ZM9.68317 5.81688L9.83338 6.29378C9.86134 6.28497 9.87903 6.27938 9.89052 6.2759L9.74567 5.79734L9.60082 5.31879C9.58237 5.32437 9.55703 5.33239 9.53295 5.33997L9.68317 5.81688ZM9.74567 5.79734L9.89052 6.2759C9.8861 6.27724 9.88306 6.27803 9.88441 6.27767C9.88491 6.27754 9.8851 6.27749 9.88618 6.2772C9.88699 6.27699 9.88837 6.27662 9.88991 6.2762C9.89264 6.27547 9.89858 6.27385 9.90571 6.27174L9.76324 5.79246L9.62078 5.31319C9.6258 5.3117 9.6294 5.31073 9.62958 5.31068C9.62985 5.31061 9.6299 5.3106 9.62933 5.31075C9.62904 5.31083 9.6278 5.31116 9.62682 5.31142C9.62227 5.31263 9.61255 5.31523 9.60082 5.31879L9.74567 5.79734ZM9.76324 5.79246L9.90575 6.27173C9.91327 6.26949 9.91937 6.26749 9.92305 6.26626C9.9268 6.26502 9.92984 6.26396 9.93085 6.26361C9.93113 6.26351 9.9314 6.26341 9.9315 6.26338C9.93165 6.26333 9.93163 6.26333 9.93158 6.26335C9.93153 6.26337 9.93075 6.26364 9.92968 6.26401C9.92864 6.26436 9.92656 6.26507 9.92389 6.26594C9.92138 6.26676 9.91684 6.26822 9.91108 6.26993L9.7691 5.79051L9.62712 5.31109C9.62105 5.31289 9.61616 5.31446 9.61327 5.31541C9.61021 5.31641 9.60772 5.31725 9.60624 5.31776C9.60472 5.31828 9.60347 5.31871 9.60293 5.3189C9.60264 5.319 9.60237 5.3191 9.60226 5.31913C9.60211 5.31918 9.60212 5.31918 9.60214 5.31917C9.6022 5.31915 9.6027 5.31898 9.60342 5.31873C9.60414 5.31848 9.60528 5.3181 9.6067 5.31762C9.60928 5.31676 9.61428 5.31512 9.62074 5.3132L9.76324 5.79246ZM9.7691 5.79051V6.29051H9.77106V5.79051V5.29051H9.7691V5.79051ZM9.77106 5.79051L9.91473 6.26942L9.98309 6.24891L9.83942 5.77L9.69574 5.29109L9.62738 5.3116L9.77106 5.79051ZM9.83942 5.77V6.27H18.939V5.77V5.27H9.83942V5.77ZM18.939 5.77L19.4389 5.75798C19.4344 5.57099 19.4435 5.37435 19.4801 5.22081L18.9937 5.10496L18.5073 4.98912C18.4411 5.26698 18.4339 5.56418 18.4392 5.78202L18.939 5.77ZM18.9937 5.10496L19.48 5.2211C19.5051 5.11611 19.5539 4.98614 19.5965 4.88118L19.1334 4.69285L18.6702 4.50452C18.6248 4.61614 18.5512 4.8053 18.5074 4.98882L18.9937 5.10496ZM19.1334 4.69285L19.5965 4.88124C19.6182 4.82794 19.6378 4.78186 19.6514 4.75096L19.1939 4.5493L18.7364 4.34764C18.7185 4.3883 18.6951 4.44329 18.6702 4.50447L19.1334 4.69285ZM19.1939 4.5493L19.6514 4.75104C19.6539 4.74534 19.6565 4.73965 19.6593 4.73354C19.6608 4.73034 19.6621 4.72753 19.6637 4.72404C19.6651 4.72089 19.6669 4.71695 19.6687 4.71304L19.2134 4.50633L18.7582 4.29962C18.7576 4.30098 18.7453 4.32738 18.7364 4.34756L19.1939 4.5493ZM19.2134 4.50633L19.6688 4.71279C19.6741 4.70119 19.6782 4.69111 19.6812 4.68343C19.6841 4.67589 19.6863 4.66973 19.6873 4.66694C19.6875 4.6662 19.6878 4.66558 19.6879 4.6652C19.6881 4.66464 19.688 4.66476 19.6881 4.66459C19.6882 4.66439 19.6878 4.66558 19.6872 4.66725C19.6865 4.66894 19.6853 4.67218 19.6837 4.67631C19.6821 4.68039 19.6797 4.68655 19.6764 4.694L19.2183 4.49363L18.7602 4.29326C18.7566 4.30146 18.7538 4.30842 18.7519 4.31335C18.75 4.31833 18.7485 4.32247 18.7475 4.32511C18.7466 4.32771 18.7458 4.32989 18.7455 4.33071C18.7454 4.33096 18.7453 4.33118 18.7453 4.33133C18.7452 4.33151 18.7452 4.33157 18.7452 4.33166C18.7451 4.33181 18.7451 4.33172 18.7452 4.33154C18.7454 4.33092 18.7468 4.32707 18.7488 4.32191C18.7508 4.31661 18.7539 4.30898 18.7581 4.29987L19.2134 4.50633ZM19.2183 4.49363L19.6727 4.70228C19.6702 4.70775 19.6681 4.71201 19.667 4.71431C19.6658 4.71673 19.6649 4.71854 19.6646 4.71911C19.6644 4.71943 19.6643 4.71965 19.6643 4.71954C19.6644 4.71952 19.6644 4.7195 19.6644 4.71944C19.6644 4.7194 19.6644 4.71933 19.6645 4.71926C19.6646 4.71911 19.6647 4.71887 19.6648 4.71859C19.6651 4.71808 19.6656 4.71706 19.6662 4.71581C19.6669 4.71462 19.6679 4.71258 19.6691 4.71007L19.2203 4.48973L18.7714 4.26939C18.7726 4.2671 18.7735 4.26532 18.7739 4.2644C18.7744 4.26342 18.7748 4.2627 18.7749 4.26249C18.775 4.26233 18.7751 4.26212 18.7749 4.26249C18.7748 4.26272 18.7745 4.26328 18.7742 4.26395C18.7735 4.26522 18.7722 4.26774 18.7707 4.27088C18.7692 4.27389 18.7668 4.27885 18.7639 4.28499L19.2183 4.49363ZM19.2203 4.48973L19.5738 4.84328L19.5748 4.8423L19.2213 4.48875L18.8677 4.1352L18.8667 4.13617L19.2203 4.48973ZM19.2213 4.48875L19.6747 4.69949L19.7069 4.63016L19.2535 4.41941L18.8001 4.20867L18.7678 4.27801L19.2213 4.48875ZM19.2535 4.41941L19.6261 4.75281L19.6759 4.69715L19.3033 4.36375L18.9307 4.03035L18.8809 4.08602L19.2535 4.41941ZM19.3033 4.36375L19.6568 4.7173L19.6617 4.71242L19.3082 4.35887L18.9546 4.00531L18.9497 4.0102L19.3033 4.36375ZM19.3082 4.35887L19.6779 4.69547C19.6789 4.69436 19.6799 4.69325 19.6806 4.69244C19.6815 4.69147 19.6821 4.69084 19.6829 4.68999C19.6843 4.68843 19.6854 4.68717 19.6865 4.68605L19.3179 4.34813L18.9494 4.0102C18.9465 4.01335 18.9439 4.01621 18.942 4.01833C18.9395 4.02105 18.9391 4.02151 18.9384 4.02226L19.3082 4.35887ZM19.3179 4.34813L19.6863 4.6862C19.6966 4.67502 19.7053 4.66543 19.7174 4.65238L19.3521 4.31102L18.9868 3.96965C18.9705 3.98706 18.9556 4.00343 18.9496 4.01005L19.3179 4.34813ZM19.3521 4.31102L19.7174 4.65243C19.7436 4.62443 19.7812 4.58486 19.8249 4.54047L19.4683 4.18992L19.1118 3.83938C19.0617 3.8903 19.0182 3.936 18.9868 3.96961L19.3521 4.31102ZM19.4683 4.18992L19.8248 4.5405C19.9124 4.45141 20.0233 4.34398 20.1184 4.26992L19.8111 3.87547L19.5038 3.48102C19.3535 3.59809 19.2041 3.74548 19.1118 3.83934L19.4683 4.18992ZM19.8111 3.87547L20.1183 4.26995C20.1993 4.20692 20.3101 4.13554 20.4008 4.07993L20.1392 3.65379L19.8777 3.22765C19.7813 3.28679 19.6309 3.38205 19.5039 3.48099L19.8111 3.87547ZM20.1392 3.65379L20.4007 4.07995C20.4252 4.06494 20.4456 4.05243 20.4632 4.04194L20.2066 3.61277L19.95 3.18361C19.9266 3.19762 19.9011 3.21327 19.8777 3.22763L20.1392 3.65379ZM20.2066 3.61277L20.5582 3.96832C20.5638 3.9627 20.5697 3.9577 20.5747 3.95376C20.5798 3.94977 20.5825 3.94809 20.581 3.94905L20.3101 3.52879L20.0392 3.10853C19.9961 3.13635 19.9273 3.18584 19.8551 3.25723L20.2066 3.61277ZM20.3101 3.52879L20.5808 3.9492C20.6369 3.91306 20.7867 3.84035 21.1544 3.69833L20.9742 3.23192L20.794 2.7655C20.4385 2.90282 20.1944 3.00861 20.0395 3.10838L20.3101 3.52879ZM20.9742 3.23192L21.1541 3.69843C21.2005 3.68054 21.272 3.66495 21.3642 3.65142L21.2916 3.15672L21.2189 2.66202C21.111 2.67788 20.9487 2.70586 20.7943 2.7654L20.9742 3.23192ZM21.2916 3.15672L21.3641 3.65142C21.4572 3.63778 21.5716 3.62601 21.7033 3.6163L21.6666 3.11766L21.6298 2.61901C21.4838 2.62977 21.3437 2.64371 21.219 2.66202L21.2916 3.15672ZM21.6666 3.11766L21.7033 3.6163C21.9677 3.59682 22.3053 3.58523 22.6909 3.57852L22.6822 3.07859L22.6735 2.57867C22.2818 2.58549 21.9222 2.59746 21.6298 2.61901L21.6666 3.11766ZM22.6822 3.07859L22.6909 3.57852C23.4607 3.56513 24.418 3.57335 25.3513 3.5912L25.3609 3.09129L25.3705 2.59138C24.4324 2.57344 23.4612 2.56497 22.6735 2.57867L22.6822 3.07859ZM22.0855 4.19871L22.0855 3.69871C21.7031 3.69875 21.151 3.80757 20.7459 4.26614L21.1207 4.59715L21.4954 4.92816C21.6408 4.76358 21.864 4.69874 22.0856 4.69871L22.0855 4.19871ZM21.1207 4.59715L20.7458 4.26624C20.715 4.30111 20.6761 4.3473 20.6372 4.40143L21.0435 4.69285L21.4498 4.98427C21.4617 4.96765 21.4768 4.94919 21.4955 4.92806L21.1207 4.59715ZM21.0435 4.69285L20.6371 4.4016C20.5658 4.50103 20.5123 4.59247 20.4694 4.67914L20.9175 4.90086L21.3657 5.12258C21.3848 5.08398 21.4105 5.0391 21.4499 4.98411L21.0435 4.69285ZM20.9175 4.90086L20.4593 4.70085L20.3821 4.87761L20.8404 5.07762L21.2986 5.27763L21.3758 5.10087L20.9175 4.90086ZM20.8404 5.07762L20.3788 4.88538C20.1342 5.4728 20.3119 6.0475 20.6348 6.4192L21.0123 6.09129L21.3897 5.76338C21.2725 5.62849 21.2271 5.44959 21.302 5.26986L20.8404 5.07762ZM21.0123 6.09129L20.635 6.41939C20.9416 6.77199 21.4009 6.9847 21.8852 6.98484L21.8853 6.48484L21.8855 5.98484C21.6898 5.98479 21.5059 5.89695 21.3896 5.76319L21.0123 6.09129ZM21.8853 6.48484V6.98484H28.7173V6.48484V5.98484H21.8853V6.48484ZM28.7173 6.48484L28.7175 6.98484C29.1552 6.98472 29.611 6.826 29.9511 6.52345L29.6187 6.14988L29.2864 5.77632C29.1416 5.90511 28.9269 5.98479 28.7172 5.98484L28.7173 6.48484ZM29.6187 6.14988L29.9512 6.52332C30.3131 6.20106 30.6164 5.6199 30.3834 4.94398L29.9107 5.10691L29.438 5.26985C29.5053 5.46517 29.4338 5.64505 29.2862 5.77645L29.6187 6.14988ZM29.9107 5.10691L30.3833 4.94377C30.311 4.73419 30.2329 4.58253 30.1033 4.40161L29.6968 4.69285L29.2904 4.9841C29.3634 5.08588 29.397 5.15114 29.4381 5.27006L29.9107 5.10691ZM29.6968 4.69285L30.1032 4.40154C30.0643 4.34727 30.0252 4.30097 29.9946 4.26632L29.6197 4.59715L29.2448 4.92798C29.2636 4.94931 29.2787 4.96773 29.2905 4.98416L29.6968 4.69285ZM29.6197 4.59715L29.9945 4.26619C29.5892 3.80722 29.0359 3.69874 28.6539 3.69871L28.6539 4.19871L28.6538 4.69871C28.8759 4.69873 29.0997 4.76372 29.2449 4.92811L29.6197 4.59715ZM28.6539 4.19871V3.69871H22.0855V4.19871V4.69871H28.6539V4.19871Z" fill="#4CAF40"/>
<path d="M49.7958 2.12213V5.93161V7.34253C49.7958 7.5703 49.6936 8.02802 49.4937 8.18908C49.2939 8.35014 48.8702 8.61235 48.5875 8.61235C48.3048 8.61235 47.7301 8.49123 47.5302 8.33017C47.3303 8.16911 47.2281 7.5703 47.2281 7.34253V6.35489V2.54541H38.7698C38.4871 2.54541 37.7125 2.40431 37.5615 2.12213C37.3616 1.96107 37.2594 1.36226 37.2594 1.13449C37.2594 0.906714 37.5791 0.146844 38.1656 0.146844C38.9208 0.146844 39.5444 0.146844 39.8271 0.146844H48.1737C48.4563 0.146844 49.4168 0.57012 49.4937 0.852304C49.5707 1.13449 49.7958 1.89436 49.7958 2.12213ZM8.58131 37.4234H2.72389V29.8044C2.72389 29.5767 2.61988 29.3471 2.31722 29.0649C2.01457 28.7827 1.51327 28.7231 1.36194 28.7231C1.21062 28.7231 0.674026 28.7827 0.340708 29.0649C0.00738916 29.3471 0 29.5767 0 29.8044V38.27C0 38.4977 0.102892 39.3704 0.254219 39.5115C0.405546 39.7936 1.02882 39.9347 1.31151 39.9347H4.9365H8.58131C8.86399 39.9347 10.6161 40.0816 11.5823 39.9347C11.2388 39.6192 10.8955 39.2576 10.5929 38.9414C10.3891 38.7284 10.1389 38.411 9.98758 37.4234C9.89425 37.4234 8.86399 37.4234 8.58131 37.4234ZM48.5875 28.7885C48.3048 28.7885 47.7301 28.9096 47.5302 29.0707C47.3303 29.2317 47.0771 29.5484 47.0771 29.7761V37.3951H41.0984C39.676 37.3951 39.6761 37.3951 39.6761 37.3951C39.6761 37.3951 39.8271 37.9595 39.525 38.5238C39.2229 39.0882 38.9687 39.4461 38.2135 39.8694C38.688 39.8694 41.1027 39.8694 41.3854 39.8694H49.0885C49.3712 39.8694 49.6438 39.6071 49.8437 39.4461C50.0436 39.285 49.9947 38.404 49.9947 38.1763V29.7761C49.9947 29.5484 49.8447 29.2317 49.6448 29.0707C49.4449 28.9096 48.8702 28.7885 48.5875 28.7885ZM1.35937 10.8044C1.64206 10.8044 2.11458 10.6634 2.41666 10.5223C2.71875 10.2401 2.87521 10.0132 2.87521 9.83509V2.54541H10.9782C11.2609 2.54541 11.8356 2.42428 12.0355 2.26322C12.3381 2.12213 12.4088 1.49238 12.4088 1.06911C12.4088 0.841336 12.2575 0.504741 11.9548 0.222557C11.6522 0 11.3296 0 11.0469 0H1.96725C1.68457 0 0.907962 4.63592e-07 0.605308 0.282184C0.181032 0.677763 0 1.18315 0 1.41092V9.8168C0 10.2401 0.453125 10.5223 0.453125 10.5223C0.453125 10.5223 1.07669 10.8044 1.35937 10.8044Z" fill="#FF9D00"/>
<path d="M62.008 20.5121C61.624 20.2881 61.2027 20.0801 60.744 19.8881C60.2853 19.6961 59.8373 19.5414 59.4 19.4241C58.9733 19.3067 58.6 19.2481 58.28 19.2481C58.0027 19.2481 57.7787 19.3014 57.608 19.4081C57.4373 19.5147 57.352 19.6801 57.352 19.9041C57.352 20.1494 57.4533 20.3521 57.656 20.5121C57.8693 20.6614 58.152 20.7894 58.504 20.8961C58.856 21.0027 59.24 21.1147 59.656 21.2321C60.072 21.3387 60.488 21.4774 60.904 21.6481C61.32 21.8081 61.6987 22.0161 62.04 22.2721C62.392 22.5174 62.6747 22.8427 62.888 23.2481C63.1013 23.6427 63.208 24.1334 63.208 24.7201C63.208 25.5307 62.9947 26.2027 62.568 26.7361C62.152 27.2587 61.592 27.6534 60.888 27.9201C60.1947 28.1761 59.4267 28.3041 58.584 28.3041C57.944 28.3041 57.2987 28.2294 56.648 28.0801C55.9973 27.9307 55.3733 27.7227 54.776 27.4561C54.1893 27.1894 53.6613 26.8641 53.192 26.4801L54.44 23.9521C54.824 24.2827 55.2667 24.5814 55.768 24.8481C56.28 25.1041 56.7867 25.3121 57.288 25.4721C57.8 25.6214 58.2427 25.6961 58.616 25.6961C58.9787 25.6961 59.2613 25.6321 59.464 25.5041C59.6667 25.3654 59.768 25.1627 59.768 24.8961C59.768 24.6507 59.6613 24.4534 59.448 24.3041C59.2347 24.1441 58.952 24.0107 58.6 23.9041C58.2587 23.7974 57.8747 23.6907 57.448 23.5841C57.032 23.4774 56.616 23.3494 56.2 23.2001C55.7947 23.0401 55.416 22.8374 55.064 22.5921C54.712 22.3467 54.4293 22.0321 54.216 21.6481C54.0133 21.2641 53.912 20.7841 53.912 20.2081C53.912 19.4827 54.104 18.8534 54.488 18.3201C54.872 17.7761 55.4107 17.3601 56.104 17.0721C56.7973 16.7841 57.6133 16.6401 58.552 16.6401C59.4053 16.6401 60.248 16.7627 61.08 17.0081C61.912 17.2427 62.632 17.5574 63.24 17.9521L62.008 20.5121ZM69.8844 22.7841C69.735 22.5067 69.543 22.2934 69.3084 22.1441C69.0737 21.9947 68.8017 21.9201 68.4924 21.9201C68.2044 21.9201 67.9484 22.0001 67.7244 22.1601C67.511 22.3094 67.3457 22.5227 67.2284 22.8001C67.111 23.0774 67.0524 23.4027 67.0524 23.7761C67.0524 24.1601 67.111 24.4961 67.2284 24.7841C67.3457 25.0614 67.511 25.2801 67.7244 25.4401C67.9484 25.5894 68.2044 25.6641 68.4924 25.6641C68.8017 25.6641 69.0737 25.5894 69.3084 25.4401C69.543 25.2801 69.7297 25.0347 69.8684 24.7041L72.3804 25.9681C72.0497 26.6827 71.527 27.2374 70.8124 27.6321C70.1084 28.0267 69.2764 28.2241 68.3164 28.2241C67.4097 28.2241 66.615 28.0427 65.9324 27.6801C65.2604 27.3067 64.7324 26.7894 64.3484 26.1281C63.975 25.4561 63.7884 24.6774 63.7884 23.7921C63.7884 22.8961 63.975 22.1121 64.3484 21.4401C64.7324 20.7574 65.2657 20.2294 65.9484 19.8561C66.631 19.4827 67.431 19.2961 68.3484 19.2961C69.255 19.2961 70.055 19.4987 70.7484 19.9041C71.4524 20.2987 71.991 20.8534 72.3644 21.5681L69.8844 22.7841ZM76.7266 24.4641C76.4066 24.4641 76.1613 24.5334 75.9906 24.6721C75.8306 24.8001 75.7506 25.0027 75.7506 25.2801C75.7506 25.5467 75.836 25.7601 76.0066 25.9201C76.1773 26.0694 76.4173 26.1441 76.7266 26.1441C76.9506 26.1441 77.1586 26.1067 77.3506 26.0321C77.5426 25.9574 77.7133 25.8561 77.8626 25.7281C78.012 25.5894 78.124 25.4294 78.1986 25.2481L78.5986 26.4001C78.3853 26.9867 78.028 27.4454 77.5266 27.7761C77.0253 28.0961 76.4013 28.2561 75.6546 28.2561C75.036 28.2561 74.508 28.1441 74.0706 27.9201C73.6333 27.6854 73.2973 27.3654 73.0626 26.9601C72.828 26.5441 72.7106 26.0641 72.7106 25.5201C72.7106 24.6774 72.9986 24.0321 73.5746 23.5841C74.1506 23.1254 74.9826 22.8907 76.0706 22.8801H78.4866V24.4641H76.7266ZM78.1986 22.8481C78.1986 22.4854 78.0706 22.2027 77.8146 22.0001C77.5586 21.7974 77.1853 21.6961 76.6946 21.6961C76.3426 21.6961 75.9373 21.7494 75.4786 21.8561C75.02 21.9627 74.5506 22.1174 74.0706 22.3201L73.2706 20.1761C73.7506 19.9841 74.2253 19.8187 74.6946 19.6801C75.164 19.5414 75.628 19.4401 76.0866 19.3761C76.556 19.3121 77.0146 19.2801 77.4626 19.2801C78.6893 19.2801 79.644 19.5574 80.3266 20.1121C81.02 20.6667 81.3666 21.4507 81.3666 22.4641V28.1121H78.1986V22.8481ZM88.9894 23.5201C88.9894 23.0827 88.872 22.7414 88.6374 22.4961C88.4134 22.2401 88.1147 22.1121 87.7414 22.1121C87.304 22.1227 86.9574 22.2827 86.7014 22.5921C86.4454 22.9014 86.3174 23.3067 86.3174 23.8081H85.5814C85.5814 22.8587 85.72 22.0427 85.9974 21.3601C86.2854 20.6774 86.6907 20.1601 87.2134 19.8081C87.736 19.4561 88.36 19.2801 89.0854 19.2801C89.704 19.2801 90.248 19.4134 90.7174 19.6801C91.1974 19.9467 91.5654 20.3307 91.8214 20.8321C92.088 21.3334 92.2214 21.9201 92.2214 22.5921V28.1121H88.9894V23.5201ZM83.0854 19.4081H86.3174V28.1121H83.0854V19.4081Z" fill="#FF9D00"/>
<path d="M92.9241 16.8961H102.78V19.5521H99.5161V28.1121H96.1721V19.5521H92.9241V16.8961ZM109.694 22.1921C109.139 22.1174 108.654 22.1441 108.238 22.2721C107.833 22.4001 107.518 22.6081 107.294 22.8961C107.07 23.1734 106.958 23.5254 106.958 23.9521L106.222 23.8081C106.222 22.8801 106.361 22.0747 106.638 21.3921C106.926 20.7094 107.331 20.1867 107.854 19.8241C108.377 19.4614 108.99 19.2801 109.694 19.2801V22.1921ZM103.726 19.4081H106.958V28.1121H103.726V19.4081ZM113.992 24.4641C113.672 24.4641 113.427 24.5334 113.256 24.6721C113.096 24.8001 113.016 25.0027 113.016 25.2801C113.016 25.5467 113.102 25.7601 113.272 25.9201C113.443 26.0694 113.683 26.1441 113.992 26.1441C114.216 26.1441 114.424 26.1067 114.616 26.0321C114.808 25.9574 114.979 25.8561 115.128 25.7281C115.278 25.5894 115.39 25.4294 115.464 25.2481L115.864 26.4001C115.651 26.9867 115.294 27.4454 114.792 27.7761C114.291 28.0961 113.667 28.2561 112.92 28.2561C112.302 28.2561 111.774 28.1441 111.336 27.9201C110.899 27.6854 110.563 27.3654 110.328 26.9601C110.094 26.5441 109.976 26.0641 109.976 25.5201C109.976 24.6774 110.264 24.0321 110.84 23.5841C111.416 23.1254 112.248 22.8907 113.336 22.8801H115.752V24.4641H113.992ZM115.464 22.8481C115.464 22.4854 115.336 22.2027 115.08 22.0001C114.824 21.7974 114.451 21.6961 113.96 21.6961C113.608 21.6961 113.203 21.7494 112.744 21.8561C112.286 21.9627 111.816 22.1174 111.336 22.3201L110.536 20.1761C111.016 19.9841 111.491 19.8187 111.96 19.6801C112.43 19.5414 112.894 19.4401 113.352 19.3761C113.822 19.3121 114.28 19.2801 114.728 19.2801C115.955 19.2801 116.91 19.5574 117.592 20.1121C118.286 20.6667 118.632 21.4507 118.632 22.4641V28.1121H115.464V22.8481ZM126.479 22.3521C125.892 22.0534 125.354 21.8294 124.863 21.6801C124.383 21.5201 123.972 21.4401 123.631 21.4401C123.439 21.4401 123.279 21.4774 123.151 21.5521C123.034 21.6161 122.975 21.7174 122.975 21.8561C122.975 22.0161 123.082 22.1494 123.295 22.2561C123.519 22.3521 123.802 22.4481 124.143 22.5441C124.495 22.6401 124.863 22.7467 125.247 22.8641C125.631 22.9814 125.994 23.1467 126.335 23.3601C126.687 23.5627 126.97 23.8241 127.183 24.1441C127.407 24.4641 127.519 24.8747 127.519 25.3761C127.519 25.9734 127.354 26.4854 127.023 26.9121C126.703 27.3387 126.255 27.6694 125.679 27.9041C125.114 28.1387 124.452 28.2561 123.695 28.2561C122.927 28.2561 122.191 28.1547 121.487 27.9521C120.794 27.7387 120.164 27.4294 119.599 27.0241L120.591 24.9921C121.135 25.3441 121.674 25.6107 122.207 25.7921C122.751 25.9734 123.263 26.0641 123.743 26.0641C123.892 26.0641 124.02 26.0481 124.127 26.0161C124.234 25.9841 124.314 25.9414 124.367 25.8881C124.431 25.8241 124.463 25.7494 124.463 25.6641C124.463 25.5041 124.356 25.3707 124.143 25.2641C123.93 25.1574 123.652 25.0614 123.311 24.9761C122.98 24.8907 122.623 24.7894 122.239 24.6721C121.855 24.5441 121.492 24.3787 121.151 24.1761C120.82 23.9734 120.548 23.7121 120.335 23.3921C120.122 23.0721 120.015 22.6667 120.015 22.1761C120.015 21.5574 120.17 21.0347 120.479 20.6081C120.799 20.1814 121.236 19.8507 121.791 19.6161C122.346 19.3814 122.991 19.2641 123.727 19.2641C124.388 19.2641 125.044 19.3547 125.695 19.5361C126.346 19.7067 126.964 19.9681 127.551 20.3201L126.479 22.3521ZM134.898 23.5201C134.898 23.0827 134.78 22.7414 134.546 22.4961C134.322 22.2401 134.023 22.1121 133.65 22.1121C133.212 22.1227 132.866 22.2827 132.61 22.5921C132.354 22.9014 132.226 23.3067 132.226 23.8081H131.49C131.49 22.8587 131.628 22.0427 131.906 21.3601C132.194 20.6774 132.599 20.1601 133.122 19.8081C133.644 19.4561 134.268 19.2801 134.994 19.2801C135.623 19.2801 136.172 19.4134 136.642 19.6801C137.111 19.9467 137.474 20.3307 137.73 20.8321C137.996 21.3334 138.13 21.9201 138.13 22.5921V28.1121H134.898V23.5201ZM128.993 16.2401H132.226V28.1121H128.993V16.2401Z" fill="url(#paint1_linear_130_376)"/>
<defs>
<linearGradient id="paint0_linear_130_376" x1="43.5593" y1="21.7162" x2="8.39678" y2="21.7162" gradientUnits="userSpaceOnUse">
<stop stop-color="#9FE85B"/>
<stop offset="0.597572" stop-color="#71C84C"/>
<stop offset="1" stop-color="#4CAF40"/>
</linearGradient>
<linearGradient id="paint1_linear_130_376" x1="53" y1="20.1121" x2="139" y2="20.1121" gradientUnits="userSpaceOnUse">
<stop offset="0.533654" stop-color="#68BA5E"/>
<stop offset="1" stop-color="#9FE85B"/>
</linearGradient>
</defs>
</svg>
