<svg width="46" height="37" viewBox="0 0 46 37" fill="none" xmlns="http://www.w3.org/2000/svg">
<path d="M30.9091 15.2857C33.7764 15.2857 36.0736 12.9886 36.0736 10.1429C36.0736 7.29714 33.7764 5 30.9091 5C28.0418 5 25.7273 7.29714 25.7273 10.1429C25.7273 12.9886 28.0418 15.2857 30.9091 15.2857ZM17.0909 15.2857C19.9582 15.2857 22.2555 12.9886 22.2555 10.1429C22.2555 7.29714 19.9582 5 17.0909 5C14.2236 5 11.9091 7.29714 11.9091 10.1429C11.9091 12.9886 14.2236 15.2857 17.0909 15.2857ZM17.0909 18.7143C13.0664 18.7143 5 20.72 5 24.7143V29H29.1818V24.7143C29.1818 20.72 21.1155 18.7143 17.0909 18.7143ZM30.9091 18.7143C30.4082 18.7143 29.8382 18.7486 29.2336 18.8C31.2373 20.24 32.6364 22.1771 32.6364 24.7143V29H43V24.7143C43 20.72 34.9336 18.7143 30.9091 18.7143Z" fill="#FF9D00"/>
</svg>
