<svg width="41" height="41" viewBox="0 0 41 41" fill="none" xmlns="http://www.w3.org/2000/svg">
<path fill-rule="evenodd" clip-rule="evenodd" d="M20.5 3.41669C22.7434 3.41668 24.9649 3.85855 27.0375 4.71706C29.1102 5.57557 30.9934 6.83392 32.5798 8.42025C34.1661 10.0066 35.4245 11.8898 36.283 13.9625C37.1415 16.0351 37.5834 18.2566 37.5834 20.5C37.5834 29.9349 29.9349 37.5834 20.5 37.5834C11.0652 37.5834 3.41669 29.9349 3.41669 20.5C3.41669 11.0652 11.0652 3.41669 20.5 3.41669ZM22.2084 22.2084H18.7917C14.5624 22.2084 10.9314 24.7698 9.36529 28.4263C11.8432 31.901 15.907 34.1667 20.5 34.1667C25.093 34.1667 29.1568 31.901 31.6348 28.4261C30.0687 24.7698 26.4377 22.2084 22.2084 22.2084ZM20.5 8.54169C17.6696 8.54169 15.375 10.8363 15.375 13.6667C15.375 16.4971 17.6696 18.7917 20.5 18.7917C23.3304 18.7917 25.625 16.4971 25.625 13.6667C25.625 10.8363 23.3305 8.54169 20.5 8.54169Z" fill="#FAA111"/>
</svg>
