<svg width="35" height="36" viewBox="0 0 35 36" fill="none" xmlns="http://www.w3.org/2000/svg">
<rect width="35" height="35.8542" rx="10" fill="#9FE85B"/>
<path d="M26.6875 12.0938C26.6875 12.3838 26.5723 12.662 26.3671 12.8671C26.162 13.0723 25.8838 13.1875 25.5938 13.1875H8.09375C7.80367 13.1875 7.52547 13.0723 7.32035 12.8671C7.11523 12.662 7 12.3838 7 12.0938C7 11.8037 7.11523 11.5255 7.32035 11.3204C7.52547 11.1152 7.80367 11 8.09375 11H25.5938C25.8838 11 26.162 11.1152 26.3671 11.3204C26.5723 11.5255 26.6875 11.8037 26.6875 12.0938ZM26.6875 17.9271C26.6875 18.2172 26.5723 18.4954 26.3671 18.7005C26.162 18.9056 25.8838 19.0208 25.5938 19.0208H8.09375C7.80367 19.0208 7.52547 18.9056 7.32035 18.7005C7.11523 18.4954 7 18.2172 7 17.9271C7 17.637 7.11523 17.3588 7.32035 17.1537C7.52547 16.9486 7.80367 16.8333 8.09375 16.8333H25.5938C25.8838 16.8333 26.162 16.9486 26.3671 17.1537C26.5723 17.3588 26.6875 17.637 26.6875 17.9271ZM26.6875 23.7604C26.6875 24.0505 26.5723 24.3287 26.3671 24.5338C26.162 24.7389 25.8838 24.8542 25.5938 24.8542H8.09375C7.80367 24.8542 7.52547 24.7389 7.32035 24.5338C7.11523 24.3287 7 24.0505 7 23.7604C7 23.4703 7.11523 23.1921 7.32035 22.987C7.52547 22.7819 7.80367 22.6667 8.09375 22.6667H25.5938C25.8838 22.6667 26.162 22.7819 26.3671 22.987C26.5723 23.1921 26.6875 23.4703 26.6875 23.7604Z" fill="#45523B"/>
</svg>
